<svg width="42" height="42" viewBox="0 0 42 42" fill="none" xmlns="http://www.w3.org/2000/svg">
<g clip-path="url(#clip0_65_237)">
<path d="M0.947394 18.5555C0.968588 18.2724 0.857256 18.1 0.822907 17.9221C0.812432 17.8681 0.803666 17.8042 0.796601 17.7355C0.761278 17.3986 0.761279 16.9443 0.761279 16.9443C0.761279 16.9443 1.24484 16.8001 1.52792 17.3828C1.81099 17.9655 1.69844 18.232 1.90892 18.165C2.08919 18.108 2.36545 17.6581 2.78811 17.4571C2.67605 17.0934 2.57885 16.5494 2.71503 15.9547C2.94305 14.9647 3.46193 14.3162 3.53063 14.2336C3.45243 14.3243 2.77788 15.0546 1.47993 14.8612C0.734238 14.7503 0.26943 14.4841 -0.000976562 14.2624V20.4579C0.144718 20.1267 0.322165 19.8105 0.528874 19.5136C0.82827 19.0824 0.930828 18.7831 0.947394 18.5555Z" fill="white"/>
<path d="M6.75293 17.4551C6.67035 17.5236 6.0221 18.0425 5.03182 18.2708C4.43401 18.4084 3.88686 18.3092 3.5234 18.1977C3.32169 18.6186 2.87369 18.8939 2.81693 19.0747C2.75018 19.2856 3.01766 19.1721 3.5994 19.4554C4.18114 19.7388 4.0379 20.2223 4.0379 20.2223C4.0379 20.2223 3.58356 20.2223 3.24665 20.187C3.17795 20.1797 3.11389 20.1712 3.05981 20.1607C2.88294 20.1263 2.71071 20.0145 2.42642 20.036C2.19865 20.053 1.89949 20.1558 1.4683 20.454C1.15865 20.6696 0.827927 20.8533 0.481201 21.0021H6.73539C6.51151 20.7342 6.23818 20.2659 6.12637 19.5076C5.93221 18.2077 6.66231 17.5331 6.75293 17.4551Z" fill="white"/>
<path d="M4.68342 9.55342C6.1653 9.95952 8.20358 9.5142 9.63917 9.6265C9.52784 8.19091 9.97316 6.15287 9.56609 4.671C9.19629 3.3214 8.216 2.77084 7.72586 2.57376C7.60868 3.07876 7.31172 3.60009 6.8379 4.08633C6.08539 4.85882 5.00205 4.65394 4.3426 4.32994C4.66539 4.98964 4.87051 6.07273 4.09899 6.82524C3.61177 7.29906 3.09143 7.59626 2.58643 7.71344C2.78302 8.20333 3.33455 9.18386 4.68342 9.55342ZM4.79158 7.08639C5.60061 6.64375 6.35409 6.70075 6.95532 6.94192C6.71414 6.3407 6.65714 5.58721 7.09978 4.77818C7.587 3.88828 9.00261 3.81568 9.00261 3.81568C9.21528 3.99474 9.39434 4.57672 9.39434 4.57672C9.39434 4.57672 8.93538 4.39206 7.98409 4.86199C7.03279 5.33191 7.37969 6.55775 8.02891 6.47395C8.67813 6.39015 8.55486 5.78551 8.55486 5.78551C8.55486 5.78551 9.14805 6.0262 8.97314 6.653C8.79823 7.27981 8.11832 7.16215 8.11832 7.16215C8.11832 7.16215 8.53805 7.3814 8.72271 7.81137C8.84719 8.10175 8.84719 8.49591 8.83379 8.72247C8.83184 8.75706 8.82941 8.788 8.82722 8.81382C8.80139 8.81626 8.77045 8.81845 8.73586 8.82064C8.50931 8.8338 8.11515 8.8338 7.82476 8.70956C7.39382 8.52466 7.17554 8.10516 7.17554 8.10516C7.17554 8.10516 7.29296 8.78459 6.66616 8.95974C6.03935 9.1349 5.7989 8.54146 5.7989 8.54146C5.7989 8.54146 6.4033 8.66473 6.4871 8.01551C6.5709 7.36629 5.34555 7.01939 4.87538 7.97069C4.40521 8.92198 4.58987 9.38094 4.58987 9.38094C4.58987 9.38094 4.00789 9.20189 3.82883 8.98922C3.82883 8.98898 3.90167 7.5736 4.79158 7.08639Z" fill="white"/>
<path d="M3.85566 17.1263L3.84957 17.1399C3.77063 17.328 3.70693 17.5222 3.65907 17.7205C4.03399 17.4729 4.52656 17.043 5.482 16.1738C6.9478 14.84 8.2533 15.6473 8.31006 15.6834C8.26548 15.6549 7.3405 15.0432 7.57924 13.7937C7.62036 13.5695 7.70369 13.3551 7.8248 13.162C7.63168 13.2831 7.41732 13.3665 7.19311 13.4076C5.94364 13.6463 5.33194 12.7211 5.30344 12.6768C5.33949 12.7335 6.14681 14.039 4.81305 15.5048C3.94945 16.4549 3.51948 16.9465 3.27124 17.3204C3.46622 17.273 3.65716 17.2101 3.84227 17.1326L3.85566 17.1263Z" fill="white"/>
<path d="M14.2483 3.51824C14.3301 3.45027 14.9791 2.93066 15.9696 2.70239C16.5847 2.56061 17.1458 2.66975 17.5088 2.78644C17.6854 2.31554 18.1921 2.01468 18.253 1.82247C18.32 1.61151 18.0523 1.72503 17.4708 1.44147C16.8893 1.15791 17.0323 0.674586 17.0323 0.674586C17.0323 0.674586 17.4866 0.674586 17.8235 0.710153C17.8922 0.717218 17.956 0.725987 18.0101 0.736463C18.187 0.770568 18.3594 0.882629 18.6435 0.860948C18.871 0.843895 19.1704 0.741335 19.6016 0.443157C19.8417 0.276442 20.0942 0.128302 20.3568 3.05176e-05H14.2873C14.5065 0.272386 14.7657 0.73427 14.8749 1.46754C15.0683 2.76671 14.3365 3.44126 14.2483 3.51824Z" fill="white"/>
<path d="M18.6592 16.4632C18.0075 15.6142 18.685 15.0911 18.685 15.0911C18.6163 15.5114 19.4226 16.0169 19.7656 15.297C20.1086 14.5771 19.3883 14.002 18.6421 14.0704C17.8959 14.1389 16.704 15.2453 17.6986 16.669C18.6933 18.0927 20.4775 17.7755 20.4775 17.7755C20.2972 18.555 19.637 18.633 19.637 18.633C19.637 18.633 20.2373 18.9161 20.4516 19.4649C20.5798 19.793 20.5854 20.1607 20.5691 20.4035C20.5656 20.4566 20.561 20.5037 20.5564 20.5431C20.5172 20.5475 20.4702 20.5521 20.417 20.5558C20.1734 20.5719 19.8066 20.5663 19.4784 20.4384C18.9296 20.2237 18.6465 19.6235 18.6465 19.6235C18.6465 19.6235 18.5693 20.2839 17.7888 20.4639C17.7888 20.4639 18.1054 18.6802 16.6825 17.6853C15.2596 16.6904 14.1526 17.8824 14.0839 18.6286C14.0153 19.3748 14.5899 20.0951 15.3103 19.7521C16.0306 19.4091 15.5246 18.603 15.1044 18.6715C15.1044 18.6715 15.6277 17.994 16.4767 18.6471C17.2126 19.212 16.4538 20.4211 15.9368 21.0014H20.9998V15.9367C20.4146 16.4519 19.22 17.1937 18.6592 16.4632Z" fill="white"/>
<path d="M2.34084 4.50973C2.9925 5.35871 2.31502 5.88199 2.31502 5.88199C2.38372 5.46176 1.57737 4.95627 1.23437 5.67613C0.891366 6.396 1.61172 6.97116 2.35789 6.90247C3.10407 6.83377 4.29605 5.72754 3.30115 4.30388C2.30625 2.88023 0.522541 3.19765 0.522541 3.19765C0.702569 2.4181 1.36299 2.3399 1.36299 2.3399C1.36299 2.3399 0.762736 2.05683 0.54836 1.50797C0.420221 1.18008 0.414622 0.812226 0.4307 0.569347C0.434354 0.51624 0.438983 0.469467 0.443368 0.430002C0.482833 0.425374 0.529849 0.420744 0.582956 0.417334C0.826566 0.401012 1.19344 0.406615 1.52158 0.534754C2.07044 0.74913 2.35351 1.34938 2.35351 1.34938C2.35351 1.34938 2.43073 0.689202 3.21101 0.508931C3.21101 0.508931 2.89433 2.29288 4.31749 3.28779C5.74066 4.28269 6.84738 3.09119 6.91559 2.34429C6.9838 1.59738 6.40961 0.877757 5.68901 1.221C4.96841 1.56425 5.47464 2.37011 5.89487 2.30141C5.89487 2.30141 5.37183 2.97913 4.52285 2.32723C3.79812 1.77083 4.52285 0.590053 5.03882 3.05176e-05H0V5.03763C0.58515 4.52118 1.78005 3.77939 2.34084 4.50973Z" fill="white"/>
<path d="M17.213 3.76894L17.2191 3.75529C17.2926 3.58007 17.3527 3.39952 17.3989 3.21521C17.0165 3.45638 16.5236 3.88465 15.5182 4.79868C14.0524 6.1322 12.7467 5.32487 12.6902 5.28882C12.7345 5.31757 13.6598 5.92927 13.421 7.1785C13.3803 7.40296 13.2973 7.61765 13.1764 7.81116C13.3696 7.68999 13.5841 7.60658 13.8084 7.56535C15.0576 7.32686 15.6695 8.25209 15.698 8.29618C15.662 8.23942 14.8547 6.93392 16.1882 5.46812C17.1088 4.4564 17.5366 3.96358 17.777 3.57989C17.5895 3.62648 17.4058 3.68748 17.2277 3.76236L17.213 3.76894Z" fill="white"/>
<path d="M19.4997 11.0065C18.1041 10.73 18.0118 8.57526 19.5126 8.36941C19.5126 8.36941 18.8758 9.01254 19.4805 9.53362C20.0851 10.0547 20.8764 9.43618 20.8505 8.60084C20.8247 7.7655 19.8664 6.78058 18.3226 7.38522C16.7789 7.98986 17.2327 10.8031 17.2327 10.8031C17.2327 10.8031 16.8074 10.576 16.1416 10.4798C16.1416 10.4798 15.7628 9.29561 14.4183 8.89025C13.0738 8.48488 12.3279 9.10267 12.3279 9.10267C12.3803 8.83624 12.4835 8.58235 12.6316 8.35479C12.4041 8.50297 12.1502 8.6061 11.8838 8.65857C11.8838 8.65857 12.5013 7.91239 12.0962 6.56815C11.6911 5.22391 10.5069 4.8451 10.5069 4.8451C10.4094 4.17907 10.1834 3.75373 10.1834 3.75373C10.1834 3.75373 12.9966 4.20757 13.6012 2.66382C14.2058 1.12006 13.2217 0.161697 12.3856 0.135875C11.5495 0.110052 10.932 0.901297 11.4528 1.50594C11.9737 2.11058 12.617 1.47378 12.617 1.47378C12.4114 2.97466 10.2565 2.88258 9.97995 1.48669C9.83257 0.742951 10.0652 0.274976 10.3144 0.000671387H6.45273C6.38559 0.0639056 6.31403 0.122276 6.2386 0.175339C6.13555 0.235267 5.9984 0.303965 5.9984 0.303965C5.9984 0.303965 6.95895 0.25232 7.49927 1.10154C7.62472 1.29824 7.71084 1.51739 7.75288 1.74687C11.0535 3.20146 10.5096 6.11942 10.4175 7.508C10.3461 8.58354 10.3853 9.78673 10.4065 10.2757C10.4087 10.3244 10.4107 10.3658 10.4121 10.3994L10.2886 10.3936C9.79968 10.3724 8.59625 10.3334 7.52072 10.4045C6.13214 10.4966 3.21419 11.0406 1.75984 7.74016C1.53024 7.69814 1.311 7.61193 1.11427 7.48632C0.265291 6.94599 0.316693 5.98544 0.316693 5.98544C0.316693 5.98544 0.247994 6.12283 0.188066 6.22564C0.163705 6.26924 0.0830709 6.3623 0 6.45512V10.3137C0.272843 10.0596 0.743736 9.81645 1.50039 9.96627C2.89603 10.243 2.98835 12.3977 1.48748 12.6036C1.48748 12.6036 2.12427 11.9602 1.51963 11.4394C0.914995 10.9185 0.123751 11.5368 0.149574 12.3719C0.175396 13.207 1.13351 14.1924 2.67727 13.5878C4.22102 12.9831 3.76742 10.1697 3.76742 10.1697C3.76742 10.1697 4.19252 10.397 4.85855 10.4932C4.85855 10.4932 5.23736 11.6774 6.58184 12.0825C7.92632 12.4876 8.67226 11.8703 8.67226 11.8703C8.61978 12.1368 8.51665 12.3906 8.36847 12.6182C8.59596 12.47 8.84976 12.3668 9.11611 12.3142C9.11611 12.3142 8.49881 13.0604 8.90393 14.4048C9.30905 15.7493 10.4932 16.1279 10.4932 16.1279C10.5895 16.7939 10.8167 17.2193 10.8167 17.2193C10.8167 17.2193 8.00355 16.7654 7.39891 18.3092C6.79427 19.8529 7.77821 20.8113 8.61452 20.8371C9.45083 20.8629 10.0681 20.0717 9.54706 19.4668C9.02598 18.8619 8.38285 19.4992 8.38285 19.4992C8.5887 17.9983 10.7437 18.0904 11.0202 19.4863C11.1727 20.2554 10.9186 20.7287 10.6599 21.0001H14.5162C14.6137 20.9122 14.7145 20.8252 14.7598 20.7984C14.8629 20.7385 15 20.6698 15 20.6698C15 20.6698 14.0395 20.7212 13.4991 19.8722C13.3736 19.6754 13.2875 19.4562 13.2455 19.2266C9.94487 17.7723 10.4889 14.8543 10.5809 13.4657C10.6523 12.3902 10.6131 11.1868 10.5919 10.6978C10.5897 10.6491 10.5878 10.6079 10.5863 10.5743L10.7098 10.5799C11.1987 10.6014 12.4019 10.6403 13.4775 10.569C14.866 10.4769 17.7842 9.93314 19.2386 13.2336C19.4681 13.2756 19.6874 13.3617 19.8841 13.4872C20.7331 14.0275 20.6817 14.988 20.6817 14.988C20.6817 14.988 20.7502 14.8509 20.8104 14.7478C20.8347 14.7042 20.9151 14.6114 20.9982 14.5186V10.6593C20.7283 10.9134 20.2564 11.1565 19.4997 11.0065Z" fill="white"/>
<path d="M20.1207 2.33965C20.0997 2.62273 20.2111 2.79496 20.2454 2.97304C20.2559 3.02712 20.2644 3.09119 20.2717 3.15989C20.307 3.49655 20.307 3.95113 20.307 3.95113C20.307 3.95113 19.8232 4.0951 19.5402 3.51263C19.2571 2.93016 19.3696 2.66341 19.1594 2.73016C18.9674 2.79106 18.6676 3.29582 18.1981 3.47341C18.3155 3.83639 18.4266 4.39913 18.2841 5.01838C18.0558 6.00938 17.5365 6.65787 17.4683 6.73972C17.5452 6.65032 18.2198 5.91852 19.5192 6.11194C20.2649 6.22303 20.7297 6.48905 20.9999 6.71074V0.587372C20.8678 0.864097 20.7136 1.12969 20.5387 1.38154C20.241 1.81273 20.1377 2.11188 20.1207 2.33965Z" fill="white"/>
<path d="M16.3166 11.4194C14.8347 11.0136 12.7965 11.4587 11.3609 11.3464C11.4722 12.7822 11.0269 14.8202 11.434 16.3021C11.8038 17.6515 12.784 18.2023 13.2739 18.3991C13.3914 17.8944 13.6881 17.373 14.1621 16.8868C14.9146 16.1141 15.998 16.3192 16.6574 16.6432C16.3344 15.9837 16.1295 14.9004 16.901 14.1479C17.3882 13.6741 17.9086 13.3771 18.4136 13.2599C18.217 12.7695 17.666 11.7892 16.3166 11.4194ZM16.2085 13.8867C15.3994 14.3294 14.6459 14.2724 14.0447 14.0312C14.2859 14.6327 14.3429 15.3861 13.9003 16.1952C13.413 17.0848 11.9974 17.1577 11.9974 17.1577C11.7848 16.9786 11.6057 16.3966 11.6057 16.3966C11.6057 16.3966 12.0647 16.5813 13.016 16.1111C13.9672 15.641 13.6204 14.4154 12.9711 14.4994C12.3219 14.5835 12.4454 15.1879 12.4454 15.1879C12.4454 15.1879 11.8522 14.9472 12.0271 14.3204C12.2021 13.6935 12.8817 13.81 12.8817 13.81C12.8817 13.81 12.462 13.5907 12.2773 13.1608C12.1529 12.8706 12.1529 12.4762 12.1662 12.2499C12.1682 12.2151 12.1704 12.1841 12.1728 12.1583C12.1986 12.1561 12.2296 12.1537 12.2642 12.1517C12.4907 12.1386 12.8849 12.1383 13.1753 12.2628C13.6062 12.4475 13.8245 12.8672 13.8245 12.8672C13.8245 12.8672 13.7071 12.1875 14.3336 12.0126C14.9602 11.8377 15.2011 12.4307 15.2011 12.4307C15.2011 12.4307 14.5967 12.3089 14.5129 12.9569C14.4291 13.6049 15.6545 13.953 16.1247 13.0014C16.5948 12.0499 16.4099 11.5931 16.4099 11.5931C16.4099 11.5931 16.9919 11.7722 17.1712 11.9849C17.1714 11.9829 17.0984 13.3998 16.2085 13.8867Z" fill="white"/>
<path d="M18.6422 0.860947C18.3591 0.882141 18.1866 0.770568 18.0088 0.736463C17.9547 0.725987 17.8909 0.717218 17.8222 0.710153C17.4853 0.67483 17.0309 0.674585 17.0309 0.674585C17.0309 0.674585 16.8867 1.15839 17.4694 1.44147C18.0522 1.72454 18.3187 1.612 18.2517 1.82247C18.1908 2.01468 17.6841 2.31554 17.5074 2.78644C17.6531 2.83166 17.7946 2.88962 17.9301 2.95964C17.7435 3.02338 17.5651 3.10917 17.3988 3.21519C17.3526 3.3995 17.2925 3.58005 17.219 3.75527L17.2129 3.76891L17.2266 3.76282C17.4047 3.68795 17.5884 3.62694 17.7759 3.58036C17.8798 3.41615 17.9641 3.24027 18.0268 3.05636C18.0957 3.19005 18.1528 3.32952 18.1973 3.47317C18.6668 3.29558 18.9667 2.79107 19.1586 2.72992C19.3696 2.66317 19.2561 2.93065 19.5394 3.51239C19.8227 4.09413 20.3063 3.95089 20.3063 3.95089C20.3063 3.95089 20.3063 3.49632 20.2709 3.15965C20.2636 3.09095 20.2551 3.02688 20.2446 2.9728C20.2103 2.79594 20.0985 2.62371 20.1199 2.33941C20.137 2.11164 20.2398 1.81249 20.5379 1.3813C20.7128 1.12944 20.867 0.863855 20.9991 0.58713V3.05176e-05H20.3552C20.0926 0.128302 19.8401 0.276442 19.6 0.443156C19.1691 0.741334 18.8697 0.843895 18.6422 0.860947Z" fill="#EF9700"/>
<path d="M2.42635 20.034C2.70942 20.0128 2.88165 20.1244 3.05973 20.1587C3.11381 20.1692 3.17788 20.1777 3.24658 20.185C3.58349 20.2203 4.03783 20.2203 4.03783 20.2203C4.03783 20.2203 4.1818 19.7365 3.59933 19.4535C3.01686 19.1704 2.75011 19.2829 2.81685 19.0727C2.87386 18.8927 3.32186 18.6174 3.52332 18.1957C3.3668 18.149 3.21501 18.0876 3.06996 18.0125C3.27833 17.9414 3.4764 17.8431 3.65901 17.7202C3.70688 17.5219 3.77058 17.3278 3.84951 17.1397L3.8556 17.126L3.84197 17.1321C3.65686 17.2096 3.46592 17.2724 3.27094 17.3199C3.14551 17.5045 3.04539 17.7051 2.97325 17.9163C2.89726 17.7693 2.83536 17.6155 2.78835 17.4568C2.36569 17.6578 2.08944 18.1078 1.90917 18.1648C1.6982 18.2318 1.81172 17.964 1.52816 17.3825C1.2446 16.801 0.761518 16.944 0.761518 16.944C0.761518 16.944 0.761523 17.3984 0.796846 17.7353C0.803911 17.804 0.812677 17.8678 0.823152 17.9219C0.857501 18.0988 0.96932 18.2712 0.947639 18.5553C0.930586 18.7828 0.828029 19.0822 0.529851 19.5134C0.323141 19.8103 0.145695 20.1265 0 20.4576V20.9999H0.481129C0.827854 20.851 1.15858 20.6674 1.46823 20.4518C1.89942 20.1538 2.19857 20.051 2.42635 20.034Z" fill="#EF9700"/>
<path d="M13.2737 18.4001C12.7838 18.2035 11.8035 17.6525 11.4337 16.3031C11.0276 14.8212 11.4729 12.7832 11.3606 11.3474C12.7962 11.4587 14.8345 11.0136 16.3164 11.4204C17.6657 11.7902 18.2165 12.7705 18.4134 13.2607C18.6842 13.1951 18.9656 13.1862 19.2399 13.2346C17.7856 9.93418 14.8676 10.4779 13.4788 10.57C12.4033 10.6414 11.2001 10.6024 10.7112 10.581L10.5877 10.5754C10.5891 10.609 10.5911 10.6504 10.5933 10.6989C10.6145 11.1878 10.6537 12.3912 10.5823 13.4668C10.4902 14.8553 9.94624 17.7733 13.2469 19.2276C13.1987 18.9529 13.2078 18.6711 13.2737 18.4001Z" fill="#0067BE"/>
<path d="M20.6835 14.9881C20.6835 14.9881 20.7349 14.0275 19.8859 13.4872C19.6892 13.3618 19.4699 13.2757 19.2404 13.2336C18.966 13.1853 18.6846 13.1941 18.4138 13.2597C17.9088 13.3769 17.3877 13.6738 16.9012 14.1476C16.1288 14.9002 16.3336 15.9835 16.6576 16.6429C15.9982 16.3202 14.9148 16.115 14.1623 16.8865C13.6885 17.3738 13.3916 17.8941 13.2741 18.3989C13.2087 18.6697 13.1999 18.9511 13.2483 19.2254C13.2903 19.455 13.3764 19.6743 13.5019 19.871C14.0422 20.72 15.0028 20.6686 15.0028 20.6686C15.0028 20.6686 14.8656 20.7373 14.7626 20.7972C14.7166 20.824 14.6164 20.911 14.519 20.9989H15.9387C16.4557 20.4186 17.2145 19.2096 16.4786 18.6447C15.6296 17.9928 15.1063 18.669 15.1063 18.669C15.5266 18.6006 16.032 19.4067 15.3122 19.7497C14.5923 20.0927 14.0171 19.3723 14.0858 18.6262C14.1545 17.88 15.2608 16.688 16.6844 17.6829C18.1081 18.6778 17.7907 20.4615 17.7907 20.4615C18.5702 20.2815 18.6484 19.6211 18.6484 19.6211C18.6484 19.6211 18.9315 20.2213 19.4803 20.4359C19.8085 20.5638 20.1761 20.5694 20.419 20.5534C20.4721 20.5497 20.5191 20.5451 20.5583 20.5407C20.5629 20.5012 20.5676 20.4542 20.571 20.4011C20.5873 20.1575 20.5817 19.7906 20.4536 19.4625C20.2392 18.9136 19.6389 18.6306 19.6389 18.6306C19.6389 18.6306 20.2991 18.5533 20.4794 17.773C20.4794 17.773 18.6954 18.0897 17.7005 16.6666C16.7056 15.2434 17.8978 14.1367 18.644 14.068C19.3902 13.9993 20.1106 14.574 19.7676 15.2946C19.4246 16.0152 18.6182 15.5089 18.6869 15.0887C18.6869 15.0887 18.0094 15.6117 18.6611 16.4607C19.2214 17.1915 20.4165 16.4495 21.0017 15.9331V14.5187C20.9186 14.6115 20.8392 14.7043 20.8139 14.7479C20.7527 14.8509 20.6835 14.9881 20.6835 14.9881Z" fill="#E0D3B4"/>
<path d="M16.4099 11.5932C16.4099 11.5932 16.5946 12.0522 16.1247 13.0035C15.6547 13.9547 14.4289 13.6078 14.513 12.9589C14.597 12.3099 15.2011 12.4327 15.2011 12.4327C15.2011 12.4327 14.9605 11.8395 14.3337 12.0146C13.7068 12.1898 13.8245 12.8692 13.8245 12.8692C13.8245 12.8692 13.6053 12.4495 13.1753 12.2648C12.8849 12.1403 12.4907 12.1406 12.2642 12.1537C12.2296 12.1557 12.1987 12.1581 12.1728 12.1603C12.1704 12.1861 12.1682 12.2171 12.1663 12.2519C12.1529 12.4782 12.1529 12.8726 12.2773 13.1628C12.462 13.5937 12.8817 13.812 12.8817 13.812C12.8817 13.812 12.2021 13.6946 12.0269 14.3214C11.8518 14.9482 12.4454 15.1879 12.4454 15.1879C12.4454 15.1879 12.3222 14.5835 12.9714 14.4995C13.6206 14.4154 13.9675 15.641 13.0162 16.1112C12.0649 16.5813 11.606 16.3967 11.606 16.3967C11.606 16.3967 11.785 16.9787 11.9977 17.1577C11.9977 17.1577 13.4135 17.0846 13.9005 16.1952C14.3432 15.3862 14.2861 14.6327 14.045 14.0312C14.6462 14.2724 15.3997 14.3294 16.2087 13.8868C17.0984 13.3998 17.1715 11.983 17.1715 11.983C16.9919 11.7713 16.4099 11.5932 16.4099 11.5932Z" fill="#6BB0B1"/>
<path d="M11.0202 19.4861C10.7437 18.0903 8.5887 17.9982 8.38285 19.499C8.38285 19.499 9.02622 18.8622 9.54706 19.4666C10.0679 20.071 9.44961 20.8625 8.61452 20.8369C7.77943 20.8114 6.79403 19.8528 7.39891 18.309C8.00379 16.7653 10.8167 17.2191 10.8167 17.2191C10.8167 17.2191 10.5895 16.7938 10.4932 16.1277C10.4932 16.1277 9.30905 15.7489 8.90393 14.4047C8.49881 13.0604 9.11611 12.314 9.11611 12.314C8.84976 12.3666 8.59596 12.4698 8.36847 12.618C8.51665 12.3905 8.61978 12.1366 8.67226 11.8702C8.67226 11.8702 7.92608 12.4877 6.5816 12.0824C5.23712 11.677 4.85855 10.493 4.85855 10.493C4.19252 10.3956 3.76742 10.1695 3.76742 10.1695C3.76742 10.1695 4.22102 12.983 2.67727 13.5876C1.13351 14.1923 0.175153 13.2083 0.149574 12.3727C0.123995 11.5372 0.914995 10.9191 1.51963 11.4402C2.12427 11.9613 1.48748 12.6044 1.48748 12.6044C2.98835 12.3986 2.89603 10.2438 1.50039 9.96709C0.743736 9.81727 0.272843 10.0604 0 10.3145V14.2624C0.270407 14.4841 0.735209 14.7496 1.4809 14.8612C2.77885 15.0546 3.45414 14.3253 3.53161 14.2337C3.46291 14.3163 2.94402 14.9645 2.716 15.9548C2.57909 16.5494 2.67629 17.0934 2.78909 17.4571C2.83609 17.6157 2.89799 17.7696 2.97398 17.9166C3.04612 17.7054 3.14624 17.5048 3.27167 17.3202C3.51991 16.9463 3.94988 16.4539 4.81348 15.5046C6.14724 14.0388 5.33992 12.7333 5.30387 12.6765C5.33237 12.7211 5.94407 13.6463 7.19354 13.4073C7.41782 13.3662 7.63226 13.2829 7.82547 13.1618C7.70418 13.3548 7.62076 13.5692 7.57967 13.7935C7.34117 15.0429 8.26616 15.6546 8.3105 15.6831C8.25373 15.6471 6.94823 14.8398 5.48243 16.1735C4.52699 17.0427 4.03442 17.4727 3.6595 17.7202C3.47689 17.8432 3.27882 17.9415 3.07045 18.0125C3.2155 18.0877 3.36729 18.149 3.52381 18.1957C3.88752 18.3085 4.43442 18.4077 5.03224 18.2688C6.02227 18.0408 6.67076 17.5219 6.75334 17.4535C6.66272 17.5314 5.93262 18.206 6.12581 19.5039C6.2386 20.2623 6.51193 20.7302 6.73483 20.9982H10.6594C10.9186 20.7285 11.1727 20.2555 11.0202 19.4861Z" fill="#6BB0B1"/>
<path d="M7.72675 2.57278C8.21689 2.76937 9.19717 3.32042 9.56697 4.67002C9.97307 6.15189 9.52775 8.18993 9.64006 9.62552C8.20446 9.51419 6.16618 9.95951 4.6843 9.55244C3.33495 9.18288 2.78415 8.20235 2.58731 7.71246C2.31651 7.77784 2.03513 7.78671 1.76074 7.73852C3.21509 11.0389 6.13305 10.495 7.52162 10.4029C8.59716 10.3317 9.80059 10.3707 10.2895 10.3919L10.413 10.3978C10.4116 10.3641 10.4096 10.3227 10.4074 10.274C10.3862 9.78508 10.347 8.5819 10.4184 7.50636C10.5105 6.11779 11.0544 3.19983 7.75378 1.74524C7.80204 2.01999 7.79284 2.30176 7.72675 2.57278Z" fill="#0067BE"/>
<path d="M0.316692 5.98479C0.316692 5.98479 0.265291 6.94534 1.11427 7.48567C1.311 7.61128 1.53024 7.69748 1.75984 7.73951C2.03422 7.7877 2.3156 7.77882 2.5864 7.71344C3.0914 7.59627 3.61248 7.29931 4.09897 6.82524C4.87146 6.07273 4.66634 4.98964 4.34258 4.32995C5.00203 4.65297 6.08537 4.85785 6.83788 4.08634C7.3117 3.59912 7.60866 3.07877 7.72583 2.57377C7.79147 2.30299 7.80034 2.02157 7.7519 1.7472C7.71059 1.51752 7.62512 1.29804 7.50025 1.1009C6.95992 0.251679 5.99937 0.303325 5.99937 0.303325C5.99937 0.303325 6.13652 0.234627 6.23957 0.174699C6.315 0.121635 6.38656 0.0632646 6.4537 3.05176e-05H5.04077C4.5248 0.590053 3.80007 1.77083 4.5248 2.32723C5.37378 2.97913 5.89681 2.30141 5.89681 2.30141C5.47658 2.37011 4.97109 1.564 5.69096 1.221C6.41083 0.878 6.98599 1.59811 6.91754 2.34429C6.84908 3.09046 5.7426 4.28269 4.31895 3.28779C2.8953 2.29288 3.21101 0.508931 3.21101 0.508931C2.43146 0.689202 2.35351 1.34938 2.35351 1.34938C2.35351 1.34938 2.07044 0.74913 1.52158 0.534754C1.19344 0.406615 0.825835 0.401012 0.582956 0.417334C0.529849 0.420744 0.482833 0.425373 0.443368 0.430002C0.438983 0.469467 0.434354 0.51624 0.4307 0.569347C0.414622 0.812956 0.420221 1.18008 0.54836 1.50797C0.762736 2.05683 1.36299 2.3399 1.36299 2.3399C1.36299 2.3399 0.702569 2.41713 0.522541 3.19765C0.522541 3.19765 2.30649 2.88096 3.30115 4.30388C4.29581 5.72681 3.10407 6.83401 2.35789 6.90247C1.61172 6.97092 0.891366 6.39649 1.23437 5.67613C1.57737 4.95578 2.38371 5.46176 2.31502 5.88198C2.31502 5.88198 2.9925 5.35871 2.34084 4.50973C1.78054 3.7789 0.58515 4.52118 0 5.03763V6.45447C0.0830709 6.36165 0.162731 6.26859 0.188066 6.22499C0.247994 6.12218 0.316692 5.98479 0.316692 5.98479Z" fill="#E0D3B4"/>
<path d="M4.58989 9.38068C4.58989 9.38068 4.40524 8.92197 4.8754 7.97043C5.34557 7.01889 6.57117 7.36604 6.48712 8.01525C6.40308 8.66447 5.79892 8.54121 5.79892 8.54121C5.79892 8.54121 6.03937 9.13464 6.66618 8.95948C7.29298 8.78433 7.17556 8.1049 7.17556 8.1049C7.17556 8.1049 7.39481 8.5244 7.82479 8.7093C8.11517 8.83354 8.50933 8.83354 8.73588 8.82038C8.77048 8.81819 8.80141 8.816 8.82724 8.81356C8.82943 8.78774 8.83187 8.7568 8.83381 8.72221C8.84721 8.49565 8.84721 8.10149 8.72273 7.81111C8.53807 7.38016 8.11834 7.16189 8.11834 7.16189C8.11834 7.16189 8.798 7.27955 8.97316 6.65275C9.14831 6.02594 8.55488 5.78526 8.55488 5.78526C8.55488 5.78526 8.6779 6.38965 8.02893 6.47369C7.37995 6.55774 7.03281 5.3319 7.98411 4.86173C8.9354 4.39157 9.39436 4.5772 9.39436 4.5772C9.39436 4.5772 9.21531 3.99521 9.00263 3.81616C9.00263 3.81616 7.58678 3.88925 7.0998 4.77866C6.65717 5.58769 6.71417 6.34117 6.95534 6.9424C6.35411 6.70123 5.60063 6.64422 4.7916 7.08686C3.9017 7.57408 3.82886 8.98969 3.82886 8.98969C4.00791 9.20163 4.58989 9.38068 4.58989 9.38068Z" fill="#6BB0B1"/>
<path d="M19.5193 6.11186C18.2202 5.91843 17.5461 6.65024 17.4684 6.73964C17.5366 6.65779 18.056 6.00881 18.2842 5.0183C18.4267 4.39977 18.3156 3.8363 18.1982 3.47333C18.1537 3.32967 18.0966 3.1902 18.0277 3.05651C17.9649 3.24042 17.8807 3.4163 17.7768 3.58051C17.5363 3.9642 17.1086 4.45751 16.188 5.46873C14.8544 6.93453 15.6618 8.24003 15.6978 8.29655C15.6691 8.25221 15.0574 7.32698 13.8081 7.56572C13.584 7.60683 13.3696 7.69007 13.1765 7.81104C13.2976 7.61784 13.381 7.40341 13.4223 7.17911C13.6608 5.92988 12.7355 5.31818 12.6914 5.28943C12.748 5.32549 14.0537 6.13281 15.5195 4.79929C16.5249 3.88454 17.0177 3.45627 17.4002 3.21583C17.5665 3.10981 17.7448 3.02402 17.9315 2.96028C17.796 2.89013 17.6546 2.83217 17.5088 2.78708C17.1458 2.67039 16.5848 2.56125 15.9697 2.70303C14.9787 2.93129 14.3302 3.45091 14.2483 3.51888C14.3377 3.4419 15.0695 2.76734 14.8761 1.46818C14.767 0.73491 14.5078 0.273027 14.2885 0.000671387H10.3145C10.0653 0.275707 9.83267 0.74368 9.98006 1.48669C10.2566 2.88233 12.4115 2.97466 12.6171 1.47378C12.6171 1.47378 11.974 2.11057 11.4529 1.50593C10.9318 0.901295 11.5504 0.110052 12.3857 0.135874C13.221 0.161697 14.206 1.12006 13.6013 2.66381C12.9967 4.20756 10.1835 3.75372 10.1835 3.75372C10.1835 3.75372 10.4105 4.17906 10.507 4.84509C10.507 4.84509 11.6909 5.22366 12.0963 6.56814C12.5017 7.91262 11.8839 8.65855 11.8839 8.65855C12.1503 8.60608 12.4042 8.50295 12.6317 8.35477C12.4836 8.58233 12.3804 8.83622 12.328 9.10266C12.328 9.10266 13.0741 8.4851 14.4184 8.89023C15.7626 9.29535 16.1417 10.4798 16.1417 10.4798C16.8075 10.5772 17.2328 10.803 17.2328 10.803C17.2328 10.803 16.7792 7.98985 18.3227 7.38521C19.8662 6.78057 20.8258 7.76475 20.8502 8.60082C20.8745 9.43689 20.0847 10.0547 19.4801 9.5336C18.8755 9.01252 19.5123 8.36939 19.5123 8.36939C18.0114 8.57524 18.1037 10.73 19.4993 11.0065C20.256 11.1565 20.7266 10.9134 20.9995 10.6593V6.71041C20.7298 6.48872 20.2655 6.2227 19.5193 6.11186Z" fill="#6BB0B1"/>
<path d="M41.0525 18.5555C41.0313 18.2724 41.1429 18.1 41.177 17.9221C41.1875 17.8681 41.196 17.8042 41.2033 17.7355C41.2387 17.3986 41.2389 16.9443 41.2389 16.9443C41.2389 16.9443 40.7548 16.8001 40.4718 17.3828C40.1887 17.9655 40.3012 18.232 40.091 18.165C39.9107 18.108 39.6344 17.6581 39.2118 17.4571C39.3238 17.0934 39.421 16.5494 39.2849 15.9547C39.0568 14.9647 38.5379 14.3162 38.4692 14.2336C38.5474 14.3243 39.222 15.0546 40.52 14.8612C41.2657 14.7503 41.7305 14.4841 42.0009 14.2624V20.4579C41.8552 20.1267 41.6778 19.8105 41.4711 19.5136C41.1721 19.0824 41.0698 18.7831 41.0525 18.5555Z" fill="white"/>
<path d="M35.2473 17.4551C35.3299 17.5236 35.9781 18.0425 36.9684 18.2708C37.5665 18.4084 38.1134 18.3092 38.4768 18.1977C38.6786 18.6186 39.1263 18.8939 39.1833 19.0747C39.2501 19.2856 38.9826 19.1721 38.4008 19.4554C37.8191 19.7388 37.9623 20.2223 37.9623 20.2223C37.9623 20.2223 38.4167 20.2223 38.7536 20.187C38.8223 20.1797 38.8864 20.1712 38.9404 20.1607C39.1173 20.1263 39.2895 20.0145 39.5738 20.036C39.8016 20.053 40.1008 20.1558 40.5319 20.454C40.8415 20.6696 41.1722 20.8532 41.5188 21.0021H35.2644C35.4885 20.7342 35.7618 20.2659 35.8746 19.5076C36.0678 18.2077 35.3377 17.5331 35.2473 17.4551Z" fill="white"/>
<path d="M39.4132 7.71344C38.9082 7.59626 38.3871 7.2993 37.9006 6.82524C37.1282 6.07273 37.333 4.98964 37.657 4.32994C36.9976 4.65297 35.9143 4.85784 35.1617 4.08633C34.6879 3.59911 34.391 3.07876 34.2738 2.57376C33.7836 2.77035 32.8034 3.3214 32.4336 4.671C32.0275 6.15287 32.4728 8.19091 32.3605 9.6265C33.7961 9.51517 35.8343 9.96049 37.3162 9.55342C38.6661 9.18386 39.2183 8.20334 39.4132 7.71344ZM38.1708 8.98898C37.9918 9.20165 37.4098 9.3807 37.4098 9.3807C37.4098 9.3807 37.5944 8.92198 37.1243 7.97044C36.6541 7.01891 35.4285 7.36605 35.5125 8.01527C35.5966 8.66449 36.2007 8.54122 36.2007 8.54122C36.2007 8.54122 35.9603 9.13466 35.3335 8.9595C34.7067 8.78434 34.8241 8.10492 34.8241 8.10492C34.8241 8.10492 34.6049 8.52441 34.1749 8.70931C33.8845 8.83355 33.4903 8.83355 33.2638 8.8204C33.2292 8.81821 33.1983 8.81601 33.1724 8.81358C33.1702 8.78776 33.1678 8.75682 33.1659 8.72222C33.1525 8.49567 33.1525 8.10151 33.2769 7.81112C33.4616 7.38018 33.8813 7.1619 33.8813 7.1619C33.8813 7.1619 33.2017 7.27957 33.0265 6.65276C32.8514 6.02595 33.4448 5.78527 33.4448 5.78527C33.4448 5.78527 33.3218 6.38966 33.9707 6.47371C34.6197 6.55775 34.9671 5.33191 34.0156 4.86174C33.064 4.39158 32.6058 4.57721 32.6058 4.57721C32.6058 4.57721 32.7848 3.99522 32.9975 3.81617C32.9975 3.81617 34.4134 3.88925 34.9003 4.77867C35.343 5.5877 35.286 6.34118 35.0448 6.94241C35.646 6.70124 36.3995 6.64423 37.2085 7.08687C38.0977 7.57361 38.1708 8.98898 38.1708 8.98898Z" fill="white"/>
<path d="M38.1443 17.1263L38.1504 17.1399C38.2294 17.328 38.2931 17.5222 38.3409 17.7205C37.966 17.4729 37.4734 17.043 36.518 16.1738C35.0522 14.84 33.7467 15.6473 33.6899 15.6834C33.7345 15.6549 34.6595 15.0432 34.4208 13.7937C34.3797 13.5695 34.2965 13.3552 34.1755 13.162C34.3687 13.2831 34.5831 13.3664 34.8074 13.4076C36.0568 13.6463 36.6686 12.7211 36.6971 12.6768C36.661 12.7335 35.8537 14.039 37.1874 15.5048C38.051 16.4549 38.481 16.9465 38.7292 17.3204C38.5343 17.273 38.3433 17.2101 38.1582 17.1326L38.1443 17.1263Z" fill="white"/>
<path d="M27.753 3.51824C27.6711 3.45027 27.0222 2.93066 26.0317 2.70239C25.4163 2.56061 24.8555 2.66975 24.4925 2.78644C24.3159 2.31554 23.8092 2.01468 23.7483 1.82247C23.6813 1.61151 23.9491 1.72503 24.5306 1.44147C25.112 1.15791 24.969 0.674586 24.969 0.674586C24.969 0.674586 24.5147 0.674586 24.1778 0.710153C24.1091 0.717218 24.0453 0.725987 23.9912 0.736463C23.8141 0.770568 23.6419 0.882629 23.3578 0.860948C23.13 0.843895 22.8309 0.741335 22.3997 0.443157C22.1597 0.276394 21.9072 0.128253 21.6445 3.05176e-05H27.7135C27.4943 0.272386 27.2351 0.73427 27.126 1.46754C26.9318 2.76671 27.6636 3.44126 27.753 3.51824Z" fill="white"/>
<path d="M23.3406 16.4632C23.9923 15.6142 23.3148 15.0911 23.3148 15.0911C23.3835 15.5114 22.5771 16.0169 22.2341 15.297C21.8911 14.5771 22.6115 14.002 23.3577 14.0704C24.1038 14.1389 25.2958 15.2453 24.3012 16.669C23.3065 18.0927 21.5223 17.7755 21.5223 17.7755C21.7026 18.555 22.3628 18.633 22.3628 18.633C22.3628 18.633 21.7625 18.9161 21.5481 19.4649C21.42 19.793 21.4144 20.1607 21.4307 20.4035C21.4341 20.4566 21.4387 20.5037 21.4434 20.5431C21.4826 20.5475 21.5296 20.5521 21.5827 20.5558C21.8263 20.5719 22.1932 20.5663 22.5214 20.4384C23.0702 20.2237 23.3533 19.6235 23.3533 19.6235C23.3533 19.6235 23.4305 20.2839 24.2108 20.4639C24.2108 20.4639 23.8941 18.6802 25.3173 17.6853C26.7404 16.6904 27.8472 17.8824 27.9159 18.6286C27.9846 19.3748 27.4099 20.0951 26.6895 19.7521C25.9692 19.4091 26.4751 18.603 26.8954 18.6715C26.8954 18.6715 26.3721 17.994 25.5231 18.6471C24.7872 19.212 25.546 20.4211 26.063 21.0014H21V15.9367C21.5852 16.4519 22.7798 17.1937 23.3406 16.4632Z" fill="white"/>
<path d="M39.6592 4.50973C39.0075 5.35871 39.685 5.88199 39.685 5.88199C39.6163 5.46176 40.4227 4.95627 40.7657 5.67613C41.1087 6.396 40.3883 6.97116 39.6421 6.90247C38.896 6.83377 37.704 5.72754 38.6986 4.30388C39.6933 2.88023 41.4775 3.19765 41.4775 3.19765C41.2975 2.4181 40.637 2.3399 40.637 2.3399C40.637 2.3399 41.2373 2.05683 41.4517 1.50797C41.5798 1.18008 41.5854 0.812226 41.5693 0.569347C41.5657 0.51624 41.561 0.469467 41.5564 0.430002C41.5172 0.425374 41.4702 0.420744 41.4171 0.417334C41.1735 0.401012 40.8063 0.406615 40.4784 0.534754C39.9296 0.74913 39.6465 1.34938 39.6465 1.34938C39.6465 1.34938 39.5693 0.689202 38.789 0.508931C38.789 0.508931 39.1057 2.29288 37.6825 3.28779C36.2594 4.28269 35.1526 3.09046 35.0839 2.34429C35.0153 1.59811 35.5899 0.877757 36.3103 1.221C37.0306 1.56425 36.5247 2.37011 36.1044 2.30141C36.1044 2.30141 36.6277 2.97913 37.4767 2.32723C38.2014 1.77083 37.4767 0.590053 36.9607 3.05176e-05H42V5.03763C41.4149 4.52118 40.22 3.77939 39.6592 4.50973Z" fill="white"/>
<path d="M24.7871 3.76893L24.781 3.75529C24.7075 3.58005 24.6473 3.39951 24.601 3.21521C24.9837 3.45638 25.4765 3.88465 26.4819 4.79867C27.9477 6.13219 29.2534 5.32487 29.31 5.28881C29.2656 5.31756 28.3404 5.92926 28.5791 7.17849C28.6204 7.40278 28.7038 7.61721 28.8249 7.81041C28.6317 7.68924 28.4173 7.60583 28.193 7.56461C26.9435 7.32611 26.3318 8.25134 26.3033 8.29544C26.3394 8.23867 27.1467 6.93317 25.8132 5.46738C24.8926 4.45567 24.4648 3.96285 24.2244 3.57916C24.4119 3.62574 24.5956 3.68675 24.7737 3.76163L24.7871 3.76893Z" fill="white"/>
<path d="M22.5004 11.0065C23.896 10.73 23.9884 8.57526 22.4875 8.36941C22.4875 8.36941 23.1243 9.01254 22.5196 9.53362C21.915 10.0547 21.1238 9.43618 21.1496 8.60084C21.1754 7.7655 22.1338 6.78058 23.6775 7.38522C25.2213 7.98986 24.7674 10.8031 24.7674 10.8031C24.7674 10.8031 25.1928 10.576 25.8585 10.4798C25.8585 10.4798 26.2374 9.29561 27.5818 8.89025C28.9263 8.48488 29.6722 9.10267 29.6722 9.10267C29.6198 8.83624 29.5166 8.58235 29.3685 8.35479C29.596 8.50297 29.8499 8.6061 30.1164 8.65857C30.1164 8.65857 29.4988 7.91239 29.9039 6.56815C30.309 5.22391 31.4932 4.8451 31.4932 4.8451C31.5907 4.17907 31.8167 3.75373 31.8167 3.75373C31.8167 3.75373 29.0035 4.20757 28.3989 2.66382C27.7943 1.12006 28.7782 0.161697 29.6145 0.135875C30.4508 0.110052 31.0681 0.901297 30.5473 1.50594C30.0265 2.11058 29.3828 1.47378 29.3828 1.47378C29.5887 2.97466 31.7437 2.88258 32.0202 1.48669C32.1675 0.742951 31.9349 0.274976 31.6857 0.000671387H35.5474C35.6145 0.0639056 35.6861 0.122276 35.7615 0.175339C35.8646 0.235267 36.0017 0.303965 36.0017 0.303965C36.0017 0.303965 35.0412 0.25232 34.5008 1.10154C34.3754 1.29824 34.2893 1.51739 34.2472 1.74687C30.9466 3.20146 31.4906 6.11942 31.5826 7.508C31.654 8.58354 31.6148 9.78673 31.5936 10.2757C31.5914 10.3244 31.5895 10.3658 31.588 10.3994L31.7115 10.3936C32.2004 10.3724 33.4039 10.3334 34.4794 10.4045C35.868 10.4966 38.7859 11.0406 40.2403 7.74016C40.4699 7.69814 40.6891 7.61193 40.8858 7.48632C41.7348 6.94599 41.6834 5.98544 41.6834 5.98544C41.6834 5.98544 41.7519 6.12283 41.812 6.22564C41.8364 6.26924 41.917 6.3623 42.0001 6.45512V10.3137C41.7273 10.0596 41.2564 9.81645 40.4999 9.96627C39.1041 10.243 39.0117 12.3977 40.5126 12.6036C40.5126 12.6036 39.8758 11.9602 40.4805 11.4394C41.0851 10.9185 41.8763 11.5368 41.8505 12.3719C41.8247 13.207 40.8666 14.1924 39.3228 13.5878C37.7791 12.9831 38.2329 10.1697 38.2329 10.1697C38.2329 10.1697 37.8073 10.397 37.1416 10.4932C37.1416 10.4932 36.7627 11.6774 35.4185 12.0825C34.0743 12.4876 33.3278 11.8703 33.3278 11.8703C33.3803 12.1368 33.4834 12.3906 33.6316 12.6182C33.4043 12.4701 33.1507 12.3669 32.8845 12.3142C32.8845 12.3142 33.5018 13.0604 33.0967 14.4048C32.6915 15.7493 31.5074 16.1279 31.5074 16.1279C31.4099 16.7939 31.1838 17.2193 31.1838 17.2193C31.1838 17.2193 33.997 16.7654 34.6017 18.3092C35.2063 19.8529 34.2224 20.8113 33.3861 20.8371C32.5498 20.8629 31.9325 20.0717 32.4535 19.4668C32.9746 18.8619 33.6177 19.4992 33.6177 19.4992C33.4119 17.9983 31.2569 18.0904 30.9804 19.4863C30.8279 20.2554 31.082 20.7287 31.3405 21.0001H27.4829C27.3855 20.9122 27.2846 20.8252 27.2393 20.7984C27.1363 20.7385 26.9991 20.6698 26.9991 20.6698C26.9991 20.6698 27.9597 20.7212 28.5 19.8722C28.6254 19.6754 28.7116 19.4562 28.7536 19.2266C32.0543 17.7723 31.5103 14.8543 31.4182 13.4657C31.3468 12.3902 31.386 11.1868 31.4072 10.6978C31.4094 10.6491 31.4114 10.6079 31.4131 10.5743L31.2893 10.5799C30.8004 10.6014 29.5972 10.6403 28.5217 10.569C27.1331 10.4769 24.2149 9.93314 22.7606 13.2336C22.531 13.2756 22.3118 13.3617 22.115 13.4872C21.266 14.0275 21.3174 14.988 21.3174 14.988C21.3174 14.988 21.249 14.8509 21.1888 14.7478C21.1644 14.7042 21.0838 14.6114 21.001 14.5186V10.6593C21.2731 10.9134 21.7437 11.1565 22.5004 11.0065Z" fill="white"/>
<path d="M21.879 2.33965C21.9004 2.62273 21.7888 2.79496 21.7545 2.97304C21.744 3.02712 21.7355 3.09119 21.7282 3.15989C21.6928 3.49655 21.6928 3.95113 21.6928 3.95113C21.6928 3.95113 22.1767 4.0951 22.4597 3.51263C22.7428 2.93016 22.6303 2.66341 22.8405 2.73016C23.0325 2.79106 23.3323 3.29582 23.8018 3.47341C23.6844 3.83639 23.5733 4.39913 23.7158 5.01838C23.9441 6.00938 24.4634 6.65787 24.5316 6.73972C24.4547 6.65032 23.7799 5.91852 22.4807 6.11194C21.735 6.22303 21.2702 6.48905 21 6.71074V0.587372C21.1321 0.864097 21.2863 1.12969 21.4612 1.38154C21.7593 1.81273 21.8621 2.11188 21.879 2.33965Z" fill="white"/>
<path d="M23.5862 13.2597C24.0912 13.3769 24.6123 13.6738 25.0988 14.1476C25.8712 14.9001 25.6661 15.9835 25.3424 16.6429C26.0018 16.3202 27.0852 16.115 27.8377 16.8865C28.3115 17.3738 28.6085 17.8941 28.7256 18.3989C29.2158 18.2023 30.1961 17.6512 30.5659 16.3019C30.972 14.82 30.5267 12.782 30.639 11.3461C29.2034 11.4574 27.1651 11.0124 25.6832 11.4192C24.3336 11.7892 23.7828 12.7695 23.5862 13.2597ZM24.8286 11.9839C25.0077 11.7712 25.5899 11.5922 25.5899 11.5922C25.5899 11.5922 25.405 12.0511 25.8751 13.0024C26.3453 13.9537 27.5709 13.6068 27.4869 12.9578C27.4028 12.3089 26.7987 12.4316 26.7987 12.4316C26.7987 12.4316 27.0391 11.8385 27.6659 12.0136C28.2927 12.1888 28.1753 12.8682 28.1753 12.8682C28.1753 12.8682 28.3946 12.4485 28.8245 12.2638C29.1149 12.1393 29.5091 12.1396 29.7357 12.1527C29.7702 12.1547 29.8012 12.1571 29.827 12.1593C29.8292 12.1851 29.8316 12.2161 29.8336 12.2509C29.847 12.4772 29.847 12.8716 29.7225 13.1617C29.5378 13.5927 29.1181 13.811 29.1181 13.811C29.1181 13.811 29.7978 13.6935 29.9729 14.3204C30.1481 14.9472 29.5546 15.1879 29.5546 15.1879C29.5546 15.1879 29.6779 14.5835 29.0287 14.4994C28.3795 14.4154 28.0326 15.641 28.9839 16.1111C29.9352 16.5813 30.3941 16.3966 30.3941 16.3966C30.3941 16.3966 30.2151 16.9786 30.0024 17.1577C30.0024 17.1577 28.5865 17.0846 28.0996 16.1952C27.6569 15.3862 27.7139 14.6327 27.9551 14.0312C27.3539 14.2724 26.6004 14.3294 25.7913 13.8867C24.9014 13.3998 24.8286 11.9829 24.8286 11.9829V11.9839Z" fill="white"/>
<path d="M23.3579 0.860947C23.641 0.882141 23.8132 0.770568 23.9913 0.736463C24.0454 0.725987 24.1092 0.717218 24.1779 0.710153C24.5148 0.67483 24.9691 0.674585 24.9691 0.674585C24.9691 0.674585 25.1133 1.15839 24.5306 1.44147C23.9479 1.72454 23.6814 1.612 23.7484 1.82247C23.8093 2.01468 24.316 2.31554 24.4926 2.78644C24.3469 2.8316 24.2055 2.88956 24.07 2.95964C24.2565 3.02333 24.4348 3.10913 24.601 3.21519C24.6474 3.39949 24.7076 3.58003 24.7811 3.75527L24.7872 3.76891L24.7735 3.76282C24.5954 3.68795 24.4117 3.62694 24.2242 3.58036C24.1202 3.41615 24.036 3.24027 23.9733 3.05636C23.9043 3.19005 23.8473 3.32952 23.8027 3.47317C23.3333 3.29558 23.0334 2.79107 22.8414 2.72992C22.6305 2.66317 22.744 2.93065 22.4607 3.51239C22.1774 4.09413 21.6938 3.95089 21.6938 3.95089C21.6938 3.95089 21.6938 3.49632 21.7291 3.15965C21.7364 3.09095 21.745 3.02688 21.7554 2.9728C21.7898 2.79594 21.9016 2.62371 21.8799 2.33941C21.8631 2.11164 21.7603 1.81249 21.4621 1.3813C21.2873 1.12944 21.133 0.863855 21.001 0.58713V3.05176e-05H21.6446C21.9073 0.128253 22.1597 0.276394 22.3998 0.443156C22.831 0.741334 23.1301 0.843895 23.3579 0.860947Z" fill="#EF9700"/>
<path d="M39.5738 20.034C39.2907 20.0128 39.1185 20.1244 38.9404 20.1587C38.8863 20.1692 38.8222 20.1777 38.7535 20.185C38.4166 20.2203 37.9623 20.2203 37.9623 20.2203C37.9623 20.2203 37.8183 19.7365 38.4008 19.4535C38.9833 19.1704 39.25 19.2829 39.1833 19.0727C39.126 18.8927 38.6783 18.6174 38.4768 18.1957C38.6333 18.149 38.7851 18.0876 38.9302 18.0125C38.7218 17.9414 38.5237 17.8431 38.3411 17.7202C38.2932 17.5219 38.2295 17.3278 38.1506 17.1397L38.1445 17.126L38.1582 17.1321C38.3433 17.2096 38.5342 17.2724 38.7292 17.3199C38.8546 17.5045 38.9547 17.7051 39.0269 17.9163C39.1029 17.7693 39.1648 17.6155 39.2118 17.4568C39.6344 17.6578 39.9107 18.1078 40.091 18.1648C40.3019 18.2318 40.1884 17.964 40.4717 17.3825C40.7551 16.801 41.2389 16.944 41.2389 16.944C41.2389 16.944 41.2389 17.3984 41.2033 17.7353C41.196 17.804 41.1875 17.8678 41.177 17.9219C41.1429 18.0988 41.0308 18.2712 41.0525 18.5553C41.0693 18.7828 41.1721 19.0822 41.4703 19.5134C41.677 19.8103 41.8545 20.1265 42.0002 20.4576V20.9999H41.5188C41.1722 20.851 40.8415 20.6673 40.5319 20.4518C40.1007 20.1538 39.8016 20.051 39.5738 20.034Z" fill="#EF9700"/>
<path d="M28.7268 18.4001C29.2169 18.2035 30.1972 17.6525 30.567 16.3031C30.9731 14.8212 30.5278 12.7832 30.6401 11.3474C29.2045 11.4587 27.1662 11.0136 25.6843 11.4204C24.335 11.7902 23.7842 12.7705 23.5873 13.2607C23.3165 13.1952 23.0351 13.1863 22.7607 13.2346C24.2151 9.93418 27.1331 10.4779 28.5219 10.57C29.5974 10.6414 30.8006 10.6024 31.2896 10.581L31.4133 10.5754C31.4116 10.609 31.4097 10.6504 31.4075 10.6989C31.3863 11.1878 31.347 12.3912 31.4184 13.4668C31.5105 14.8553 32.0545 17.7733 28.7538 19.2276C28.8021 18.9529 28.7929 18.6711 28.7268 18.4001Z" fill="#0067BE"/>
<path d="M21.3164 14.9881C21.3164 14.9881 21.265 14.0276 22.114 13.4872C22.3108 13.3618 22.53 13.2757 22.7596 13.2336C23.034 13.1853 23.3154 13.1942 23.5862 13.2597C24.0912 13.3769 24.6122 13.6738 25.0987 14.1477C25.8712 14.9002 25.6661 15.9835 25.3423 16.6429C26.0018 16.3202 27.0851 16.115 27.8376 16.8866C28.3114 17.3738 28.6084 17.8941 28.7256 18.3989C28.7912 18.6697 28.8001 18.9511 28.7516 19.2255C28.7096 19.455 28.6235 19.6742 28.498 19.871C27.9577 20.72 26.9972 20.6686 26.9972 20.6686C26.9972 20.6686 27.1343 20.7373 27.2374 20.7972C27.2834 20.824 27.3835 20.911 27.481 20.9989H26.0632C25.5462 20.4187 24.7874 19.2096 25.5233 18.6447C26.3723 17.9928 26.8956 18.669 26.8956 18.669C26.4754 18.6006 25.9699 19.4067 26.6897 19.7497C27.4096 20.0927 27.9848 19.3723 27.9161 18.6262C27.8474 17.88 26.7411 16.688 25.3175 17.6829C23.8938 18.6778 24.2117 20.464 24.2117 20.464C23.4322 20.2839 23.3542 19.6235 23.3542 19.6235C23.3542 19.6235 23.0712 20.2238 22.5223 20.4384C22.1942 20.5663 21.8266 20.5719 21.5837 20.5558C21.5306 20.5522 21.4836 20.5475 21.4443 20.5431C21.4397 20.5037 21.4351 20.4567 21.4317 20.4036C21.4154 20.1599 21.421 19.7931 21.5491 19.4649C21.7635 18.9161 22.3637 18.633 22.3637 18.633C22.3637 18.633 21.7035 18.5558 21.5233 17.7755C21.5233 17.7755 23.3072 18.0922 24.3021 16.669C25.297 15.2458 24.1048 14.1391 23.3586 14.0704C22.6125 14.0017 21.8921 14.5764 22.2351 15.297C22.5781 16.0176 23.3844 15.5114 23.3157 15.0912C23.3157 15.0912 23.9932 15.6142 23.3416 16.4632C22.7813 17.194 21.5861 16.452 21.001 15.9355V14.5187C21.0838 14.6115 21.1635 14.7043 21.1888 14.7479C21.248 14.851 21.3164 14.9881 21.3164 14.9881Z" fill="#E0D3B4"/>
<path d="M25.5899 11.5932C25.5899 11.5932 25.405 12.0522 25.8752 13.0035C26.3453 13.9547 27.5709 13.6078 27.4869 12.9589C27.4028 12.3099 26.7987 12.4327 26.7987 12.4327C26.7987 12.4327 27.0391 11.8395 27.6659 12.0146C28.2927 12.1898 28.1753 12.8692 28.1753 12.8692C28.1753 12.8692 28.3946 12.4495 28.8245 12.2648C29.1149 12.1403 29.5091 12.1406 29.7356 12.1537C29.7702 12.1557 29.8012 12.1581 29.827 12.1603C29.8292 12.1861 29.8316 12.2171 29.8336 12.2519C29.847 12.4782 29.847 12.8726 29.7225 13.1628C29.5378 13.5937 29.1181 13.812 29.1181 13.812C29.1181 13.812 29.7978 13.6946 29.9729 14.3214C30.1481 14.9482 29.5546 15.1889 29.5546 15.1889C29.5546 15.1889 29.6779 14.5845 29.0287 14.5004C28.3795 14.4164 28.0326 15.642 28.9839 16.1121C29.9352 16.5823 30.3941 16.3977 30.3941 16.3977C30.3941 16.3977 30.2151 16.9796 30.0024 17.1587C30.0024 17.1587 28.5865 17.0856 28.0996 16.1962C27.6569 15.3872 27.7139 14.6337 27.9551 14.0322C27.3539 14.2734 26.6004 14.3304 25.7914 13.8878C24.9015 13.4005 24.8286 11.9849 24.8286 11.9849C25.0077 11.7713 25.5899 11.5932 25.5899 11.5932Z" fill="#6BB0B1"/>
<path d="M30.9798 19.4861C31.2563 18.0903 33.4113 17.9982 33.6171 19.499C33.6171 19.499 32.9738 18.8622 32.4529 19.4666C31.9321 20.071 32.5504 20.8625 33.3855 20.8369C34.2206 20.8114 35.2057 19.8528 34.6011 18.309C33.9964 16.7653 31.1832 17.2191 31.1832 17.2191C31.1832 17.2191 31.4103 16.7938 31.5067 16.1277C31.5067 16.1277 32.6907 15.7489 33.0961 14.4047C33.5014 13.0604 32.8844 12.3143 32.8844 12.3143C33.1507 12.3669 33.4045 12.4701 33.632 12.6183C33.4838 12.3907 33.3807 12.1368 33.3282 11.8704C33.3282 11.8704 34.0744 12.488 35.4189 12.0826C36.7634 11.6772 37.1419 10.4933 37.1419 10.4933C37.808 10.3958 38.2333 10.1698 38.2333 10.1698C38.2333 10.1698 37.7795 12.9832 39.3232 13.5879C40.867 14.1925 41.8248 13.2083 41.8504 12.3727C41.876 11.5372 41.085 10.9191 40.4804 11.4402C39.8757 11.9613 40.5125 12.6044 40.5125 12.6044C39.0116 12.3986 39.104 10.2438 40.4998 9.96709C41.2563 9.81727 41.7272 10.0604 42 10.3145V14.2624C41.7296 14.4841 41.2648 14.7496 40.5191 14.8612C39.2211 15.0546 38.5459 14.3253 38.4684 14.2337C38.5371 14.3162 39.056 14.9645 39.284 15.9548C39.4209 16.5494 39.3237 17.0934 39.2109 17.4571C39.1639 17.6157 39.102 17.7696 39.026 17.9166C38.9539 17.7054 38.8537 17.5048 38.7283 17.3202C38.4801 16.9463 38.0501 16.4539 37.1865 15.5046C35.8528 14.0388 36.6601 12.7333 36.6961 12.6765C36.6676 12.7211 36.0559 13.6463 34.8064 13.4073C34.5825 13.3661 34.3684 13.2829 34.1755 13.162C34.2967 13.3551 34.3801 13.5695 34.4213 13.7937C34.6598 15.0432 33.7348 15.6549 33.6905 15.6834C33.747 15.6473 35.0527 14.84 36.5185 16.1738C37.474 17.043 37.9666 17.4729 38.3415 17.7205C38.5241 17.8434 38.7221 17.9417 38.9305 18.0128C38.7855 18.0879 38.6337 18.1493 38.4772 18.196C38.1135 18.3088 37.5668 18.4079 36.9687 18.2691C35.9787 18.041 35.3302 17.5222 35.2476 17.4537C35.3382 17.5317 36.0683 18.2062 35.8752 19.5042C35.7624 20.2625 35.489 20.7305 35.2649 20.9985H31.3399C31.0817 20.7285 30.8273 20.2555 30.9798 19.4861Z" fill="#6BB0B1"/>
<path d="M34.273 2.57278C33.7828 2.76937 32.8025 3.32042 32.4327 4.67002C32.0266 6.15189 32.472 8.18993 32.3597 9.62552C33.7953 9.51419 35.8335 9.95951 37.3154 9.55244C38.6648 9.18288 39.2156 8.20235 39.4124 7.71246C39.6832 7.77784 39.9646 7.78671 40.239 7.73852C38.7846 11.0389 35.8667 10.495 34.4781 10.4029C33.4026 10.3317 32.1991 10.3707 31.7102 10.3919L31.5867 10.3978C31.5882 10.3641 31.5901 10.3227 31.5923 10.274C31.6135 9.78508 31.6527 8.5819 31.5813 7.50636C31.4892 6.11779 30.9453 3.19983 34.2459 1.74524C34.1977 2.01999 34.2069 2.30176 34.273 2.57278Z" fill="#0067BE"/>
<path d="M41.6833 5.98458C41.6833 5.98458 41.7347 6.94513 40.8857 7.48546C40.689 7.61106 40.4697 7.69727 40.2401 7.7393C39.9657 7.78749 39.6844 7.77861 39.4136 7.71323C38.9085 7.59605 38.3875 7.2991 37.901 6.82503C37.1285 6.07252 37.3334 4.98943 37.6574 4.32974C36.9979 4.65276 35.9146 4.85764 35.1621 4.08613C34.6882 3.59891 34.3913 3.07856 34.2741 2.57355C34.2085 2.30278 34.1996 2.02136 34.248 1.74699C34.2901 1.51751 34.3762 1.29836 34.5016 1.10167C35.042 0.252442 36.0025 0.304088 36.0025 0.304088C36.0025 0.304088 35.8654 0.23539 35.7623 0.175462C35.6869 0.122398 35.6153 0.0640275 35.5482 0.000793457H36.9611C37.4771 0.590816 38.2018 1.77159 37.4771 2.328C36.6281 2.9799 36.1048 2.30217 36.1048 2.30217C36.5251 2.37087 37.0306 1.56477 36.3107 1.22176C35.5908 0.878762 35.0157 1.59887 35.0843 2.34505C35.153 3.09123 36.2593 4.28345 37.6829 3.28855C39.1066 2.29365 38.7889 0.50872 38.7889 0.50872C39.5685 0.688991 39.6464 1.34917 39.6464 1.34917C39.6464 1.34917 39.9295 0.748919 40.4784 0.534542C40.8063 0.406404 41.1741 0.4008 41.417 0.417122C41.4701 0.420533 41.5171 0.425162 41.5564 0.42979C41.561 0.469255 41.5656 0.516028 41.5693 0.569135C41.5853 0.812745 41.5797 1.17986 41.4516 1.50776C41.2372 2.05662 40.637 2.33969 40.637 2.33969C40.637 2.33969 41.2974 2.41691 41.4774 3.19744C41.4774 3.19744 39.6935 2.88075 38.6986 4.30367C37.7036 5.72659 38.8959 6.8338 39.6421 6.90225C40.3882 6.97071 41.1086 6.39628 40.7656 5.67592C40.4226 4.95557 39.6162 5.46155 39.6849 5.88177C39.6849 5.88177 39.0075 5.3585 39.6591 4.50952C40.2194 3.77869 41.4148 4.52097 42 5.03742V6.45426C41.9169 6.36144 41.8372 6.26838 41.8119 6.22478C41.7517 6.12197 41.6833 5.98458 41.6833 5.98458Z" fill="#E0D3B4"/>
<path d="M37.4102 9.38068C37.4102 9.38068 37.5948 8.92197 37.1247 7.97043C36.6545 7.01889 35.4289 7.36604 35.5129 8.01525C35.597 8.66447 36.2011 8.54121 36.2011 8.54121C36.2011 8.54121 35.9607 9.13464 35.3339 8.95948C34.7071 8.78433 34.8245 8.1049 34.8245 8.1049C34.8245 8.1049 34.6053 8.5244 34.1753 8.7093C33.8849 8.83354 33.4907 8.83354 33.2642 8.82038C33.2296 8.81819 33.1987 8.816 33.1728 8.81356C33.1706 8.78774 33.1682 8.7568 33.1663 8.72221C33.1529 8.49565 33.1529 8.10149 33.2773 7.81111C33.462 7.38016 33.8817 7.16189 33.8817 7.16189C33.8817 7.16189 33.2021 7.27955 33.0269 6.65275C32.8518 6.02594 33.4447 5.78526 33.4447 5.78526C33.4447 5.78526 33.3217 6.38965 33.9707 6.47369C34.6196 6.55774 34.967 5.3319 34.0155 4.86173C33.0639 4.39157 32.6057 4.5772 32.6057 4.5772C32.6057 4.5772 32.7848 3.99521 32.9974 3.81616C32.9974 3.81616 34.4133 3.88925 34.9003 4.77866C35.3429 5.58769 35.2859 6.34117 35.0447 6.9424C35.646 6.70123 36.3994 6.64422 37.2085 7.08686C38.0976 7.57359 38.1707 8.98896 38.1707 8.98896C37.9922 9.20163 37.4102 9.38068 37.4102 9.38068Z" fill="#6BB0B1"/>
<path d="M22.4809 6.1118C23.7801 5.91838 24.4541 6.65018 24.5319 6.73958C24.4636 6.65773 23.9443 6.00875 23.716 5.01824C23.5735 4.39971 23.6846 3.83624 23.802 3.47327C23.8466 3.32961 23.9036 3.19014 23.9725 3.05645C24.0353 3.24036 24.1195 3.41625 24.2234 3.58045C24.4639 3.96414 24.8917 4.45745 25.8123 5.46867C27.1458 6.93447 26.3385 8.23997 26.3024 8.29649C26.3309 8.25215 26.9426 7.32693 28.1921 7.56566C28.4164 7.60689 28.6308 7.6903 28.824 7.81147C28.7029 7.61827 28.6195 7.40383 28.5782 7.17954C28.3397 5.93031 29.265 5.31861 29.3091 5.28986C29.2525 5.32592 27.9468 6.13324 26.481 4.79972C25.4756 3.88497 24.9828 3.4567 24.6001 3.21626C24.4339 3.11019 24.2556 3.0244 24.069 2.96071C24.2045 2.89056 24.3459 2.8326 24.4917 2.7875C24.8546 2.67082 25.4154 2.56168 26.0308 2.70346C27.0216 2.93172 27.6703 3.45134 27.7521 3.51931C27.6627 3.44233 26.9309 2.76777 27.1244 1.4686C27.2335 0.735338 27.4927 0.273454 27.7119 0.00109863H31.6847C31.934 0.276134 32.1666 0.744108 32.0192 1.48712C31.7427 2.88276 29.5877 2.97508 29.3819 1.47421C29.3819 1.47421 30.0253 2.111 30.5464 1.50636C31.0674 0.901723 30.4489 0.110479 29.6136 0.136302C28.7782 0.162124 27.7933 1.12048 28.398 2.66424C29.0026 4.20799 31.8158 3.75415 31.8158 3.75415C31.8158 3.75415 31.5888 4.17949 31.4923 4.84552C31.4923 4.84552 30.3083 5.22409 29.903 6.56857C29.4976 7.91305 30.1154 8.65898 30.1154 8.65898C29.849 8.60657 29.595 8.50344 29.3675 8.3552C29.5157 8.58276 29.6188 8.83665 29.6713 9.10308C29.6713 9.10308 28.9251 8.48553 27.5809 8.89066C26.2366 9.29578 25.8576 10.4802 25.8576 10.4802C25.1918 10.5777 24.7665 10.8035 24.7665 10.8035C24.7665 10.8035 25.2203 7.99027 23.6765 7.38563C22.1328 6.781 21.1742 7.76518 21.1486 8.60125C21.123 9.43731 21.914 10.0551 22.5187 9.53403C23.1233 9.01295 22.4865 8.36982 22.4865 8.36982C23.9874 8.57567 23.8951 10.7304 22.4994 11.0069C21.7428 11.157 21.2721 10.9138 20.999 10.6597V6.71035C21.2704 6.48867 21.7352 6.22264 22.4809 6.1118Z" fill="#6BB0B1"/>
<path d="M0.947394 23.4445C0.968588 23.7276 0.857256 23.9001 0.822907 24.0779C0.812432 24.132 0.803666 24.1958 0.796601 24.2645C0.761278 24.6014 0.761279 25.0558 0.761279 25.0558C0.761279 25.0558 1.24484 25.2 1.52792 24.6173C1.81099 24.0345 1.69844 23.768 1.90892 23.835C2.08919 23.8923 2.36545 24.342 2.78811 24.543C2.67605 24.9067 2.57885 25.4506 2.71503 26.0453C2.94305 27.0353 3.46193 27.6838 3.53063 27.7664C3.45243 27.6758 2.77788 26.9457 1.47993 27.1389C0.734238 27.2497 0.26943 27.516 -0.000976562 27.7377V21.5422C0.144665 21.8733 0.322114 22.1896 0.528874 22.4864C0.82827 22.9178 0.930828 23.217 0.947394 23.4445Z" fill="white"/>
<path d="M6.75293 24.5452C6.67035 24.4765 6.0221 23.9576 5.03182 23.7295C4.43401 23.5917 3.88686 23.6908 3.5234 23.8026C3.32169 23.3819 2.87369 23.1064 2.81693 22.9256C2.75018 22.7144 3.01766 22.8282 3.5994 22.5446C4.18114 22.2611 4.0379 21.7777 4.0379 21.7777C4.0379 21.7777 3.58356 21.7778 3.24665 21.8133C3.17795 21.8204 3.11389 21.8292 3.05981 21.8396C2.88294 21.8737 2.71071 21.9858 2.42642 21.9641C2.19865 21.9471 1.89949 21.8443 1.4683 21.5461C1.15871 21.3304 0.827976 21.1469 0.481201 20.9982H6.73539C6.51151 21.2662 6.23818 21.7341 6.12637 22.4925C5.93221 23.7924 6.66231 24.467 6.75293 24.5452Z" fill="white"/>
<path d="M2.58643 34.2866C3.09143 34.4041 3.61251 34.7008 4.09899 35.1748C4.87148 35.9273 4.66636 37.0107 4.3426 37.6701C5.00205 37.3471 6.08539 37.1422 6.8379 37.9137C7.31172 38.4009 7.60868 38.9213 7.72586 39.4263C8.216 39.2297 9.19629 38.6787 9.56608 37.3293C9.97218 35.8474 9.52686 33.8092 9.63917 32.3736C8.20358 32.4849 6.1653 32.0396 4.68342 32.4467C3.33455 32.8165 2.78302 33.7967 2.58643 34.2866ZM3.82883 33.0111C4.00789 32.7984 4.58987 32.6194 4.58987 32.6194C4.58987 32.6194 4.40643 33.0796 4.87538 34.0296C5.34433 34.9797 6.57115 34.634 6.4871 33.9848C6.40305 33.3356 5.7989 33.4588 5.7989 33.4588C5.7989 33.4588 6.03935 32.8657 6.66615 33.0406C7.29296 33.2155 7.17554 33.8954 7.17554 33.8954C7.17554 33.8954 7.39479 33.4757 7.82476 33.291C8.11515 33.1665 8.5093 33.1665 8.73586 33.1799C8.77045 33.1819 8.80139 33.1841 8.82721 33.1865C8.82941 33.2123 8.83184 33.2433 8.83379 33.2778C8.84719 33.5044 8.84719 33.8986 8.72271 34.1889C8.53805 34.6199 8.11831 34.8382 8.11831 34.8382C8.11831 34.8382 8.79798 34.7207 8.97314 35.3473C9.14829 35.9739 8.55486 36.2148 8.55486 36.2148C8.55486 36.2148 8.67788 35.6104 8.02891 35.5264C7.37993 35.4423 7.03279 36.6682 7.98409 37.1383C8.93538 37.6085 9.39434 37.4236 9.39434 37.4236C9.39434 37.4236 9.21528 38.0056 9.00261 38.1849C9.00261 38.1849 7.58676 38.1118 7.09978 37.2221C6.65714 36.4131 6.71414 35.6596 6.95532 35.0584C6.35409 35.2996 5.60061 35.3566 4.79158 34.9139C3.90167 34.427 3.82883 33.0111 3.82883 33.0111Z" fill="white"/>
<path d="M3.85566 24.8738L3.84957 24.8602C3.77059 24.6721 3.70689 24.4779 3.65907 24.2796C4.03399 24.5271 4.52656 24.9571 5.482 25.8263C6.9478 27.1601 8.2533 26.3528 8.31006 26.3167C8.26548 26.3452 7.3405 26.9569 7.57924 28.2064C7.62036 28.4306 7.70369 28.6449 7.8248 28.8381C7.63168 28.717 7.41732 28.6336 7.19311 28.5925C5.94364 28.354 5.33194 29.279 5.30344 29.3233C5.33949 29.2666 6.14681 27.9611 4.81305 26.4953C3.94945 25.5452 3.51948 25.0536 3.27124 24.6796C3.46628 24.727 3.65723 24.7899 3.84227 24.8677L3.85566 24.8738Z" fill="white"/>
<path d="M14.2483 38.4818C14.3301 38.55 14.9791 39.0694 15.9696 39.2977C16.5847 39.4394 17.1458 39.3303 17.5088 39.2136C17.6854 39.6845 18.1921 39.9854 18.253 40.1776C18.32 40.3885 18.0523 40.275 17.4708 40.5586C16.8893 40.8421 17.0323 41.3255 17.0323 41.3255C17.0323 41.3255 17.4866 41.3255 17.8235 41.2899C17.8922 41.2828 17.956 41.2741 18.0101 41.2636C18.187 41.2295 18.3594 41.1174 18.6435 41.1391C18.871 41.1562 19.1704 41.2587 19.6016 41.5571C19.8417 41.7238 20.0942 41.8718 20.3568 42H14.2873C14.5065 41.7277 14.7657 41.2658 14.8749 40.5328C15.0683 39.2336 14.3365 38.5588 14.2483 38.4818Z" fill="white"/>
<path d="M18.6592 25.5369C18.0075 26.3859 18.685 26.9089 18.685 26.9089C18.6163 26.4887 19.4226 25.9832 19.7656 26.7033C20.1086 27.4234 19.3883 27.9983 18.6421 27.9296C17.8959 27.8609 16.704 26.7547 17.6986 25.3311C18.6933 23.9074 20.4775 24.2246 20.4775 24.2246C20.2972 23.445 19.637 23.3671 19.637 23.3671C19.637 23.3671 20.2373 23.084 20.4516 22.5352C20.5798 22.207 20.5854 21.8394 20.5691 21.5965C20.5656 21.5434 20.561 21.4964 20.5564 21.4569C20.5172 21.4526 20.4702 21.4479 20.417 21.4443C20.1734 21.4282 19.8066 21.4338 19.4784 21.5619C18.9296 21.7763 18.6465 22.3766 18.6465 22.3766C18.6465 22.3766 18.5693 21.7161 17.7888 21.5361C17.7888 21.5361 18.1054 23.3201 16.6825 24.3147C15.2596 25.3094 14.1526 24.1176 14.0839 23.3715C14.0153 22.6253 14.5899 21.9049 15.3103 22.2479C16.0306 22.5909 15.5246 23.3973 15.1044 23.3286C15.1044 23.3286 15.6277 24.0061 16.4767 23.3544C17.2126 22.7892 16.4538 21.5802 15.9368 21.0002H20.9998V26.0636C20.4146 25.5481 19.22 24.8066 18.6592 25.5369Z" fill="white"/>
<path d="M2.34084 37.4904C2.9925 36.6414 2.31502 36.1181 2.31502 36.1181C2.38371 36.5383 1.57737 37.0438 1.23437 36.3239C0.891366 35.6041 1.61172 35.0289 2.35789 35.0976C3.10407 35.1663 4.29605 36.2725 3.30115 37.6962C2.30625 39.1199 0.522541 38.8024 0.522541 38.8024C0.702569 39.582 1.36299 39.6602 1.36299 39.6602C1.36299 39.6602 0.762736 39.9433 0.54836 40.4921C0.420221 40.8203 0.414622 41.1879 0.4307 41.4307C0.434354 41.4838 0.438983 41.5309 0.443368 41.5701C0.482833 41.5747 0.529849 41.5793 0.582956 41.5827C0.826566 41.5991 1.19344 41.5935 1.52158 41.4653C2.07044 41.251 2.35351 40.6507 2.35351 40.6507C2.35351 40.6507 2.43073 41.3109 3.21101 41.4912C3.21101 41.4912 2.89433 39.7072 4.31749 38.7123C5.74066 37.7174 6.84738 38.9096 6.91607 39.6558C6.98477 40.402 6.4101 41.1223 5.6895 40.7793C4.9689 40.4363 5.47513 39.63 5.89535 39.6987C5.89535 39.6987 5.37232 39.0212 4.52334 39.6728C3.7986 40.2293 4.52334 41.41 5.03931 42H0V36.9624C0.58515 37.4789 1.78005 38.2197 2.34084 37.4904Z" fill="white"/>
<path d="M17.213 38.2314L17.2191 38.2448C17.2926 38.42 17.3527 38.6006 17.3989 38.7849C17.0164 38.5437 16.5236 38.1157 15.5182 37.2014C14.0524 35.8677 12.7467 36.675 12.6902 36.711C12.7345 36.6825 13.6598 36.0706 13.421 34.8214C13.3798 34.5971 13.2964 34.3826 13.1752 34.1894C13.3684 34.3106 13.5828 34.394 13.8071 34.4352C15.0564 34.6737 15.6683 33.7485 15.6968 33.7044C15.6608 33.7609 14.8534 35.0667 16.187 36.5325C17.1076 37.5439 17.5353 38.0368 17.7758 38.4204C17.5882 38.3739 17.4046 38.3129 17.2264 38.238L17.213 38.2314Z" fill="white"/>
<path d="M19.4997 30.9935C18.1041 31.27 18.0118 33.425 19.5126 33.6306C19.5126 33.6306 18.8758 32.9875 19.4805 32.4664C20.0851 31.9453 20.8764 32.5638 20.8505 33.3992C20.8247 34.2345 19.8664 35.2194 18.3226 34.6148C16.7789 34.0101 17.2327 31.1969 17.2327 31.1969C17.2327 31.1969 16.8074 31.424 16.1416 31.5204C16.1416 31.5204 15.7628 32.7044 14.4183 33.1097C13.0738 33.5151 12.3279 32.8973 12.3279 32.8973C12.3803 33.1638 12.4835 33.4176 12.6316 33.6452C12.4041 33.497 12.1502 33.3939 11.8838 33.3414C11.8838 33.3414 12.5013 34.0876 12.0962 35.4318C11.6911 36.7761 10.5069 37.1551 10.5069 37.1551C10.4094 37.8209 10.1834 38.2462 10.1834 38.2462C10.1834 38.2462 12.9966 37.7926 13.6012 39.3362C14.2058 40.8797 13.2217 41.8383 12.3856 41.8641C11.5495 41.8899 10.932 41.0987 11.4528 40.494C11.9737 39.8894 12.617 40.5262 12.617 40.5262C12.4114 39.0253 10.2565 39.1176 9.97995 40.5133C9.83257 41.2573 10.0652 41.725 10.3144 41.9993H6.45273C6.3856 41.9361 6.31404 41.8778 6.2386 41.8249C6.13555 41.7647 5.9984 41.6962 5.9984 41.6962C5.9984 41.6962 6.95895 41.7476 7.49927 40.8987C7.62472 40.7019 7.71084 40.4826 7.75288 40.2531C11.0535 38.7987 10.5096 35.8808 10.4175 34.492C10.3461 33.4165 10.3853 32.2133 10.4065 31.7243C10.4087 31.6756 10.4107 31.6345 10.4121 31.6008L10.2886 31.6064C9.79968 31.6276 8.59625 31.6668 7.52072 31.5955C6.13214 31.5034 3.21419 30.9594 1.75984 34.2601C1.53026 34.302 1.31101 34.3881 1.11427 34.5137C0.265291 35.054 0.316693 36.0145 0.316693 36.0145C0.316693 36.0145 0.247994 35.8774 0.188066 35.7743C0.163705 35.7307 0.0830709 35.6377 0 35.5451V31.6863C0.272843 31.9404 0.743736 32.1835 1.50039 32.0337C2.89603 31.7572 2.98835 29.6023 1.48748 29.3964C1.48748 29.3964 2.12427 30.0398 1.51963 30.5606C0.914995 31.0815 0.123751 30.4632 0.149574 29.6281C0.175396 28.793 1.13351 27.8078 2.67727 28.4125C4.22102 29.0171 3.76742 31.8303 3.76742 31.8303C3.76742 31.8303 4.19252 31.603 4.85855 31.5068C4.85855 31.5068 5.23736 30.3229 6.58184 29.9175C7.92632 29.5121 8.67226 30.1297 8.67226 30.1297C8.61982 29.8633 8.51668 29.6095 8.36847 29.382C8.59593 29.5302 8.84975 29.6334 9.11611 29.6858C9.11611 29.6858 8.49881 28.9396 8.90393 27.5952C9.30905 26.2507 10.4932 25.8721 10.4932 25.8721C10.5895 25.2061 10.8167 24.781 10.8167 24.781C10.8167 24.781 8.00355 25.2346 7.39891 23.6908C6.79427 22.1471 7.77821 21.1887 8.61452 21.1632C9.45083 21.1376 10.0681 21.9286 9.54706 22.5332C9.02598 23.1379 8.38285 22.5011 8.38285 22.5011C8.5887 24.0019 10.7437 23.9096 11.0202 22.514C11.1727 21.7447 10.9186 21.2716 10.6599 21.0002H14.5162C14.6137 21.0879 14.7145 21.1749 14.7598 21.2016C14.8629 21.2616 15 21.3303 15 21.3303C15 21.3303 14.0395 21.2789 13.4991 22.1278C13.3736 22.3246 13.2875 22.5438 13.2455 22.7734C9.94487 24.2278 10.4889 27.1457 10.5809 28.5343C10.6523 29.6098 10.6131 30.8132 10.5919 31.3022C10.5897 31.3509 10.5878 31.3921 10.5863 31.4257L10.7098 31.4201C11.1987 31.3989 12.4019 31.3597 13.4775 31.431C14.866 31.5231 17.7842 32.0671 19.2386 28.7664C19.4681 28.7244 19.6874 28.6383 19.8841 28.5128C20.7331 27.9725 20.6817 27.012 20.6817 27.012C20.6817 27.012 20.7502 27.1491 20.8104 27.2522C20.8347 27.2958 20.9151 27.3888 20.9982 27.4814V31.3409C20.7283 31.0868 20.2564 30.8437 19.4997 30.9935Z" fill="white"/>
<path d="M20.1207 39.6606C20.0997 39.3776 20.2111 39.2051 20.2454 39.0273C20.2559 38.9732 20.2644 38.9091 20.2717 38.8404C20.307 38.5037 20.307 38.0492 20.307 38.0492C20.307 38.0492 19.8232 37.9052 19.5402 38.4877C19.2571 39.0701 19.3696 39.3371 19.1594 39.2701C18.9674 39.2092 18.6676 38.7045 18.1981 38.5269C18.3155 38.1639 18.4266 37.6012 18.2841 36.9819C18.0558 35.9909 17.5365 35.3424 17.4683 35.2606C17.5452 35.35 18.2198 36.0818 19.5192 35.8883C20.2649 35.7775 20.7297 35.5112 20.9999 35.2895V41.4127C20.8679 41.136 20.7136 40.8705 20.5387 40.6188C20.241 40.1873 20.1377 39.8882 20.1207 39.6606Z" fill="white"/>
<path d="M18.4139 28.7404C17.9089 28.6232 17.3879 28.3262 16.9014 27.8524C16.1289 27.0999 16.3338 26.0166 16.6578 25.3571C15.9983 25.6799 14.915 25.885 14.1625 25.1135C13.6886 24.6263 13.3917 24.1059 13.2743 23.6009C12.7844 23.7975 11.8041 24.3486 11.4343 25.6979C11.0282 27.1798 11.4735 29.2181 11.3612 30.6537C12.7968 30.5423 14.8351 30.9876 16.3169 30.5806C17.6661 30.2108 18.2171 29.2305 18.4139 28.7404ZM17.1715 30.0161C16.9922 30.2288 16.4102 30.4079 16.4102 30.4079C16.4102 30.4079 16.5949 29.9489 16.125 28.9976C15.6551 28.0463 14.4292 28.3932 14.5133 29.0424C14.5973 29.6916 15.2015 29.5684 15.2015 29.5684C15.2015 29.5684 14.9608 30.1616 14.334 29.9867C13.7072 29.8117 13.8248 29.1318 13.8248 29.1318C13.8248 29.1318 13.6056 29.5516 13.1756 29.7362C12.8852 29.8607 12.4911 29.8607 12.2645 29.8473C12.2299 29.8454 12.199 29.8429 12.1732 29.8407C12.1707 29.8149 12.1685 29.784 12.1666 29.7494C12.1532 29.5228 12.1532 29.1287 12.2777 28.8383C12.4623 28.4073 12.8821 28.1891 12.8821 28.1891C12.8821 28.1891 12.2024 28.3065 12.0272 27.6797C11.8521 27.0529 12.4455 26.8124 12.4455 26.8124C12.4455 26.8124 12.3222 27.4168 12.9715 27.5006C13.6207 27.5844 13.9676 26.3591 13.0163 25.8889C12.065 25.4187 11.606 25.6034 11.606 25.6034C11.606 25.6034 11.7851 25.0214 11.9978 24.8424C11.9978 24.8424 13.4136 24.9154 13.9006 25.8051C14.3432 26.6141 14.2862 27.3676 14.045 27.9688C14.6463 27.7277 15.3998 27.6707 16.2088 28.1133C17.0984 28.6003 17.1715 30.0161 17.1715 30.0161Z" fill="white"/>
<path d="M18.6422 41.1391C18.3591 41.1179 18.1866 41.2295 18.0088 41.2636C17.9547 41.2741 17.8909 41.2828 17.8222 41.2899C17.4853 41.3255 17.0309 41.3255 17.0309 41.3255C17.0309 41.3255 16.8867 40.8417 17.4694 40.5586C18.0522 40.2755 18.3187 40.3881 18.2517 40.1776C18.1908 39.9854 17.6841 39.6845 17.5074 39.2136C17.6532 39.1685 17.7946 39.1106 17.9301 39.0404C17.7435 38.9767 17.5651 38.8909 17.3988 38.7849C17.353 38.6003 17.2933 38.4195 17.2202 38.2441L17.2141 38.2307L17.2278 38.2365C17.4059 38.3114 17.5896 38.3724 17.7771 38.419C17.881 38.5832 17.9653 38.7591 18.028 38.943C18.0969 38.8093 18.154 38.6698 18.1986 38.5262C18.668 38.7037 18.9679 39.2083 19.1598 39.2694C19.3708 39.3364 19.2573 39.0687 19.5406 38.4869C19.8239 37.9052 20.3075 38.0484 20.3075 38.0484C20.3075 38.0484 20.3075 38.503 20.2722 38.8397C20.2649 38.9084 20.2563 38.9724 20.2459 39.0265C20.2115 39.2034 20.0997 39.3759 20.1211 39.6599C20.1382 39.8874 20.241 40.1866 20.5392 40.618C20.7141 40.8698 20.8683 41.1353 21.0003 41.412V41.9993H20.3565C20.0938 41.8711 19.8413 41.7231 19.6013 41.5564C19.1691 41.2587 18.8697 41.1562 18.6422 41.1391Z" fill="#EF9700"/>
<path d="M2.42635 21.9661C2.70942 21.9873 2.88165 21.8757 3.05973 21.8416C3.11381 21.8311 3.17788 21.8223 3.24658 21.8153C3.58349 21.7797 4.03783 21.7797 4.03783 21.7797C4.03783 21.7797 4.1818 22.2635 3.59933 22.5466C3.01686 22.8297 2.75011 22.7171 2.81685 22.9276C2.87386 23.1074 3.32186 23.3829 3.52332 23.8046C3.3668 23.8513 3.21501 23.9126 3.06996 23.9878C3.27833 24.0588 3.4764 24.1571 3.65901 24.2801C3.70683 24.4784 3.77053 24.6726 3.84951 24.8606L3.8556 24.8743L3.84197 24.8684C3.65693 24.7907 3.46598 24.7278 3.27094 24.6804C3.14551 24.4958 3.04539 24.2952 2.97325 24.084C2.89726 24.231 2.83536 24.3848 2.78835 24.5435C2.36569 24.3425 2.08944 23.8928 1.90917 23.8355C1.6982 23.7685 1.81172 24.0363 1.52816 24.6178C1.2446 25.1992 0.761518 25.0563 0.761518 25.0563C0.761518 25.0563 0.761523 24.6019 0.796846 24.265C0.803911 24.1963 0.812677 24.1325 0.823152 24.0784C0.857501 23.9015 0.96932 23.7291 0.947639 23.445C0.930586 23.2175 0.828029 22.9183 0.529851 22.4869C0.323091 22.19 0.145641 21.8738 0 21.5427V21.0006H0.481129C0.827904 21.1493 1.15864 21.3329 1.46823 21.5485C1.89942 21.8462 2.19857 21.949 2.42635 21.9661Z" fill="#EF9700"/>
<path d="M13.2737 23.5999C12.7838 23.7965 11.8035 24.3476 11.4337 25.6969C11.0276 27.1788 11.4729 29.2171 11.3606 30.6527C12.7962 30.5414 14.8345 30.9867 16.3164 30.5796C17.6657 30.2098 18.2165 29.2295 18.4134 28.7394C18.6842 28.805 18.9656 28.8139 19.2399 28.7654C17.7856 32.0661 14.8676 31.5221 13.4788 31.43C12.4033 31.3587 11.2001 31.3979 10.7112 31.4191L10.5877 31.4247C10.5891 31.3911 10.5911 31.3497 10.5933 31.3012C10.6145 30.8122 10.6537 29.6088 10.5823 28.5333C10.4902 27.1447 9.94624 24.2267 13.2469 22.7724C13.1987 23.0471 13.2078 23.3289 13.2737 23.5999Z" fill="#0067BE"/>
<path d="M20.6835 27.012C20.6835 27.012 20.7349 27.9725 19.8859 28.5128C19.6892 28.6383 19.4699 28.7244 19.2404 28.7664C18.966 28.8149 18.6846 28.806 18.4138 28.7404C17.9088 28.6232 17.3877 28.3262 16.9012 27.8524C16.1288 27.0999 16.3336 26.0166 16.6576 25.3571C15.9982 25.6799 14.9148 25.885 14.1623 25.1135C13.6885 24.6263 13.3916 24.1059 13.2741 23.6009C13.2087 23.3301 13.1999 23.0487 13.2483 22.7744C13.2903 22.5448 13.3764 22.3255 13.5019 22.1288C14.0422 21.2798 15.0028 21.3312 15.0028 21.3312C15.0028 21.3312 14.8656 21.2625 14.7626 21.2026C14.7166 21.1758 14.6164 21.0888 14.519 21.0011H15.9387C16.4557 21.5812 17.2145 22.7902 16.4786 23.3554C15.6296 24.007 15.1063 23.3296 15.1063 23.3296C15.5266 23.3982 16.032 22.5919 15.3122 22.2489C14.5923 21.9059 14.0171 22.6263 14.0858 23.3724C14.1545 24.1186 15.2608 25.3106 16.6844 24.3157C18.1081 23.3208 17.7907 21.5371 17.7907 21.5371C18.5702 21.7171 18.6484 22.3775 18.6484 22.3775C18.6484 22.3775 18.9315 21.7773 19.4803 21.5629C19.8085 21.4348 20.1761 21.4292 20.419 21.4452C20.4721 21.4489 20.5191 21.4535 20.5583 21.4579C20.5629 21.4974 20.5676 21.5444 20.571 21.5975C20.5873 21.8411 20.5817 22.208 20.4536 22.5361C20.2392 23.085 19.6389 23.368 19.6389 23.368C19.6389 23.368 20.2991 23.4453 20.4794 24.2255C20.4794 24.2255 18.6954 23.9089 17.7005 25.332C16.7056 26.7552 17.8978 27.8619 18.644 27.9306C19.3902 27.9993 20.1106 27.4246 19.7676 26.7043C19.4246 25.9839 18.6182 26.4897 18.6869 26.9099C18.6869 26.9099 18.0094 26.3869 18.6611 25.5379C19.2214 24.807 20.4165 25.5491 21.0017 26.0655V27.4824C20.9186 27.3898 20.8392 27.2967 20.8139 27.2531C20.7527 27.1491 20.6835 27.012 20.6835 27.012Z" fill="#E0D3B4"/>
<path d="M16.4099 30.4079C16.4099 30.4079 16.5946 29.9489 16.1247 28.9976C15.6547 28.0463 14.4289 28.3932 14.513 29.0424C14.597 29.6917 15.2011 29.5684 15.2011 29.5684C15.2011 29.5684 14.9605 30.1616 14.3337 29.9867C13.7068 29.8118 13.8245 29.1318 13.8245 29.1318C13.8245 29.1318 13.6053 29.5516 13.1753 29.7362C12.8849 29.8607 12.4907 29.8607 12.2642 29.8473C12.2296 29.8454 12.1987 29.8429 12.1728 29.8408C12.1704 29.8149 12.1682 29.784 12.1663 29.7494C12.1529 29.5228 12.1529 29.1287 12.2773 28.8383C12.462 28.4074 12.8817 28.1891 12.8817 28.1891C12.8817 28.1891 12.2021 28.3065 12.0269 27.6797C11.8518 27.0529 12.4452 26.8124 12.4452 26.8124C12.4452 26.8124 12.3219 27.4168 12.9711 27.5006C13.6204 27.5844 13.9673 26.3591 13.016 25.8889C12.0647 25.4188 11.6057 25.6034 11.6057 25.6034C11.6057 25.6034 11.7848 25.0214 11.9974 24.8424C11.9974 24.8424 13.4133 24.9155 13.9003 25.8051C14.3429 26.6141 14.2859 27.3676 14.0447 27.9689C14.646 27.7277 15.3994 27.6707 16.2085 28.1133C17.0984 28.6005 17.1712 30.0161 17.1712 30.0161C16.9919 30.2293 16.4099 30.4079 16.4099 30.4079Z" fill="#6BB0B1"/>
<path d="M11.0202 22.5139C10.7437 23.9096 8.5887 24.0019 8.38285 22.501C8.38285 22.501 9.02622 23.1378 9.54706 22.5332C10.0679 21.9286 9.44961 21.1373 8.61452 21.1631C7.77943 21.189 6.79403 22.1471 7.39891 23.6908C8.00379 25.2346 10.8167 24.781 10.8167 24.781C10.8167 24.781 10.5895 25.2061 10.4932 25.8721C10.4932 25.8721 9.30905 26.2509 8.90393 27.5952C8.49881 28.9394 9.11611 29.6858 9.11611 29.6858C8.84975 29.6334 8.59593 29.5302 8.36847 29.382C8.51668 29.6095 8.61982 29.8633 8.67226 30.1297C8.67226 30.1297 7.92608 29.5124 6.5816 29.9175C5.23712 30.3226 4.85855 31.5068 4.85855 31.5068C4.19252 31.6042 3.76742 31.8303 3.76742 31.8303C3.76742 31.8303 4.22102 29.0171 2.67727 28.4125C1.13351 27.8078 0.175153 28.7918 0.149574 29.6281C0.123995 30.4644 0.914995 31.0817 1.51963 30.5606C2.12427 30.0395 1.48748 29.3964 1.48748 29.3964C2.98835 29.6023 2.89603 31.7572 1.50039 32.0337C0.743736 32.1835 0.272843 31.9404 0 31.6863V27.7377C0.270407 27.516 0.735209 27.2504 1.4809 27.1389C2.77885 26.9457 3.45414 27.6748 3.53161 27.7664C3.46291 27.6838 2.94402 27.0356 2.716 26.0453C2.57909 25.4507 2.67629 24.9067 2.78909 24.543C2.83609 24.3843 2.89799 24.2305 2.97398 24.0835C3.04612 24.2947 3.14624 24.4953 3.27167 24.6799C3.51991 25.0538 3.94988 25.5462 4.81348 26.4955C6.14724 27.9613 5.33992 29.2668 5.30387 29.3236C5.33237 29.279 5.94407 28.354 7.19354 28.5927C7.41778 28.634 7.6322 28.7173 7.82547 28.8383C7.70418 28.6452 7.62076 28.4309 7.57967 28.2066C7.34117 26.9571 8.26616 26.3454 8.3105 26.3169C8.25373 26.353 6.94823 27.1603 5.48243 25.8266C4.52699 24.9574 4.03442 24.5274 3.6595 24.2799C3.47689 24.1569 3.27882 24.0586 3.07045 23.9875C3.2155 23.9124 3.36729 23.8511 3.52381 23.8043C3.88752 23.6916 4.43442 23.5924 5.03224 23.7313C6.02227 23.9593 6.67076 24.4782 6.75334 24.5469C6.66272 24.4687 5.93262 23.7941 6.12581 22.4962C6.2386 21.7378 6.51193 21.2701 6.73483 21.0019H10.6594C10.9186 21.2708 11.1727 21.7446 11.0202 22.5139Z" fill="#6BB0B1"/>
<path d="M7.72675 39.4273C8.21689 39.2307 9.19717 38.6796 9.56697 37.3303C9.97307 35.8484 9.52775 33.8101 9.64006 32.3745C8.20446 32.4859 6.16618 32.0405 4.6843 32.4476C3.33495 32.8174 2.78415 33.7977 2.58731 34.2876C2.31651 34.2221 2.0351 34.2133 1.76074 34.2618C3.21509 30.9611 6.13305 31.5051 7.52162 31.5972C8.59716 31.6685 9.80059 31.6293 10.2895 31.6081L10.413 31.6025C10.4116 31.6361 10.4096 31.6776 10.4074 31.726C10.3862 32.215 10.347 33.4182 10.4184 34.4937C10.5105 35.8823 11.0544 38.8005 7.75378 40.2548C7.80204 39.9801 7.79284 39.6983 7.72675 39.4273Z" fill="#0067BE"/>
<path d="M0.316456 36.0153C0.316456 36.0153 0.265054 35.0547 1.11403 34.5144C1.31078 34.3889 1.53002 34.3027 1.7596 34.2608C2.03396 34.2124 2.31536 34.2212 2.58616 34.2866C3.09117 34.404 3.61224 34.7008 4.09873 35.1748C4.87122 35.9273 4.6661 37.0107 4.34234 37.6701C5.00179 37.3471 6.08513 37.1422 6.83764 37.9137C7.31146 38.4009 7.60842 38.9213 7.72559 39.4263C7.79123 39.6971 7.8001 39.9785 7.75166 40.2529C7.71035 40.4826 7.62489 40.7022 7.50001 40.8994C6.95969 41.7484 5.99913 41.697 5.99913 41.697C5.99913 41.697 6.13629 41.7654 6.23933 41.8256C6.31478 41.8786 6.38634 41.9369 6.45347 42H5.04053C4.52457 41.41 3.79983 40.2292 4.52457 39.6728C5.37355 39.0212 5.89657 39.6986 5.89657 39.6986C5.47635 39.6299 4.97086 40.4363 5.69072 40.7793C6.41059 41.1223 6.98575 40.4019 6.9173 39.6558C6.84885 38.9096 5.74237 37.7176 4.31871 38.7123C2.89506 39.7069 3.21224 41.4911 3.21224 41.4911C2.43269 41.3109 2.35474 40.6507 2.35474 40.6507C2.35474 40.6507 2.07166 41.2509 1.52281 41.4653C1.19466 41.5934 0.827061 41.599 0.584183 41.5827C0.531076 41.5793 0.484054 41.5747 0.444589 41.5701C0.440204 41.5308 0.435581 41.4838 0.431927 41.4307C0.415848 41.1871 0.421447 40.8202 0.549586 40.4921C0.763963 39.9432 1.36422 39.6602 1.36422 39.6602C1.36422 39.6602 0.703789 39.5829 0.523762 38.8024C0.523762 38.8024 2.30772 39.1191 3.30237 37.6962C4.29703 36.2733 3.10529 35.1663 2.35912 35.0976C1.61294 35.0289 0.892592 35.6036 1.23559 36.3239C1.5786 37.0443 2.38494 36.5383 2.31624 36.1181C2.31624 36.1181 2.99372 36.6413 2.34207 37.4903C1.78177 38.2212 0.586371 37.4789 0.0012207 36.9624V35.5458C0.0842916 35.6384 0.163951 35.7315 0.189287 35.7751C0.247753 35.8781 0.316456 36.0153 0.316456 36.0153Z" fill="#E0D3B4"/>
<path d="M4.58989 32.6194C4.58989 32.6194 4.40645 33.0795 4.8754 34.0296C5.34435 34.9797 6.57117 34.634 6.48712 33.9848C6.40308 33.3356 5.79892 33.4588 5.79892 33.4588C5.79892 33.4588 6.03937 32.8656 6.66618 33.0406C7.29298 33.2155 7.17556 33.8954 7.17556 33.8954C7.17556 33.8954 7.39481 33.4756 7.82479 33.291C8.11517 33.1665 8.50933 33.1665 8.73588 33.1799C8.77048 33.1819 8.80141 33.184 8.82724 33.1865C8.82943 33.2123 8.83187 33.2432 8.83381 33.2778C8.84721 33.5044 8.84721 33.8986 8.72273 34.1889C8.53807 34.6199 8.11834 34.8382 8.11834 34.8382C8.11834 34.8382 8.798 34.7207 8.97316 35.3473C9.14831 35.9739 8.55488 36.2148 8.55488 36.2148C8.55488 36.2148 8.6779 35.6104 8.02893 35.5264C7.37995 35.4423 7.03281 36.6682 7.98411 37.1383C8.9354 37.6085 9.39436 37.4236 9.39436 37.4236C9.39436 37.4236 9.21531 38.0056 9.00263 38.1849C9.00263 38.1849 7.58678 38.1118 7.0998 37.2221C6.65717 36.4131 6.71417 35.6596 6.95534 35.0584C6.35411 35.2996 5.60063 35.3566 4.7916 34.9139C3.9017 34.4267 3.82886 33.0111 3.82886 33.0111C4.00791 32.7984 4.58989 32.6194 4.58989 32.6194Z" fill="#6BB0B1"/>
<path d="M19.5193 35.8884C18.2202 36.0818 17.5461 35.35 17.4684 35.2606C17.5366 35.3424 18.056 35.9914 18.2842 36.9819C18.4267 37.6004 18.3156 38.1639 18.1982 38.5269C18.1537 38.6706 18.0966 38.81 18.0277 38.9437C17.9649 38.7598 17.8807 38.5839 17.7768 38.4197C17.5363 38.036 17.1086 37.5427 16.188 36.5317C14.8544 35.0659 15.6618 33.7602 15.6978 33.7037C15.6691 33.748 15.0574 34.6732 13.8081 34.4345C13.5838 34.3933 13.3694 34.3099 13.1762 34.1887C13.2974 34.3819 13.3808 34.5963 13.422 34.8206C13.6605 36.0699 12.7353 36.6818 12.6912 36.7103C12.7477 36.6742 14.0535 35.8669 15.5193 37.2007C16.5246 38.1154 17.0175 38.5435 17.3999 38.7842C17.5662 38.8902 17.7446 38.976 17.9312 39.0397C17.7958 39.1098 17.6543 39.1678 17.5086 39.2129C17.1456 39.3296 16.5846 39.4387 15.9694 39.2969C14.9784 39.0687 14.33 38.5493 14.2481 38.4811C14.3375 38.5581 15.0693 39.2329 14.8759 40.5321C14.7667 41.2651 14.5075 41.7257 14.2883 41.9993H10.3145C10.0653 41.7243 9.83267 41.2565 9.98006 40.5133C10.2566 39.1177 12.4115 39.0253 12.6171 40.5262C12.6171 40.5262 11.974 39.8894 11.4529 40.494C10.9318 41.0987 11.5504 41.8899 12.3857 41.8641C13.221 41.8383 14.206 40.8799 13.6013 39.3362C12.9967 37.7924 10.1835 38.2463 10.1835 38.2463C10.1835 38.2463 10.4105 37.8209 10.507 37.1551C10.507 37.1551 11.6909 36.7763 12.0963 35.4318C12.5017 34.0874 11.8839 33.3414 11.8839 33.3414C12.1503 33.3939 12.4042 33.497 12.6317 33.6452C12.4836 33.4176 12.3804 33.1638 12.328 32.8973C12.328 32.8973 13.0741 33.5149 14.4184 33.1098C15.7626 32.7046 16.1417 31.5204 16.1417 31.5204C16.8075 31.423 17.2328 31.1969 17.2328 31.1969C17.2328 31.1969 16.7792 34.0101 18.3227 34.6148C19.8662 35.2194 20.8251 34.2352 20.8507 33.3992C20.8762 32.5631 20.0852 31.9455 19.4806 32.4664C18.876 32.9872 19.5127 33.6306 19.5127 33.6306C18.0119 33.425 18.1042 31.27 19.4998 30.9935C20.2565 30.8437 20.7271 31.0868 21 31.3409V35.2896C20.7298 35.5113 20.2655 35.7775 19.5193 35.8884Z" fill="#6BB0B1"/>
<path d="M41.0525 23.4445C41.0313 23.7276 41.1429 23.9001 41.177 24.0779C41.1875 24.132 41.196 24.1958 41.2033 24.2645C41.2387 24.6014 41.2389 25.0558 41.2389 25.0558C41.2389 25.0558 40.7548 25.2 40.4718 24.6173C40.1887 24.0345 40.3012 23.768 40.091 23.835C39.9107 23.8923 39.6344 24.342 39.2118 24.543C39.3238 24.9067 39.421 25.4506 39.2849 26.0453C39.0568 27.0353 38.5379 27.6838 38.4692 27.7664C38.5474 27.6758 39.222 26.9457 40.52 27.1389C41.2657 27.2497 41.7305 27.516 42.0009 27.7377V21.5422C41.8553 21.8733 41.6778 22.1896 41.4711 22.4864C41.1721 22.9178 41.0698 23.217 41.0525 23.4445Z" fill="white"/>
<path d="M35.2473 24.5452C35.3299 24.4765 35.9781 23.9576 36.9684 23.7295C37.5665 23.5917 38.1134 23.6908 38.4768 23.8026C38.6786 23.3819 39.1263 23.1064 39.1833 22.9256C39.2501 22.7144 38.9826 22.8282 38.4008 22.5446C37.8191 22.2611 37.9623 21.7777 37.9623 21.7777C37.9623 21.7777 38.4167 21.7778 38.7536 21.8133C38.8223 21.8204 38.8864 21.8292 38.9404 21.8396C39.1173 21.8737 39.2895 21.9858 39.5738 21.9641C39.8016 21.9471 40.1008 21.8443 40.5319 21.5461C40.8415 21.3305 41.1721 21.1469 41.5188 20.9982H35.2644C35.4885 21.2662 35.7618 21.7341 35.8746 22.4925C36.0678 23.7924 35.3377 24.467 35.2473 24.5452Z" fill="white"/>
<path d="M37.3166 32.4462C35.8347 32.0401 33.7965 32.4854 32.3609 32.3731C32.4722 33.8087 32.0269 35.847 32.434 37.3288C32.8038 38.6782 33.784 39.229 34.2742 39.4258C34.3914 38.9208 34.6883 38.3997 35.1621 37.9132C35.9146 37.1408 36.998 37.3456 37.6574 37.6696C37.3344 37.0102 37.1295 35.9269 37.901 35.1743C38.3882 34.7005 38.9086 34.4036 39.4136 34.2861C39.2182 33.7967 38.6659 32.8164 37.3166 32.4462ZM37.2084 34.9134C36.3994 35.3561 35.6459 35.2991 35.0447 35.0579C35.2859 35.6591 35.3429 36.4126 34.9002 37.2216C34.413 38.1115 32.9974 38.1844 32.9974 38.1844C32.7848 38.0051 32.6057 37.4231 32.6057 37.4231C32.6057 37.4231 33.0647 37.6078 34.0159 37.1378C34.9672 36.6679 34.6203 35.4421 33.9711 35.5259C33.3219 35.6097 33.4447 36.2148 33.4447 36.2148C33.4447 36.2148 32.8515 35.9741 33.0264 35.3473C33.2013 34.7205 33.8812 34.8382 33.8812 34.8382C33.8812 34.8382 33.4615 34.6189 33.2768 34.1889C33.1524 33.8986 33.1524 33.5044 33.1658 33.2778C33.1677 33.2433 33.1701 33.2123 33.1723 33.1865C33.1982 33.1841 33.2291 33.1819 33.2637 33.1799C33.4902 33.1665 33.8844 33.1665 34.1748 33.291C34.6057 33.4757 34.824 33.8954 34.824 33.8954C34.824 33.8954 34.7066 33.2157 35.3334 33.0406C35.9602 32.8654 36.2006 33.4588 36.2006 33.4588C36.2006 33.4588 35.5962 33.3356 35.5124 33.9848C35.4286 34.634 36.654 34.9809 37.1242 34.0296C37.5943 33.0783 37.4097 32.6194 37.4097 32.6194C37.4097 32.6194 37.9916 32.7984 38.1707 33.0111C38.1707 33.0111 38.0976 34.427 37.2084 34.9139V34.9134Z" fill="white"/>
<path d="M38.1443 24.8738L38.1504 24.8602C38.2294 24.6721 38.2931 24.4779 38.3409 24.2796C37.966 24.5271 37.4734 24.9571 36.518 25.8263C35.0522 27.1601 33.7467 26.3528 33.6899 26.3167C33.7345 26.3452 34.6595 26.9569 34.4208 28.2064C34.3796 28.4306 34.2962 28.645 34.175 28.8381C34.3682 28.717 34.5826 28.6337 34.8069 28.5925C36.0564 28.354 36.6681 29.279 36.6966 29.3233C36.6605 29.2666 35.8532 27.9611 37.187 26.4953C38.0506 25.5452 38.4805 25.0536 38.7288 24.6796C38.5337 24.727 38.3428 24.7899 38.1577 24.8677L38.1443 24.8738Z" fill="white"/>
<path d="M27.753 38.4818C27.6711 38.55 27.0222 39.0694 26.0317 39.2977C25.4163 39.4394 24.8555 39.3303 24.4925 39.2136C24.3159 39.6845 23.8092 39.9854 23.7483 40.1776C23.6813 40.3885 23.9491 40.275 24.5306 40.5586C25.112 40.8421 24.969 41.3255 24.969 41.3255C24.969 41.3255 24.5147 41.3255 24.1778 41.2899C24.1091 41.2828 24.0453 41.2741 23.9912 41.2636C23.8141 41.2295 23.6419 41.1174 23.3578 41.1391C23.13 41.1562 22.8309 41.2587 22.3997 41.5571C22.1597 41.7238 21.9072 41.8719 21.6445 42H27.7135C27.4943 41.7277 27.2351 41.2658 27.126 40.5328C26.9318 39.2336 27.6636 38.5588 27.753 38.4818Z" fill="white"/>
<path d="M23.3406 25.5369C23.9923 26.3859 23.3148 26.9089 23.3148 26.9089C23.3835 26.4887 22.5771 25.9832 22.2341 26.7033C21.8911 27.4234 22.6115 27.9983 23.3577 27.9296C24.1038 27.8609 25.2958 26.7547 24.3012 25.3311C23.3065 23.9074 21.5223 24.2246 21.5223 24.2246C21.7026 23.445 22.3628 23.3671 22.3628 23.3671C22.3628 23.3671 21.7625 23.084 21.5481 22.5352C21.42 22.207 21.4144 21.8394 21.4307 21.5965C21.4341 21.5434 21.4387 21.4964 21.4434 21.4569C21.4826 21.4526 21.5296 21.4479 21.5827 21.4443C21.8263 21.4282 22.1932 21.4338 22.5214 21.5619C23.0702 21.7763 23.3533 22.3766 23.3533 22.3766C23.3533 22.3766 23.4305 21.7161 24.2108 21.5361C24.2108 21.5361 23.8941 23.3201 25.3173 24.3147C26.7404 25.3094 27.8472 24.1176 27.9159 23.3715C27.9846 22.6253 27.4099 21.9049 26.6895 22.2479C25.9692 22.5909 26.4751 23.3973 26.8954 23.3286C26.8954 23.3286 26.3721 24.0061 25.5231 23.3544C24.7872 22.7892 25.546 21.5802 26.063 21.0002H21V26.0636C21.5852 25.5481 22.7798 24.8066 23.3406 25.5369Z" fill="white"/>
<path d="M39.6592 37.4903C39.0075 36.6414 39.685 36.1181 39.685 36.1181C39.6163 36.5383 40.4227 37.0438 40.7657 36.3239C41.1087 35.6041 40.3876 35.0284 39.6421 35.0976C38.8967 35.1668 37.704 36.2725 38.6986 37.6962C39.6933 39.1198 41.4775 38.8024 41.4775 38.8024C41.2975 39.582 40.637 39.6602 40.637 39.6602C40.637 39.6602 41.2373 39.9432 41.4517 40.4921C41.5798 40.8202 41.5854 41.1878 41.5693 41.4307C41.5657 41.4838 41.561 41.5308 41.5564 41.5701C41.5172 41.5747 41.4702 41.5793 41.4171 41.5827C41.1735 41.599 40.8063 41.5934 40.4784 41.4653C39.9296 41.2509 39.6465 40.6507 39.6465 40.6507C39.6465 40.6507 39.5693 41.3109 38.789 41.4911C38.789 41.4911 39.1057 39.7072 37.6825 38.7123C36.2594 37.7174 35.1526 38.9096 35.0839 39.6558C35.0153 40.4019 35.5899 41.1223 36.3103 40.7793C37.0306 40.4363 36.5247 39.63 36.1044 39.6986C36.1044 39.6986 36.6277 39.0212 37.4767 39.6728C38.2014 40.2292 37.4767 41.41 36.9607 42H42V36.9624C41.4149 37.4789 40.22 38.2197 39.6592 37.4903Z" fill="white"/>
<path d="M24.7871 38.2314L24.781 38.2448C24.7075 38.4201 24.6473 38.6006 24.601 38.7849C24.9837 38.5437 25.4765 38.1157 26.4819 37.2014C27.9477 35.8677 29.2534 36.675 29.31 36.711C29.2656 36.6825 28.3404 36.0706 28.5791 34.8214C28.6204 34.5971 28.7038 34.3826 28.8249 34.1894C28.6317 34.3106 28.4173 34.394 28.193 34.4352C26.9435 34.6737 26.3318 33.7485 26.3033 33.7044C26.3394 33.7609 27.1467 35.0667 25.8132 36.5325C24.8926 37.5439 24.4648 38.0368 24.2244 38.4204C24.4119 38.3739 24.5956 38.3129 24.7737 38.238L24.7871 38.2314Z" fill="white"/>
<path d="M22.5004 30.9935C23.896 31.27 23.9884 33.425 22.4875 33.6306C22.4875 33.6306 23.1243 32.9875 22.5196 32.4664C21.915 31.9453 21.1238 32.5638 21.1496 33.3992C21.1754 34.2345 22.1338 35.2194 23.6775 34.6148C25.2213 34.0101 24.7674 31.1969 24.7674 31.1969C24.7674 31.1969 25.1928 31.424 25.8585 31.5204C25.8585 31.5204 26.2374 32.7044 27.5818 33.1097C28.9263 33.5151 29.6722 32.8973 29.6722 32.8973C29.6198 33.1638 29.5166 33.4176 29.3685 33.6452C29.596 33.497 29.8499 33.3939 30.1164 33.3414C30.1164 33.3414 29.4988 34.0876 29.9039 35.4318C30.309 36.7761 31.4932 37.1551 31.4932 37.1551C31.5907 37.8209 31.8167 38.2462 31.8167 38.2462C31.8167 38.2462 29.0035 37.7926 28.3989 39.3362C27.7943 40.8797 28.7782 41.8383 29.6145 41.8641C30.4508 41.8899 31.0681 41.0987 30.5473 40.494C30.0265 39.8894 29.3828 40.5262 29.3828 40.5262C29.5887 39.0253 31.7437 39.1176 32.0202 40.5133C32.1675 41.2573 31.9349 41.725 31.6857 41.9993H35.5474C35.6145 41.9361 35.6861 41.8778 35.7615 41.8249C35.8646 41.7647 36.0017 41.6962 36.0017 41.6962C36.0017 41.6962 35.0412 41.7476 34.5008 40.8987C34.3754 40.7019 34.2893 40.4826 34.2472 40.2531C30.9466 38.7995 31.4906 35.881 31.5826 34.4925C31.654 33.4169 31.6148 32.2138 31.5936 31.7248C31.5914 31.6761 31.5895 31.6349 31.588 31.6013L31.7115 31.6069C32.2004 31.6281 33.4039 31.6673 34.4794 31.596C35.868 31.5039 38.7859 30.9599 40.2403 34.2606C40.4698 34.3025 40.6891 34.3886 40.8858 34.5142C41.7348 35.0545 41.6834 36.015 41.6834 36.015C41.6834 36.015 41.7519 35.8779 41.812 35.7748C41.8364 35.7312 41.917 35.6382 42.0001 35.5456V31.6863C41.7273 31.9404 41.2564 32.1835 40.4999 32.0337C39.1041 31.7572 39.0117 29.6023 40.5126 29.3964C40.5126 29.3964 39.8758 30.0398 40.4805 30.5606C41.0851 31.0815 41.8763 30.4632 41.8505 29.6281C41.8247 28.793 40.8666 27.8078 39.3228 28.4125C37.7791 29.0171 38.2329 31.8303 38.2329 31.8303C38.2329 31.8303 37.8073 31.603 37.1416 31.5068C37.1416 31.5068 36.7627 30.3229 35.4185 29.9175C34.0743 29.5121 33.3278 30.1297 33.3278 30.1297C33.3803 29.8633 33.4834 29.6095 33.6316 29.382C33.4042 29.5302 33.1504 29.6334 32.884 29.6858C32.884 29.6858 33.5013 28.9396 33.0962 27.5952C32.6911 26.2507 31.5069 25.8721 31.5069 25.8721C31.4094 25.2061 31.1834 24.781 31.1834 24.781C31.1834 24.781 33.9966 25.2346 34.6012 23.6908C35.2058 22.1471 34.2219 21.1887 33.3856 21.1632C32.5493 21.1376 31.932 21.9286 32.453 22.5332C32.9741 23.1379 33.6173 22.5011 33.6173 22.5011C33.4114 24.0019 31.2564 23.9096 30.9799 22.514C30.8274 21.7447 31.0815 21.2716 31.34 21.0002H27.4829C27.3855 21.0879 27.2846 21.1749 27.2393 21.2016C27.1363 21.2616 26.9991 21.3303 26.9991 21.3303C26.9991 21.3303 27.9597 21.2789 28.5 22.1278C28.6254 22.3246 28.7116 22.5439 28.7536 22.7734C32.0543 24.2278 31.5103 27.1457 31.4182 28.5343C31.3468 29.6098 31.386 30.8132 31.4072 31.3022C31.4094 31.3509 31.4114 31.3921 31.4131 31.4257L31.2893 31.4201C30.8004 31.3989 29.5972 31.3597 28.5217 31.431C27.1331 31.5231 24.2149 32.0671 22.7606 28.7664C22.531 28.7244 22.3118 28.6383 22.115 28.5128C21.266 27.9725 21.3174 27.012 21.3174 27.012C21.3174 27.012 21.249 27.1491 21.1888 27.2522C21.1644 27.2958 21.0838 27.3888 21.001 27.4814V31.3409C21.2731 31.0868 21.7437 30.8437 22.5004 30.9935Z" fill="white"/>
<path d="M21.879 39.6606C21.9004 39.3776 21.7888 39.2051 21.7545 39.0273C21.744 38.9732 21.7355 38.9091 21.7282 38.8404C21.6928 38.5037 21.6928 38.0492 21.6928 38.0492C21.6928 38.0492 22.1767 37.9052 22.4597 38.4877C22.7428 39.0701 22.6303 39.3371 22.8405 39.2701C23.0325 39.2092 23.3323 38.7045 23.8018 38.5269C23.6844 38.1639 23.5733 37.6012 23.7158 36.9819C23.9441 35.9909 24.4634 35.3424 24.5316 35.2606C24.4547 35.35 23.7799 36.0818 22.4807 35.8883C21.735 35.7775 21.2702 35.5112 21 35.2895V41.4127C21.132 41.136 21.2862 40.8705 21.4612 40.6188C21.7593 40.1873 21.8621 39.8882 21.879 39.6606Z" fill="white"/>
<path d="M25.6832 30.5806C27.165 30.9867 29.2033 30.5414 30.6389 30.6537C30.5276 29.2181 30.9729 27.1798 30.5658 25.6979C30.196 24.3486 29.2158 23.7978 28.7256 23.6009C28.6084 24.1059 28.3115 24.627 27.8377 25.1135C27.0851 25.886 26.0018 25.6809 25.3424 25.3571C25.6651 26.0166 25.8703 27.0999 25.0987 27.8524C24.6115 28.3262 24.0912 28.6232 23.5862 28.7404C23.7828 29.2305 24.3336 30.2108 25.6832 30.5806ZM25.7913 28.1133C26.6004 27.6707 27.3538 27.7277 27.9551 27.9688C27.7139 27.3676 27.6569 26.6141 28.0995 25.8051C28.5868 24.9152 30.0024 24.8424 30.0024 24.8424C30.215 25.0214 30.3941 25.6034 30.3941 25.6034C30.3941 25.6034 29.9351 25.4187 28.9838 25.8889C28.0325 26.3591 28.3794 27.5847 29.0287 27.5006C29.6779 27.4166 29.5546 26.8124 29.5546 26.8124C29.5546 26.8124 30.1478 27.0531 29.9729 27.6797C29.798 28.3062 29.1181 28.1891 29.1181 28.1891C29.1181 28.1891 29.5378 28.4083 29.7225 28.8383C29.8469 29.1287 29.8469 29.5228 29.8335 29.7494C29.8316 29.784 29.8292 29.8149 29.827 29.8407C29.8011 29.8429 29.7702 29.8454 29.7356 29.8473C29.5091 29.8607 29.1149 29.8607 28.8245 29.7362C28.3936 29.5516 28.1753 29.1318 28.1753 29.1318C28.1753 29.1318 28.2927 29.8115 27.6659 29.9867C27.0391 30.1618 26.7987 29.5684 26.7987 29.5684C26.7987 29.5684 27.4031 29.6914 27.4869 29.0424C27.5707 28.3935 26.3453 28.0461 25.8751 28.9976C25.405 29.9491 25.5899 30.4079 25.5899 30.4079C25.5899 30.4079 25.0076 30.2288 24.8286 30.0161C24.8286 30.0161 24.9014 28.6003 25.7913 28.1133Z" fill="white"/>
<path d="M23.3579 41.1391C23.641 41.1179 23.8132 41.2295 23.9913 41.2636C24.0454 41.2741 24.1092 41.2828 24.1779 41.2899C24.5148 41.3255 24.9691 41.3255 24.9691 41.3255C24.9691 41.3255 25.1133 40.8417 24.5306 40.5586C23.9479 40.2755 23.6814 40.3881 23.7484 40.1776C23.8093 39.9854 24.316 39.6845 24.4926 39.2136C24.3469 39.1686 24.2054 39.1106 24.07 39.0404C24.2565 38.9767 24.4348 38.8909 24.601 38.7849C24.6474 38.6006 24.7076 38.42 24.7811 38.2448L24.7872 38.2314L24.7735 38.2372C24.5954 38.3121 24.4117 38.3731 24.2242 38.4197C24.1202 38.5839 24.036 38.7598 23.9733 38.9437C23.9043 38.81 23.8473 38.6705 23.8027 38.5269C23.3333 38.7045 23.0334 39.209 22.8414 39.2701C22.6305 39.3371 22.744 39.0694 22.4607 38.4877C22.1774 37.9059 21.6938 38.0492 21.6938 38.0492C21.6938 38.0492 21.6938 38.5037 21.7291 38.8404C21.7364 38.9091 21.745 38.9732 21.7554 39.0273C21.7898 39.2041 21.9016 39.3766 21.8799 39.6606C21.8631 39.8882 21.7603 40.1873 21.4621 40.6188C21.2872 40.8705 21.133 41.136 21.001 41.4127V42H21.6446C21.9073 41.8719 22.1597 41.7238 22.3998 41.5571C22.831 41.2587 23.1301 41.1562 23.3579 41.1391Z" fill="#EF9700"/>
<path d="M39.5738 21.9661C39.2907 21.9873 39.1185 21.8757 38.9404 21.8416C38.8863 21.8311 38.8222 21.8223 38.7535 21.8153C38.4166 21.7797 37.9623 21.7797 37.9623 21.7797C37.9623 21.7797 37.8183 22.2635 38.4008 22.5466C38.9833 22.8297 39.25 22.7171 39.1833 22.9276C39.126 23.1074 38.6783 23.3829 38.4768 23.8046C38.6333 23.8513 38.7851 23.9126 38.9302 23.9878C38.7218 24.0588 38.5237 24.1571 38.3411 24.2801C38.2933 24.4784 38.2296 24.6726 38.1506 24.8606L38.1445 24.8743L38.1582 24.8684C38.3432 24.7907 38.5341 24.7278 38.7292 24.6804C38.8546 24.4958 38.9547 24.2952 39.0269 24.084C39.1029 24.231 39.1648 24.3848 39.2118 24.5435C39.6344 24.3425 39.9107 23.8928 40.091 23.8355C40.3019 23.7685 40.1884 24.0363 40.4717 24.6178C40.7551 25.1992 41.2389 25.0563 41.2389 25.0563C41.2389 25.0563 41.2389 24.6019 41.2033 24.265C41.196 24.1963 41.1875 24.1325 41.177 24.0784C41.1429 23.9015 41.0308 23.7291 41.0525 23.445C41.0693 23.2175 41.1721 22.9183 41.4703 22.4869C41.6771 22.19 41.8545 21.8738 42.0002 21.5427V21.0006H41.5188C41.1721 21.1494 40.8414 21.3329 40.5319 21.5485C40.1007 21.8462 39.8016 21.949 39.5738 21.9661Z" fill="#EF9700"/>
<path d="M28.7268 23.5999C29.2169 23.7965 30.1972 24.3476 30.567 25.6969C30.9731 27.1788 30.5278 29.2171 30.6401 30.6527C29.2045 30.5414 27.1662 30.9867 25.6843 30.5796C24.335 30.2098 23.7842 29.2295 23.5873 28.7394C23.3165 28.805 23.0351 28.8139 22.7607 28.7654C24.2151 32.0661 27.1331 31.5221 28.5219 31.43C29.5974 31.3587 30.8006 31.3979 31.2896 31.4191L31.4133 31.4247C31.4116 31.3911 31.4097 31.3497 31.4075 31.3012C31.3863 30.8122 31.347 29.6088 31.4184 28.5333C31.5105 27.1447 32.0545 24.2267 28.7538 22.7724C28.8021 23.0472 28.7929 23.3289 28.7268 23.5999Z" fill="#0067BE"/>
<path d="M21.3164 27.012C21.3164 27.012 21.265 27.9725 22.114 28.5128C22.3108 28.6383 22.53 28.7244 22.7596 28.7664C23.034 28.8149 23.3154 28.806 23.5862 28.7404C24.0912 28.6232 24.6122 28.3262 25.0987 27.8524C25.8712 27.0999 25.6661 26.0166 25.3423 25.3571C26.0018 25.6799 27.0851 25.885 27.8376 25.1135C28.3114 24.6263 28.6084 24.1059 28.7256 23.6009C28.7912 23.3302 28.8001 23.0487 28.7516 22.7744C28.7096 22.5448 28.6235 22.3256 28.498 22.1288C27.9577 21.2798 26.9972 21.3312 26.9972 21.3312C26.9972 21.3312 27.1343 21.2625 27.2374 21.2026C27.2834 21.1758 27.3835 21.0888 27.481 21.0011H26.0632C25.5462 21.5812 24.7874 22.7902 25.5233 23.3554C26.3723 24.007 26.8956 23.3296 26.8956 23.3296C26.4754 23.3983 25.9699 22.5919 26.6897 22.2489C27.4096 21.9059 27.9848 22.6263 27.9161 23.3724C27.8474 24.1186 26.7411 25.3106 25.3175 24.3157C23.8938 23.3208 24.2117 21.5361 24.2117 21.5361C23.4322 21.7161 23.3542 22.3766 23.3542 22.3766C23.3542 22.3766 23.0712 21.7763 22.5223 21.5619C22.1942 21.4338 21.8266 21.4282 21.5837 21.4443C21.5306 21.4479 21.4836 21.4525 21.4443 21.4569C21.4397 21.4964 21.4351 21.5434 21.4317 21.5965C21.4154 21.8401 21.421 22.207 21.5491 22.5351C21.7635 23.084 22.3637 23.3671 22.3637 23.3671C22.3637 23.3671 21.7035 23.4443 21.5233 24.2246C21.5233 24.2246 23.3072 23.9079 24.3021 25.3311C25.297 26.7542 24.1048 27.8609 23.3586 27.9296C22.6125 27.9983 21.8921 27.4237 22.2351 26.7033C22.5781 25.9829 23.3844 26.4887 23.3157 26.9089C23.3157 26.9089 23.9932 26.3859 23.3416 25.5369C22.7813 24.8061 21.5861 25.5481 21.001 26.0646V27.4814C21.0838 27.3888 21.1635 27.2958 21.1888 27.2522C21.248 27.1491 21.3164 27.012 21.3164 27.012Z" fill="#E0D3B4"/>
<path d="M25.5899 30.4079C25.5899 30.4079 25.405 29.9489 25.8752 28.9976C26.3453 28.0463 27.5709 28.3932 27.4869 29.0425C27.4028 29.6917 26.7987 29.5684 26.7987 29.5684C26.7987 29.5684 27.0391 30.1616 27.6659 29.9867C28.2927 29.8118 28.1753 29.1331 28.1753 29.1331C28.1753 29.1331 28.3946 29.5528 28.8245 29.7375C29.1149 29.862 29.5091 29.862 29.7356 29.8486C29.7702 29.8466 29.8012 29.8442 29.827 29.842C29.8292 29.8162 29.8316 29.7852 29.8336 29.7506C29.847 29.5241 29.847 29.1299 29.7225 28.8395C29.5378 28.4086 29.1181 28.1903 29.1181 28.1903C29.1181 28.1903 29.7978 28.3077 29.9729 27.6809C30.1481 27.0541 29.5546 26.8137 29.5546 26.8137C29.5546 26.8137 29.6779 27.4181 29.0287 27.5019C28.3795 27.5857 28.0326 26.3603 28.9839 25.8901C29.9352 25.42 30.3941 25.6046 30.3941 25.6046C30.3941 25.6046 30.2151 25.0227 30.0024 24.8436C30.0024 24.8436 28.5865 24.9167 28.0996 25.8063C27.6569 26.6154 27.7139 27.3689 27.9551 27.9701C27.3539 27.7289 26.6004 27.6719 25.7914 28.1145C24.9015 28.6018 24.8286 30.0174 24.8286 30.0174C25.0077 30.2293 25.5899 30.4079 25.5899 30.4079Z" fill="#6BB0B1"/>
<path d="M30.9798 22.5139C31.2563 23.9096 33.4113 24.0019 33.6171 22.501C33.6171 22.501 32.9738 23.1378 32.4529 22.5332C31.9321 21.9286 32.5504 21.1373 33.3855 21.1631C34.2206 21.189 35.2057 22.1471 34.6011 23.6908C33.9964 25.2346 31.1832 24.781 31.1832 24.781C31.1832 24.781 31.4103 25.2061 31.5067 25.8721C31.5067 25.8721 32.6907 26.2509 33.0961 27.5952C33.5014 28.9394 32.8839 29.6858 32.8839 29.6858C33.1502 29.6333 33.404 29.5302 33.6315 29.382C33.4833 29.6095 33.3802 29.8633 33.3277 30.1297C33.3277 30.1297 34.0739 29.5124 35.4184 29.9175C36.7629 30.3226 37.1414 31.5068 37.1414 31.5068C37.8075 31.6042 38.2328 31.8303 38.2328 31.8303C38.2328 31.8303 37.779 29.0171 39.3227 28.4125C40.8665 27.8078 41.8248 28.7918 41.8504 29.6281C41.876 30.4644 41.085 31.0817 40.4804 30.5606C39.8757 30.0395 40.5125 29.3964 40.5125 29.3964C39.0116 29.6023 39.104 31.7572 40.4998 32.0337C41.2563 32.1835 41.7272 31.9404 42 31.6863V27.7377C41.7296 27.516 41.2648 27.2504 40.5191 27.1389C39.2211 26.9457 38.5459 27.6748 38.4684 27.7664C38.5371 27.6838 39.056 27.0356 39.284 26.0453C39.4209 25.4507 39.3237 24.9067 39.2109 24.543C39.1639 24.3843 39.102 24.2305 39.026 24.0835C38.9539 24.2947 38.8537 24.4953 38.7283 24.6799C38.4801 25.0538 38.0501 25.5462 37.1865 26.4955C35.8528 27.9613 36.6601 29.2668 36.6961 29.3236C36.6676 29.279 36.0559 28.354 34.8064 28.5927C34.5822 28.634 34.3678 28.7173 34.1745 28.8383C34.2957 28.6452 34.3791 28.4308 34.4203 28.2066C34.6588 26.9571 33.7338 26.3454 33.6895 26.3169C33.746 26.353 35.0518 27.1603 36.5176 25.8266C37.473 24.9574 37.9656 24.5274 38.3405 24.2799C38.5231 24.1569 38.7212 24.0586 38.9295 23.9875C38.7845 23.9124 38.6327 23.8511 38.4762 23.8043C38.1125 23.6916 37.5658 23.5924 36.9678 23.7313C35.9777 23.9593 35.3292 24.4782 35.2466 24.5469C35.3373 24.4687 36.0674 23.7941 35.8742 22.4962C35.7614 21.7378 35.4881 21.2701 35.2639 21.0019H31.3399C31.0817 21.2708 30.8273 21.7446 30.9798 22.5139Z" fill="#6BB0B1"/>
<path d="M34.273 39.4273C33.7828 39.2307 32.8025 38.6796 32.4327 37.3303C32.0266 35.8484 32.472 33.8101 32.3597 32.3745C33.7953 32.4859 35.8335 32.0405 37.3154 32.4476C38.6648 32.8174 39.2156 33.7977 39.4124 34.2876C39.6832 34.2221 39.9646 34.2133 40.239 34.2618C38.7846 30.9611 35.8667 31.5051 34.4781 31.5972C33.4026 31.6685 32.1991 31.6293 31.7102 31.6081L31.5867 31.6025C31.5882 31.6361 31.5901 31.6776 31.5923 31.726C31.6135 32.215 31.6527 33.4182 31.5813 34.4937C31.4892 35.8823 30.9453 38.8005 34.2459 40.2548C34.1977 39.9801 34.2069 39.6983 34.273 39.4273Z" fill="#0067BE"/>
<path d="M41.6833 36.0153C41.6833 36.0153 41.7347 35.0547 40.8857 34.5144C40.689 34.3889 40.4697 34.3027 40.2401 34.2608C39.9658 34.2124 39.6844 34.2212 39.4136 34.2866C38.9085 34.404 38.3875 34.7008 37.901 35.1748C37.1285 35.9273 37.3334 37.0107 37.6574 37.6701C36.9979 37.3471 35.9146 37.1422 35.1621 37.9137C34.6882 38.4009 34.3913 38.9213 34.2741 39.4263C34.2085 39.6971 34.1996 39.9785 34.248 40.2529C34.2901 40.4824 34.3762 40.7016 34.5016 40.8984C35.042 41.7474 36.0025 41.696 36.0025 41.696C36.0025 41.696 35.8654 41.7645 35.7623 41.8246C35.6869 41.8776 35.6153 41.9359 35.5482 41.9991H36.9611C37.4771 41.409 38.2018 40.2283 37.4771 39.6719C36.6281 39.0202 36.1048 39.6977 36.1048 39.6977C36.5251 39.629 37.0306 40.4353 36.3107 40.7783C35.5908 41.1213 35.0157 40.401 35.0843 39.6548C35.153 38.9086 36.2593 37.7166 37.6829 38.7113C39.1066 39.706 38.7894 41.4902 38.7894 41.4902C39.569 41.3099 39.6469 40.6497 39.6469 40.6497C39.6469 40.6497 39.93 41.25 40.4789 41.4643C40.8068 41.5925 41.1746 41.5981 41.4175 41.5818C41.4706 41.5783 41.5176 41.5737 41.5568 41.5691C41.5615 41.5299 41.5661 41.4828 41.5697 41.4297C41.5858 41.1861 41.5802 40.8193 41.4521 40.4911C41.2377 39.9423 40.6374 39.6592 40.6374 39.6592C40.6374 39.6592 41.2979 39.582 41.4779 38.8014C41.4779 38.8014 39.6939 39.1181 38.699 37.6952C37.7041 36.2723 38.8964 35.1653 39.6425 35.0966C40.3887 35.0279 41.1091 35.6026 40.7661 36.323C40.4231 37.0433 39.6167 36.5373 39.6854 36.1171C39.6854 36.1171 39.0079 36.6404 39.6596 37.4894C40.2199 38.2202 41.4153 37.4779 42.0005 36.9615V35.5449C41.9174 35.6374 41.8377 35.7305 41.8124 35.7741C41.7517 35.8781 41.6833 36.0153 41.6833 36.0153Z" fill="#E0D3B4"/>
<path d="M37.4102 32.6194C37.4102 32.6194 37.5948 33.0783 37.1247 34.0296C36.6545 34.9809 35.4289 34.634 35.5129 33.9848C35.597 33.3356 36.2011 33.4588 36.2011 33.4588C36.2011 33.4588 35.9607 32.8656 35.3339 33.0406C34.7071 33.2155 34.8245 33.8954 34.8245 33.8954C34.8245 33.8954 34.6053 33.4756 34.1753 33.291C33.8849 33.1665 33.4907 33.1665 33.2642 33.1799C33.2296 33.1819 33.1987 33.184 33.1728 33.1865C33.1706 33.2123 33.1682 33.2432 33.1663 33.2778C33.1529 33.5044 33.1529 33.8986 33.2773 34.1889C33.462 34.6199 33.8817 34.8382 33.8817 34.8382C33.8817 34.8382 33.2021 34.7207 33.0269 35.3473C32.8518 35.9739 33.4447 36.2148 33.4447 36.2148C33.4447 36.2148 33.3217 35.6104 33.9707 35.5264C34.6196 35.4423 34.967 36.6682 34.0155 37.1383C33.0639 37.6085 32.6052 37.4236 32.6052 37.4236C32.6052 37.4236 32.7843 38.0056 32.997 38.1849C32.997 38.1849 34.4128 38.1118 34.8998 37.2221C35.3424 36.4131 35.2854 35.6596 35.0442 35.0584C35.6455 35.2996 36.399 35.3566 37.208 34.9139C38.0979 34.4267 38.1707 33.0111 38.1707 33.0111C37.9922 32.7984 37.4102 32.6194 37.4102 32.6194Z" fill="#6BB0B1"/>
<path d="M22.4809 35.8884C23.7801 36.0818 24.4541 35.35 24.5319 35.2606C24.4636 35.3424 23.9443 35.9914 23.716 36.9819C23.5735 37.6004 23.6846 38.1639 23.802 38.5269C23.8466 38.6706 23.9036 38.81 23.9725 38.9437C24.0353 38.7598 24.1195 38.5839 24.2234 38.4197C24.4639 38.036 24.8917 37.5427 25.8123 36.5317C27.1458 35.0659 26.3385 33.7602 26.3024 33.7037C26.3309 33.748 26.9426 34.6732 28.1921 34.4345C28.4164 34.3933 28.6308 34.3099 28.824 34.1887C28.7029 34.3819 28.6195 34.5963 28.5782 34.8206C28.3397 36.0699 29.265 36.6818 29.3091 36.7103C29.2525 36.6742 27.9468 35.8669 26.481 37.2007C25.4756 38.1154 24.9828 38.5435 24.6001 38.7842C24.4339 38.8902 24.2556 38.976 24.069 39.0397C24.2045 39.1098 24.3459 39.1678 24.4917 39.2129C24.8546 39.3296 25.4154 39.4387 26.0308 39.2969C27.0216 39.0687 27.6703 38.5493 27.7521 38.4811C27.6627 38.5581 26.9309 39.2329 27.1244 40.5321C27.2335 41.2651 27.4927 41.7257 27.7119 41.9993H31.6847C31.934 41.7243 32.1666 41.2565 32.0192 40.5133C31.7427 39.1177 29.5877 39.0253 29.3819 40.5262C29.3819 40.5262 30.0253 39.8894 30.5464 40.494C31.0674 41.0987 30.4489 41.8899 29.6136 41.8641C28.7782 41.8383 27.7933 40.8799 28.398 39.3362C29.0026 37.7924 31.8158 38.2463 31.8158 38.2463C31.8158 38.2463 31.5888 37.8209 31.4923 37.1551C31.4923 37.1551 30.3083 36.7763 29.903 35.4318C29.4976 34.0874 30.1154 33.3414 30.1154 33.3414C29.849 33.3938 29.595 33.497 29.3675 33.6452C29.5157 33.4176 29.6188 33.1638 29.6713 32.8973C29.6713 32.8973 28.9251 33.5149 27.5809 33.1098C26.2366 32.7046 25.8576 31.5204 25.8576 31.5204C25.1918 31.423 24.7665 31.1969 24.7665 31.1969C24.7665 31.1969 25.2203 34.0101 23.6765 34.6148C22.1328 35.2194 21.1742 34.2352 21.1486 33.3992C21.123 32.5631 21.914 31.9455 22.5187 32.4664C23.1233 32.9872 22.4865 33.6306 22.4865 33.6306C23.9874 33.425 23.8951 31.27 22.4994 30.9935C21.7428 30.8437 21.2721 31.0868 20.999 31.3409V35.2896C21.2704 35.5113 21.7352 35.7775 22.4809 35.8884Z" fill="#6BB0B1"/>
</g>
<defs>
<clipPath id="clip0_65_237">
<rect width="42" height="42" fill="white"/>
</clipPath>
</defs>
</svg>
