<svg width="142" height="142" viewBox="0 0 142 142" fill="none" xmlns="http://www.w3.org/2000/svg">
<g clip-path="url(#clip0_14_38)">
<path d="M74.3228 67.0988L74.8662 66.5554C73.9765 65.6629 72.8224 65.0816 71.5757 64.8981C72.9986 62.7324 71.8086 61.1518 71.8086 61.1518C74.5473 60.4085 75.3504 62.6652 75.3504 62.6652C76.3949 60.7427 77.6815 60.0616 79.6953 59.5014C81.0169 59.1346 82.5683 58.4036 83.4754 57.9469L85.835 55.5874C84.226 56.6991 81.4206 58.43 78.4858 59.2681C74.6747 60.3571 71.5868 60.2577 70.7127 60.2017C69.8378 60.2592 66.7507 60.3571 62.9395 59.268C60.0052 58.4296 57.1994 56.699 55.5911 55.5873L57.9488 57.9449C58.8559 58.4023 60.4054 59.1322 61.7293 59.4998C63.7423 60.0601 65.0289 60.7412 66.0734 62.6637C66.0734 62.6637 66.8758 60.4085 69.6156 61.1499C69.6156 61.1499 68.4253 62.7308 69.8485 64.897C68.6019 65.0803 67.4478 65.6613 66.5581 66.5535L67.1018 67.0972C68.0598 66.1403 69.3586 65.6029 70.7126 65.6032C72.0667 65.6035 73.3652 66.1414 74.3228 67.0988V67.0988Z" fill="white"/>
<path d="M74.3229 67.0989C73.365 66.141 72.0658 65.6029 70.7112 65.6028C69.3566 65.6028 68.0574 66.1409 67.0996 67.0988L70.7112 70.7105L74.3229 67.0989Z" fill="#6BB0B1"/>
<path d="M69.6133 61.1514C66.8751 60.4085 66.0711 62.6652 66.0711 62.6652C65.0266 60.7427 63.74 60.0616 61.727 59.5013C60.405 59.1349 58.854 58.4035 57.9465 57.9465L66.5543 66.5543C67.444 65.662 68.5981 65.081 69.8447 64.8977C68.4222 62.7331 69.6133 61.1514 69.6133 61.1514Z" fill="#0067BE"/>
<path d="M86.0226 39.6716C83.8169 37.6892 79.5127 37.2238 76.0522 39.3404C76.2624 38.5354 76.2869 37.6932 76.124 36.8773C75.961 36.0615 75.6149 35.2933 75.1117 34.6308C74.6084 33.9683 73.9613 33.4287 73.219 33.0529C72.4768 32.6771 71.6588 32.4748 70.827 32.4613L70.7111 32.459L70.5941 32.4609C69.762 32.4745 68.9439 32.677 68.2015 33.0531C67.4591 33.4291 66.8119 33.969 66.3087 34.6318C65.8055 35.2947 65.4595 36.0632 65.2969 36.8793C65.1342 37.6955 65.1591 38.5379 65.3696 39.343C61.9096 37.226 57.6049 37.6918 55.3993 39.6742C52.2101 42.5402 53.4116 45.2244 53.4116 45.2244C53.9565 44.2758 55.9142 41.7125 60.2734 41.3894C64.6325 41.0663 66.8531 45.0629 66.8531 45.0629C66.8531 45.0629 67.3681 44.6085 67.8524 44.3461C68.3366 44.0836 69.2357 43.8108 69.2357 43.8108C68.4659 42.1293 67.4118 40.8511 66.215 39.9244C66.5385 39.5341 67.2538 38.9447 68.5699 39.0683L68.9997 39.1542C68.7816 38.8413 68.6534 38.4747 68.6291 38.094C68.6047 37.7134 68.6852 37.3334 68.8616 36.9952C69.0381 36.6571 69.3038 36.3738 69.63 36.176C69.9562 35.9783 70.3303 35.8738 70.7117 35.8737C71.0931 35.8737 71.4673 35.9782 71.7935 36.1758C72.1197 36.3735 72.3855 36.6567 72.562 36.9948C72.7386 37.3329 72.8191 37.7129 72.7948 38.0936C72.7706 38.4742 72.6425 38.8409 72.4245 39.1539L72.8542 39.0679C74.1708 38.9448 74.8857 39.5338 75.2092 39.9248C74.0119 40.8511 72.9582 42.1297 72.1881 43.8108C72.1881 43.8108 73.0864 44.0836 73.5695 44.348C74.0526 44.6124 74.5684 45.0644 74.5684 45.0644C74.5684 45.0644 76.7886 41.0683 81.1481 41.391C85.5076 41.7137 87.4654 44.2771 88.0107 45.226C88.0107 45.2222 89.2106 42.5395 86.0226 39.6716Z" fill="#6BB0B1"/>
<path d="M79.3016 47.5483C77.7034 45.4128 75.0077 46.0817 73.954 47.0817C73.9221 47.1135 73.8918 47.1438 73.8615 47.1695C73.8669 47.1173 73.924 46.5813 73.9958 46.2793C74.0495 46.0657 74.1203 45.8568 74.2076 45.6546C74.2076 45.6546 73.0875 44.5345 71.8066 44.4815C71.397 45.121 71.0308 45.7872 70.7103 46.4757C70.3899 45.7872 70.0236 45.121 69.614 44.4815C68.3335 44.5341 67.213 45.6545 67.213 45.6545C67.3001 45.8566 67.3709 46.0652 67.4248 46.2785C67.4966 46.5805 67.5538 47.1165 67.5592 47.1695L67.4663 47.0812C66.413 46.0809 63.7192 45.4139 62.1187 47.5478C60.5182 49.6817 62.3992 51.4553 62.3992 51.4553C62.466 50.615 64.1325 48.7612 66.4932 50.2685C68.8539 51.7758 69.0668 54.9757 69.0668 54.9757L70.3393 54.9757L71.0806 54.9757L72.3527 54.9761C72.3527 54.9761 72.566 51.775 74.9267 50.2685C77.2874 48.762 78.9559 50.6139 79.0203 51.455C79.0215 51.4554 80.9021 49.6822 79.3016 47.5483Z" fill="#EF9700"/>
<path d="M70.7108 60.2029C71.5865 60.2605 74.6728 60.3583 78.484 59.2693C81.4187 58.4313 84.2242 56.7003 85.8331 55.5886L105.443 35.9787C104.72 36.2492 103.498 36.6479 102.569 36.6579C101.161 36.6733 99.5436 36.6257 98.4212 38.5654C98.4212 38.5654 98.709 37.0666 97.1043 35.9161C95.4995 34.7657 93.6281 36.3087 93.4109 37.3394C93.4109 37.3394 95.1972 37.9146 95.3787 40.0032C95.5602 42.0918 94.8138 44.4337 90.5756 48.2683C90.5756 48.2683 88.5522 46.043 85.2368 47.1781C85.2368 47.1781 87.0526 49.8381 83.4191 52.6566C79.9406 55.3545 74.7956 56.7728 70.9637 56.5164C70.8801 56.5111 70.7969 56.5047 70.7143 56.4973C70.6306 56.5042 70.5478 56.5103 70.4645 56.5168C66.6314 56.7743 61.486 55.3564 58.0091 52.6569C54.3786 49.8407 56.1913 47.1784 56.1913 47.1784C52.8759 46.0425 50.8529 48.2682 50.8529 48.2682C46.6143 44.4332 45.8679 42.0921 46.049 40.003C46.2301 37.914 48.0171 37.3388 48.0171 37.3388C47.7996 36.3085 45.9281 34.7655 44.3234 35.9159C42.7186 37.0664 43.0064 38.5652 43.0064 38.5652C41.8867 36.6274 40.2685 36.6715 38.8587 36.6577C37.9286 36.6485 36.7083 36.2486 35.9854 35.9785L55.5939 55.587C57.2021 56.6986 60.0079 58.4293 62.9423 59.2677C66.7489 60.3583 69.8359 60.2604 70.7108 60.2029Z" fill="#6BB0B1"/>
<path d="M75.3504 62.6652C75.3504 62.6652 74.5484 60.4097 71.8086 61.1518C71.8086 61.1518 72.9986 62.7324 71.5757 64.8981C72.8225 65.0817 73.9766 65.663 74.8662 66.5555V66.5555L83.4751 57.9466C82.5683 58.4036 81.0181 59.1334 79.695 59.501C77.6816 60.0617 76.3949 60.7428 75.3504 62.6652Z" fill="#0067BE"/>
<path d="M57.2004 21.5301C57.6705 22.0615 57.7614 22.9414 58.6586 22.8347C59.5558 22.7281 60.4928 21.9982 61.8758 23.563C61.8758 23.563 60.2867 24.1505 59.3209 23.9629C59.3209 23.9629 60.3432 25.3689 61.8758 25.5661C63.4084 25.7633 64.4705 26.0972 65.2292 27.4022C64.7257 27.477 64.2125 27.3634 63.7875 27.0834C63.7875 27.0834 63.5128 28.4203 64.5918 29.4049C65.5024 30.2387 66.5415 31.2472 67.0615 32.4924C67.4156 32.2596 67.7917 32.0619 68.1843 31.9022C68.0822 29.8815 67.6159 25.0262 65.4866 21.1655C62.7253 16.1579 59.0933 16.4821 57.6317 17.7918C56.1701 19.1014 55.6694 21.0588 55.6694 21.0588C55.6694 21.0588 56.73 20.999 57.2004 21.5301Z" fill="#E0D3B4"/>
<path d="M55.8498 30.0426C56.0927 29.7391 56.6084 29.5572 56.9273 29.8454C56.9273 29.8454 55.8785 30.4083 55.6978 31.5599C55.6978 31.5599 57.052 31.3362 57.6345 31.8581C58.217 32.3799 59.1122 32.6374 60.1893 32.1973C61.2664 31.7572 61.7826 32.4859 61.7826 32.4859C61.7826 32.4859 60.8873 32.6221 60.6598 33.3354C60.6598 33.3354 61.5094 33.3961 61.8282 33.8661C62.1471 34.3362 62.7384 34.8983 63.634 34.9137C64.0104 34.9199 64.3729 35.0571 64.659 35.3016C64.8342 34.9152 65.0465 34.5466 65.2929 34.2011C64.8796 32.8155 63.791 30.0553 61.2077 27.6018C57.5807 24.1574 54.1821 24.5216 52.1337 26.2668C50.0854 28.0119 50.0394 30.8492 50.0394 30.8492C50.0394 30.8492 51.1929 30.0603 52.5889 31.0311C53.9849 32.002 55.6061 30.3469 55.8498 30.0426Z" fill="#E0D3B4"/>
<path d="M50.9031 41.4835C51.6161 40.7099 52.9971 41.0587 53.7404 39.8603C54.4837 38.6619 53.3762 37.2199 54.9395 36.6282C54.9395 36.6282 54.4649 37.8227 54.9603 38.5C55.4709 38.2179 56.0609 38.114 56.6371 38.2045C57.6084 38.3561 58.1697 37.4609 58.5036 36.9152C58.8374 36.3696 59.6571 36.4901 59.6571 36.4901C59.6571 36.4901 59.1256 36.8995 59.2925 37.4609C59.5104 37.344 59.7518 37.2779 59.9988 37.2674C60.2458 37.257 60.4919 37.3025 60.7188 37.4006C61.5082 37.7341 62.162 37.5691 62.6613 37.37C63.0013 37.2364 63.6766 37.7038 64.0761 38.0173C64.0761 37.805 64.0861 37.5929 64.106 37.3811C63.154 36.4567 59.8597 33.6244 54.9537 33.3331C49.08 32.9851 48.1556 37.7943 48.1863 38.9777C48.217 40.1611 48.7186 42.6665 51.5397 44.0003C51.5405 44.0026 50.1898 42.2575 50.9031 41.4835Z" fill="#E0D3B4"/>
<path d="M69.2641 7.85789C67.8834 9.54168 66.7299 11.4841 67.6559 13.4415C67.6559 13.4415 65.7898 11.3935 64.6056 12.2431C64.6056 12.2431 65.1824 12.5766 65.0611 14.367C64.9399 16.1575 65.2127 17.5539 66.5937 18.2365C67.9748 18.9192 68.5361 19.2381 68.748 19.9664C68.748 19.9664 67.7468 18.722 66.8819 19.1924C66.8819 19.1924 66.4115 20.2093 68.111 23.2442C69.4349 25.6079 69.8746 29.7384 70.0043 31.4498C70.4746 31.4023 70.9487 31.4052 71.4184 31.4586C71.5473 29.7526 71.9866 25.6118 73.3124 23.2438C75.0112 20.2097 74.5407 19.1974 74.5407 19.1974C73.6758 18.727 72.6742 19.971 72.6742 19.971C72.8868 19.2427 73.4482 18.9238 74.8293 18.2412C76.2103 17.5585 76.4827 16.1625 76.3615 14.372C76.2402 12.5816 76.817 12.2474 76.817 12.2474C75.6335 11.3978 73.7667 13.4465 73.7667 13.4465C74.6923 11.4887 73.5391 9.54666 72.1585 7.8621C71.68 7.26917 71.286 6.61276 70.9877 5.91161C70.8765 5.65452 70.7848 5.4124 70.7107 5.19482C70.6366 5.4124 70.5457 5.65452 70.4344 5.91162C70.1355 6.61102 69.7417 7.26594 69.2641 7.85789V7.85789Z" fill="#E0D3B4"/>
<path d="M73.2383 31.9348C73.6258 32.0981 73.9968 32.2982 74.3462 32.5323C74.8604 31.2691 75.9118 30.2483 76.8323 29.4061C77.9094 28.4195 77.6362 27.0841 77.6362 27.0841C77.2114 27.3642 76.6982 27.4776 76.195 27.4026C76.954 26.098 78.0161 25.7641 79.5487 25.5669C81.0813 25.3696 82.1032 23.9641 82.1032 23.9641C81.1381 24.1502 79.5487 23.5638 79.5487 23.5638C80.929 22.0009 81.8699 22.7292 82.7651 22.8355C83.6603 22.9418 83.7517 22.0615 84.2233 21.5308C84.6949 21.0002 85.7559 21.0604 85.7559 21.0604C85.7559 21.0604 85.257 19.1034 83.7935 17.7934C82.3299 16.4833 78.6999 16.1594 75.9382 21.1667C73.7959 25.0473 73.3366 29.9325 73.2383 31.9348Z" fill="#E0D3B4"/>
<path d="M76.7084 35.3488C77.0024 35.0759 77.3867 34.9208 77.7878 34.9133C78.683 34.8983 79.2751 34.3369 79.5936 33.8665C79.9121 33.396 80.7617 33.3354 80.7617 33.3354C80.5341 32.6221 79.6393 32.4855 79.6393 32.4855C79.6393 32.4855 80.155 31.7572 81.2321 32.1973C82.3093 32.6374 83.2049 32.3796 83.7874 31.8577C84.3699 31.3358 85.7236 31.5599 85.7236 31.5599C85.5418 30.4064 84.495 29.8454 84.495 29.8454C84.8135 29.5569 85.3296 29.7391 85.5721 30.0423C85.8146 30.3454 87.4385 32.0001 88.8345 31.0292C90.2305 30.0584 91.3836 30.847 91.3836 30.847C91.3836 30.847 91.3379 28.0093 89.2896 26.2641C87.2413 24.5189 83.8422 24.1552 80.2156 27.5999C77.5848 30.0987 76.5035 32.916 76.1078 34.2748C76.3415 34.613 76.5426 34.9727 76.7084 35.3488Z" fill="#E0D3B4"/>
<path d="M86.4673 33.3351C81.4316 33.6348 78.094 36.6102 77.2452 37.4521C77.2624 37.6613 77.2705 37.8711 77.2686 38.0803C77.6504 37.7714 78.3956 37.2288 78.759 37.3719C79.2613 37.5672 79.9121 37.7361 80.7014 37.4019C80.9284 37.3038 81.1746 37.2583 81.4216 37.2689C81.6686 37.2795 81.91 37.3458 82.1277 37.4629C82.2946 36.9015 81.7636 36.4917 81.7636 36.4917C81.7636 36.4917 82.5828 36.37 82.9167 36.9164C83.2505 37.4629 83.8119 38.3581 84.7827 38.2062C85.3596 38.1148 85.9504 38.2183 86.4619 38.5001C86.9573 37.8228 86.4826 36.6283 86.4826 36.6283C88.0452 37.22 86.9377 38.6613 87.6814 39.86C88.4251 41.0588 89.8053 40.71 90.5187 41.484C91.232 42.2579 89.8817 44.0027 89.8817 44.0027C92.7036 42.6674 93.2044 40.1636 93.2351 38.9801C93.2658 37.7967 92.3395 32.9863 86.4673 33.3351Z" fill="#E0D3B4"/>
<path d="M72.635 1.92438C72.1249 2.43453 71.4331 2.72129 70.7116 2.72164C69.9901 2.722 69.298 2.43594 68.7874 1.92629L35.3572 35.3565L35.9823 35.9816C36.7052 36.2517 37.9266 36.6512 38.8556 36.6608C40.2639 36.6761 41.8836 36.6305 43.0034 38.5683C43.0034 38.5683 42.7159 37.0698 44.3203 35.9191C45.9247 34.7683 47.7965 36.3116 48.0141 37.3419C48.0141 37.3419 46.2278 37.9171 46.0463 40.0065C45.8648 42.0959 46.6112 44.4363 50.8498 48.2712C50.8498 48.2712 52.8732 46.046 56.1882 47.1815C56.1882 47.1815 54.3728 49.8411 58.006 52.6599C61.4844 55.3579 66.6298 56.7758 70.4614 56.5199C70.5446 56.5133 70.6275 56.5072 70.7112 56.5003C70.7938 56.5077 70.8769 56.5141 70.9606 56.5195C74.7936 56.777 79.939 55.3591 83.416 52.6596C87.0468 49.8438 85.2337 47.1812 85.2337 47.1812C88.5494 46.0457 90.5725 48.2713 90.5725 48.2713C94.8107 44.4368 95.5574 42.0953 95.3755 40.0063C95.1936 37.9172 93.4078 37.3424 93.4078 37.3424C93.625 36.3117 95.4968 34.7692 97.1011 35.9192C98.7055 37.0692 98.4181 38.5684 98.4181 38.5684C99.5386 36.6306 101.158 36.6763 102.566 36.6609C103.496 36.6517 104.717 36.2523 105.44 35.9818L106.066 35.3555L72.635 1.92438ZM89.2892 26.2638C91.3375 28.009 91.3832 30.8467 91.3832 30.8467C91.3832 30.8467 90.2301 30.0574 88.8341 31.029C87.4381 32.0005 85.8142 30.3459 85.5721 30.0424C85.3299 29.7389 84.8131 29.5566 84.4946 29.8452C84.4946 29.8452 85.5414 30.4061 85.7232 31.5596C85.7232 31.5596 84.3691 31.3359 83.787 31.8574C83.2049 32.3789 82.3096 32.6371 81.2317 32.197C80.1538 31.7569 79.6389 32.4852 79.6389 32.4852C79.6389 32.4852 80.5337 32.6218 80.7613 33.3351C80.7613 33.3351 79.9117 33.3958 79.5932 33.8662C79.2747 34.3367 78.6826 34.898 77.7874 34.913C77.3863 34.9205 77.002 35.0756 76.708 35.3485C76.5422 34.9724 76.3411 34.6127 76.1074 34.2745C76.5031 32.9157 77.5844 30.0984 80.2152 27.5996C83.8418 24.1549 87.2409 24.5194 89.2892 26.2638ZM83.7923 17.793C85.2547 19.1019 85.7547 21.0601 85.7547 21.0601C85.7547 21.0601 84.6925 20.9995 84.2221 21.5306C83.7516 22.0616 83.6603 22.9419 82.7639 22.8352C81.8675 22.7285 80.9297 21.9987 79.5475 23.5635C79.5475 23.5635 81.1346 24.1529 82.1016 23.9634C82.1016 23.9634 81.0798 25.369 79.5475 25.5666C78.0153 25.7642 76.9528 26.0976 76.1938 27.4023C76.697 27.4773 77.2102 27.3639 77.635 27.0838C77.635 27.0838 77.9102 28.4204 76.8311 29.4058C75.9102 30.25 74.858 31.2699 74.345 32.532C73.9956 32.2979 73.6247 32.0978 73.2372 31.9345C73.3358 29.9326 73.7947 25.0478 75.9359 21.166C78.6979 16.1584 82.3299 16.4826 83.7915 17.7923L83.7923 17.793ZM70.9873 5.909C71.2855 6.61015 71.6795 7.26655 72.1581 7.85949C73.5372 9.54558 74.6918 11.4861 73.7663 13.4439C73.7663 13.4439 75.6323 11.3959 76.8165 12.2447C76.8165 12.2447 76.2398 12.5789 76.361 14.3694C76.4823 16.1599 76.2095 17.5555 74.8284 18.2389C73.4474 18.9223 72.8864 19.2401 72.6738 19.9684C72.6738 19.9684 73.6754 18.7243 74.5403 19.1948C74.5403 19.1948 75.0103 20.2113 73.3112 23.2458C71.9854 25.6138 71.5461 29.7546 71.4172 31.4606C70.9475 31.4072 70.4734 31.4042 70.0031 31.4518C69.873 29.74 69.4337 25.6099 68.1098 23.2462C66.4103 20.2113 66.8807 19.1944 66.8807 19.1944C67.7456 18.7239 68.7471 19.9687 68.7471 19.9687C68.5346 19.2397 67.9732 18.9216 66.5925 18.2385C65.2119 17.5555 64.9383 16.1599 65.0599 14.369C65.1815 12.5782 64.6044 12.2451 64.6044 12.2451C65.7882 11.3951 67.6547 13.4435 67.6547 13.4435C66.7287 11.4861 67.8822 9.54364 69.2628 7.85985C69.7411 7.26653 70.1352 6.61006 70.434 5.909C70.5453 5.65191 70.6362 5.40976 70.7102 5.19219C70.7847 5.40861 70.876 5.65037 70.9873 5.90747L70.9873 5.909ZM55.6694 21.0589C55.6694 21.0589 56.1682 19.1019 57.6317 17.7918C59.0953 16.4818 62.7249 16.1575 65.4866 21.1648C67.6163 25.0266 68.0822 29.8808 68.1839 31.9019C67.7913 32.0616 67.4152 32.2592 67.0611 32.492C66.5411 31.2468 65.502 30.2384 64.5914 29.4046C63.5139 28.4184 63.7871 27.083 63.7871 27.083C64.2121 27.3631 64.7254 27.4766 65.2288 27.4019C64.4701 26.0969 63.408 25.763 61.8754 25.5658C60.3428 25.3685 59.3205 23.9625 59.3205 23.9625C60.2852 24.149 61.8754 23.5627 61.8754 23.5627C60.4943 21.9998 59.5535 22.7281 58.6582 22.8344C57.763 22.9407 57.672 22.0608 57.2001 21.5297C56.7281 20.9986 55.6674 21.0593 55.6674 21.0593L55.6694 21.0589ZM52.5904 31.0266C51.1944 30.0557 50.0413 30.8443 50.0413 30.8443C50.0413 30.8443 50.0865 28.007 52.1356 26.2618C54.1847 24.5166 57.5826 24.1525 61.2096 27.5968C63.7929 30.0504 64.8815 32.8105 65.2952 34.1966C65.0489 34.5426 64.837 34.9118 64.6624 35.299C64.3761 35.0544 64.0136 34.9171 63.6371 34.9107C62.7419 34.8957 62.1502 34.3339 61.832 33.8639C61.5139 33.3938 60.6632 33.3328 60.6632 33.3328C60.8908 32.6194 61.7864 32.4828 61.7864 32.4828C61.7864 32.4828 61.2703 31.7549 60.1931 32.1943C59.116 32.6336 58.2208 32.3761 57.6383 31.855C57.0558 31.3339 55.7016 31.5569 55.7016 31.5569C55.8839 30.4038 56.9307 29.842 56.9307 29.842C56.6122 29.5542 56.0965 29.7361 55.8536 30.0396C55.6107 30.3431 53.9844 32.0016 52.5869 31.0285L52.5904 31.0266ZM48.1902 38.9777C48.1587 37.7951 49.0854 32.9843 54.9576 33.3331C59.8635 33.6244 63.1578 36.4567 64.1098 37.3811C64.0894 37.5924 64.0794 37.8045 64.0799 38.0173C63.6812 37.7031 63.0059 37.2357 62.6651 37.37C62.1624 37.5657 61.512 37.7341 60.7227 37.4007C60.4958 37.3025 60.2496 37.257 60.0026 37.2674C59.7557 37.2779 59.5142 37.344 59.2964 37.4609C59.1299 36.8999 59.6605 36.4897 59.6605 36.4897C59.6605 36.4897 58.8413 36.3688 58.5074 36.9152C58.1736 37.4617 57.6122 38.3561 56.641 38.2046C56.0647 38.114 55.4747 38.2179 54.9641 38.5C54.4687 37.8227 54.9434 36.6282 54.9434 36.6282C53.3801 37.2199 54.4879 38.6616 53.7443 39.8603C53.0006 41.0591 51.6199 40.7099 50.907 41.4835C50.194 42.2571 51.5444 44.0027 51.5444 44.0027C48.7174 42.6669 48.217 40.1635 48.1867 38.9797L48.1902 38.9777ZM79.025 51.4536C78.9582 50.6132 77.2913 48.7598 74.931 50.2667C72.5707 51.7736 72.357 54.9742 72.357 54.9742L71.0849 54.9738L70.3436 54.9738L69.0711 54.9738C69.0711 54.9738 68.8577 51.7736 66.4974 50.2667C64.1371 48.7598 62.4683 50.612 62.4035 51.4535C62.4035 51.4535 60.5228 49.6795 62.1229 47.546C63.7231 45.4125 66.4172 46.079 67.4706 47.0794L67.5634 47.1677C67.558 47.1147 67.5009 46.5787 67.4291 46.2767C67.3752 46.0633 67.3045 45.8546 67.2177 45.6523C67.2177 45.6523 68.3378 44.5322 69.6183 44.4797C70.0279 45.1192 70.3941 45.7854 70.7146 46.4739C71.0351 45.7854 71.4014 45.1192 71.8109 44.4797C73.0918 44.5326 74.2119 45.6527 74.2119 45.6527C74.1246 45.855 74.0538 46.0639 74 46.2774C73.9404 46.5718 73.8956 46.8689 73.8657 47.1677C73.8938 47.1397 73.9241 47.1094 73.9582 47.0798C75.0119 46.0798 77.7057 45.4129 79.3059 47.5465C80.906 49.68 79.0215 51.4555 79.0215 51.4555L79.025 51.4536ZM81.1493 41.3853C76.7901 41.063 74.5695 45.0587 74.5695 45.0587C74.5695 45.0587 74.0549 44.6048 73.5706 44.3423C73.0864 44.0798 72.1892 43.8051 72.1892 43.8051C72.9594 42.124 74.0131 40.8454 75.2099 39.9187C74.8868 39.5281 74.1719 38.9391 72.8554 39.0622L72.4256 39.1482C72.6434 38.8353 72.7713 38.4687 72.7955 38.0882C72.8196 37.7077 72.739 37.3279 72.5625 36.99C72.386 36.6521 72.1203 36.369 71.7942 36.1714C71.4681 35.9739 71.0941 35.8695 70.7129 35.8695C70.3316 35.8696 69.9576 35.9741 69.6316 36.1717C69.3056 36.3693 69.0399 36.6524 68.8634 36.9904C68.687 37.3283 68.6065 37.7082 68.6307 38.0887C68.655 38.4691 68.783 38.8357 69.0008 39.1486L68.5711 39.0626C67.2549 38.939 66.5396 39.5284 66.2161 39.9187C67.4134 40.8458 68.4675 42.124 69.2368 43.8051C69.2368 43.8051 68.3389 44.0775 67.8535 44.3404C67.3681 44.6032 66.8543 45.0572 66.8543 45.0572C66.8543 45.0572 64.6344 41.0607 60.2749 41.3841C55.9154 41.7076 53.9576 44.2701 53.4127 45.2187C53.4127 45.2187 52.2113 42.5345 55.4004 39.6685C57.6065 37.6858 61.9107 37.2203 65.3708 39.3374C65.1605 38.5324 65.1359 37.6902 65.2987 36.8744C65.4616 36.0586 65.8076 35.2904 66.3108 34.6278C66.814 33.9653 67.4611 33.4258 68.2033 33.0499C68.9455 32.6741 69.7634 32.4718 70.5952 32.4583C70.6344 32.4568 70.6719 32.4583 70.7122 32.4556L70.8281 32.4579C71.66 32.4714 72.4779 32.6737 73.2202 33.0495C73.9624 33.4253 74.6096 33.9649 75.1128 34.6274C75.616 35.2899 75.9622 36.0581 76.1251 36.8739C76.2881 37.6898 76.2635 38.532 76.0534 39.337C79.5138 37.2204 83.8181 37.6858 86.0237 39.6682C89.2129 42.535 88.0114 45.2184 88.0114 45.2184C87.465 44.2729 85.5076 41.71 81.1493 41.3853ZM93.2363 38.9782C93.2048 40.1609 92.7036 42.6666 89.8829 44.0008C89.8829 44.0008 91.2332 42.256 90.5199 41.4821C89.8065 40.7081 88.4224 41.0607 87.6814 39.8593C86.9405 38.6578 88.0456 37.2188 86.483 36.6271C86.483 36.6271 86.9573 37.8213 86.4623 38.499C85.9509 38.2172 85.3602 38.1139 84.7835 38.2054C83.8123 38.357 83.2509 37.4617 82.9171 36.9153C82.5832 36.3689 81.764 36.4905 81.764 36.4905C81.764 36.4905 82.295 36.9003 82.1281 37.4617C81.9104 37.3446 81.669 37.2783 81.422 37.2678C81.175 37.2572 80.9288 37.3026 80.7018 37.4007C79.9129 37.7346 79.2586 37.5692 78.7594 37.3708C78.396 37.2276 77.6512 37.7698 77.269 38.0791C77.2709 37.87 77.2629 37.6601 77.2456 37.451C78.0932 36.6102 81.432 33.6337 86.4677 33.334C92.3391 32.986 93.2646 37.7964 93.2347 38.9798L93.2363 38.9782Z" fill="white"/>
<path d="M72.635 1.92438L70.7122 0.00152588L68.7874 1.92629C69.298 2.43594 69.9901 2.722 70.7116 2.72164C71.4331 2.72129 72.1249 2.43453 72.635 1.92438V1.92438Z" fill="#0067BE"/>
<path d="M74.3228 67.0988L74.8662 66.5555C75.7585 67.4452 76.3398 68.5993 76.5235 69.8459C78.6889 68.4227 80.2698 69.613 80.2698 69.613C81.0131 66.8744 78.756 66.0708 78.756 66.0708C80.6785 65.0263 81.3596 63.7397 81.9202 61.7263C82.2867 60.4044 83.018 58.8533 83.4747 57.9462L85.8342 55.5867C84.7222 57.1952 82.9916 60.0011 82.1531 62.9354C81.0641 66.7466 81.1635 69.8344 81.2195 70.7086C81.1624 71.5839 81.0641 74.6705 82.1532 78.4817C82.992 81.4165 84.7222 84.2219 85.8343 85.8305L83.4786 83.4748C83.0216 82.568 82.2913 81.0182 81.9241 79.6947C81.3638 77.6817 80.6823 76.3946 78.7599 75.3501C78.7599 75.3501 81.0154 74.5481 80.274 71.8083C80.274 71.8083 78.6931 72.9986 76.527 71.5754C76.3435 72.8219 75.7623 73.9759 74.87 74.8655L74.3267 74.3221C74.8007 73.8476 75.1766 73.2843 75.433 72.6645C75.6893 72.0447 75.8211 71.3804 75.8207 70.7097C75.8204 70.0389 75.6879 69.3748 75.4309 68.7553C75.1739 68.1357 74.7973 67.5729 74.3228 67.0988V67.0988Z" fill="white"/>
<path d="M74.3229 67.0989C75.2807 68.0567 75.8189 69.3559 75.8188 70.7105C75.8188 72.0651 75.2807 73.3642 74.3228 74.3221L70.7112 70.7105L74.3229 67.0989Z" fill="#6BB0B1"/>
<path d="M80.2702 71.8083C81.0131 74.5466 78.756 75.3501 78.756 75.3501C80.6785 76.3946 81.36 77.6816 81.9202 79.6947C82.2867 81.0166 83.0181 82.5676 83.4747 83.4748L74.8658 74.8658C75.7581 73.9763 76.3393 72.8223 76.5227 71.5758C78.6885 72.9994 80.2702 71.8083 80.2702 71.8083Z" fill="#0067BE"/>
<path d="M101.75 55.3991C103.732 57.6048 104.198 61.909 102.081 65.3691C102.886 65.159 103.728 65.1345 104.544 65.2974C105.36 65.4604 106.128 65.8066 106.791 66.3098C107.453 66.8131 107.993 67.4603 108.369 68.2026C108.744 68.9448 108.947 69.7628 108.96 70.5947C108.961 70.6331 108.96 70.6714 108.962 70.7102C108.964 70.7489 108.962 70.7869 108.96 70.8272C108.947 71.6593 108.745 72.4775 108.369 73.22C107.993 73.9624 107.453 74.6098 106.791 75.1132C106.128 75.6165 105.36 75.9627 104.543 76.1255C103.727 76.2884 102.885 76.2636 102.08 76.0532C104.197 79.5132 103.731 83.8179 101.749 86.0235C98.8825 89.2127 96.1984 88.0112 96.1984 88.0112C97.1469 87.4663 99.7102 85.5086 100.033 81.1491C100.356 76.7895 96.3595 74.5693 96.3595 74.5693C96.3595 74.5693 96.8142 74.0547 97.0763 73.5701C97.3384 73.0854 97.6135 72.1887 97.6135 72.1887C99.295 72.9584 100.573 74.0125 101.5 75.2094C101.89 74.8859 102.48 74.1706 102.356 72.8544L102.27 72.4247C102.583 72.6427 102.95 72.7707 103.33 72.795C103.711 72.8192 104.091 72.7387 104.429 72.5622C104.767 72.3857 105.05 72.1199 105.248 71.7938C105.446 71.4676 105.55 71.0935 105.55 70.7121C105.55 70.3307 105.446 69.9566 105.248 69.6305C105.05 69.3043 104.767 69.0385 104.429 68.862C104.091 68.6855 103.711 68.605 103.33 68.6292C102.95 68.6535 102.583 68.7815 102.27 68.9995L102.356 68.5701C102.48 67.2536 101.89 66.5383 101.5 66.2152C100.573 67.412 99.2946 68.4661 97.6132 69.2359C97.6132 69.2359 97.3407 68.338 97.0759 67.8545C96.8112 67.371 96.3591 66.8552 96.3591 66.8552C96.3591 66.8552 100.356 64.6354 100.033 60.2755C99.7094 55.9156 97.1481 53.9559 96.1987 53.4103C96.1987 53.4103 98.8821 52.2111 101.75 55.3991Z" fill="#6BB0B1"/>
<path d="M93.873 62.1197C96.0088 63.7183 95.34 66.414 94.34 67.4677C94.3081 67.4995 94.2778 67.5298 94.2521 67.5602C94.3043 67.5548 94.8403 67.4976 95.1423 67.4259C95.3558 67.3719 95.5647 67.301 95.7671 67.2141C95.7671 67.2141 96.8871 68.3341 96.9397 69.6146C96.3002 70.0242 95.634 70.3905 94.9455 70.711C95.634 71.0315 96.3002 71.3977 96.9397 71.8073C96.8872 73.0878 95.7667 74.2082 95.7667 74.2082C95.5646 74.121 95.3558 74.05 95.1424 73.996C94.8404 73.9243 94.3047 73.8675 94.2517 73.8621L94.34 73.955C95.34 75.0079 96.0069 77.7017 93.873 79.3022C91.7391 80.9027 89.9659 79.0221 89.9659 79.0221C90.8063 78.9553 92.6597 77.2884 91.1528 74.9281C89.6459 72.5678 86.4456 72.3544 86.4456 72.3544L86.4456 71.082L86.4456 70.3406L86.4452 69.0686C86.4452 69.0686 89.6459 68.8549 91.1527 66.4946C92.6596 64.1343 90.8074 62.4654 89.9659 62.4006C89.9659 62.3998 91.7394 60.5195 93.873 62.1197Z" fill="#EF9700"/>
<path d="M81.2184 70.7105C81.1613 69.8352 81.063 66.7485 82.152 62.9374C82.9905 60.003 84.7211 57.1972 85.8331 55.5886L105.443 35.9787C105.172 36.702 104.773 37.9231 104.763 38.8524C104.749 40.2603 104.796 41.8781 102.856 43.0005C102.856 43.0005 104.355 42.7127 105.505 44.3171C106.655 45.9214 105.113 47.7933 104.082 48.0108C104.082 48.0108 103.507 46.2246 101.418 46.0427C99.3291 45.8608 96.988 46.6079 93.1535 50.8462C93.1535 50.8462 95.3787 52.8696 94.2432 56.1846C94.2432 56.1846 91.5836 54.3692 88.7648 58.0023C86.0668 61.4808 84.649 66.6261 84.9049 70.4576C84.9108 70.5418 84.9173 70.6251 84.9245 70.7074C84.9176 70.7911 84.9114 70.874 84.9049 70.9572C84.6474 74.7903 86.0653 79.9357 88.7648 83.4126C91.581 87.0431 94.2433 85.2304 94.2433 85.2304C95.3791 88.5458 93.1535 90.5688 93.1535 90.5688C96.9881 94.807 99.3296 95.5538 101.418 95.3723C103.507 95.1908 104.083 93.4045 104.083 93.4045C105.113 93.6221 106.656 95.4935 105.505 97.0979C104.355 98.7022 102.856 98.4152 102.856 98.4152C104.794 99.5349 104.75 101.153 104.764 102.563C104.773 103.493 105.173 104.713 105.443 105.436L85.8347 85.8278C84.7227 84.2192 82.9924 81.4138 82.1536 78.4791C81.0631 74.6725 81.1613 71.5858 81.2184 70.7105Z" fill="#6BB0B1"/>
<path d="M78.756 66.0708C78.756 66.0708 81.0119 66.8732 80.2698 69.613C80.2698 69.613 78.6889 68.4227 76.5235 69.8459C76.3399 68.5992 75.7586 67.4452 74.8662 66.5555L83.4751 57.9466C83.0181 58.8533 82.2878 60.4032 81.9206 61.7267C81.3596 63.7397 80.6785 65.0263 78.756 66.0708Z" fill="#0067BE"/>
<path d="M119.892 84.2212C119.362 83.753 118.48 83.6601 118.587 82.763C118.694 81.8658 119.421 80.9269 117.859 79.5458C117.859 79.5458 117.271 81.1349 117.458 82.1003C117.458 82.1003 116.053 81.0784 115.856 79.5459C115.658 78.0133 115.324 76.9511 114.019 76.1925C113.944 76.6961 114.057 77.2099 114.337 77.6353C114.337 77.6353 113 77.91 112.016 76.831C111.181 75.92 110.173 74.8813 108.928 74.3613C109.161 74.007 109.358 73.631 109.518 73.2385C111.539 73.3406 116.394 73.8069 120.253 75.9342C125.261 78.6955 124.936 82.3275 123.627 83.7891C122.317 85.2507 120.36 85.7514 120.36 85.7514C120.36 85.7514 120.423 84.6916 119.892 84.2212Z" fill="#E0D3B4"/>
<path d="M111.379 85.572C111.683 85.3291 111.864 84.8133 111.576 84.4945C111.576 84.4945 111.013 85.5432 109.861 85.7235C109.861 85.7235 110.085 84.3697 109.564 83.7872C109.042 83.2047 108.784 82.3095 109.224 81.232C109.664 80.1545 108.936 79.6391 108.936 79.6391C108.936 79.6391 108.799 80.534 108.086 80.7619C108.086 80.7619 108.025 79.912 107.555 79.5931C107.085 79.2742 106.523 78.6833 106.508 77.7877C106.502 77.4113 106.365 77.0488 106.12 76.7627C106.507 76.5882 106.876 76.3763 107.222 76.13C108.608 76.5432 111.369 77.6323 113.822 80.2155C117.266 83.8422 116.902 87.2412 115.157 89.2895C113.412 91.3379 110.574 91.3835 110.574 91.3835C110.574 91.3835 111.364 90.2304 110.393 88.8344C109.422 87.4384 111.075 85.8156 111.379 85.572Z" fill="#E0D3B4"/>
<path d="M99.9379 90.5182C100.712 89.8056 100.363 88.4242 101.561 87.6813C102.76 86.9384 104.201 88.0451 104.794 86.4822C104.794 86.4822 103.599 86.9568 102.922 86.4614C103.204 85.9501 103.307 85.3593 103.215 84.7826C103.064 83.8114 103.959 83.25 104.505 82.9166C105.051 82.5831 104.93 81.7631 104.93 81.7631C104.93 81.7631 104.52 82.2941 103.959 82.1272C104.076 81.9095 104.142 81.6681 104.153 81.4212C104.163 81.1743 104.118 80.9281 104.02 80.7013C103.686 79.912 103.851 79.2581 104.05 78.7589C104.184 78.4189 103.716 77.7435 103.403 77.3441C103.615 77.3443 103.828 77.3343 104.039 77.3141C104.963 78.2662 107.795 81.5601 108.087 86.4664C108.435 92.3398 103.626 93.2645 102.442 93.2338C101.259 93.2031 98.7537 92.7016 97.4198 89.8804C97.4191 89.8812 99.1639 91.2315 99.9379 90.5182Z" fill="#E0D3B4"/>
<path d="M133.564 72.1577C131.878 73.5364 129.937 74.6915 127.98 73.7659C127.98 73.7659 130.028 75.632 129.179 76.8161C129.179 76.8161 128.845 76.239 127.055 76.3607C125.265 76.4823 123.868 76.2091 123.185 74.828C122.502 73.447 122.184 72.8856 121.455 72.6734C121.455 72.6734 122.699 73.6746 122.229 74.5399C122.229 74.5399 121.212 75.0103 118.177 73.3108C115.816 71.9888 111.683 71.5471 109.972 71.4174C110.019 70.9471 110.016 70.4731 109.963 70.0034C111.669 69.8745 115.81 69.4351 118.177 68.109C121.212 66.4095 122.229 66.8803 122.229 66.8803C122.699 67.7452 121.455 68.7467 121.455 68.7467C122.184 68.5342 122.502 67.9724 123.185 66.5917C123.868 65.2111 125.264 64.9382 127.054 65.0595C128.845 65.1808 129.179 64.604 129.179 64.604C130.028 65.7874 127.98 67.6543 127.98 67.6543C129.937 66.7284 131.88 67.8818 133.564 69.2625C134.157 69.741 134.813 70.135 135.515 70.4333C135.772 70.5445 136.013 70.6359 136.231 70.7103C136.013 70.784 135.772 70.8753 135.515 70.9866C134.813 71.2849 134.157 71.679 133.564 72.1577V72.1577Z" fill="#E0D3B4"/>
<path d="M109.487 68.1837C109.324 67.7962 109.124 67.4252 108.89 67.0759C110.153 66.5613 111.173 65.5099 112.016 64.5897C113.002 63.5122 114.338 63.7854 114.338 63.7854C114.058 64.2103 113.944 64.7235 114.019 65.2267C115.324 64.4681 115.658 63.4059 115.855 61.8733C116.052 60.3407 117.458 59.3189 117.458 59.3189C117.272 60.2836 117.858 61.8733 117.858 61.8733C119.421 60.4927 118.692 59.5518 118.586 58.6566C118.48 57.7613 119.361 57.6704 119.891 57.1984C120.421 56.7264 120.361 55.6658 120.361 55.6658C120.361 55.6658 122.318 56.1647 123.628 57.6282C124.938 59.0917 125.262 62.7218 120.255 65.4834C116.374 67.6254 111.489 68.0851 109.487 68.1837Z" fill="#E0D3B4"/>
<path d="M106.073 64.7132C106.346 64.4192 106.501 64.0347 106.508 63.6334C106.523 62.7386 107.085 62.1465 107.555 61.828C108.026 61.5095 108.086 60.6595 108.086 60.6595C108.799 60.8871 108.936 61.7823 108.936 61.7823C108.936 61.7823 109.664 61.2666 109.224 60.1895C108.784 59.1124 109.042 58.2171 109.564 57.6346C110.086 57.0521 109.862 55.698 109.862 55.698C111.015 55.8798 111.577 56.927 111.577 56.927C111.865 56.6082 111.683 56.0924 111.379 55.8495C111.076 55.6066 109.422 53.9835 110.393 52.5875C111.364 51.1915 110.575 50.0384 110.575 50.0384C110.575 50.0384 113.412 50.0837 115.158 52.1324C116.903 54.1811 117.267 57.5798 113.823 61.2067C111.324 63.8376 108.506 64.9189 107.147 65.3141C106.809 65.0803 106.449 64.8791 106.073 64.7132V64.7132Z" fill="#E0D3B4"/>
<path d="M108.086 54.9535C107.786 59.9896 104.811 63.3268 103.969 64.176C103.76 64.1584 103.55 64.1506 103.341 64.1526C103.648 63.7689 104.192 63.0256 104.049 62.6622C103.854 62.1595 103.685 61.5091 104.019 60.7198C104.117 60.4928 104.163 60.2466 104.152 59.9997C104.142 59.7527 104.075 59.5112 103.958 59.2935C104.52 59.1266 104.93 59.6576 104.93 59.6576C104.93 59.6576 105.051 58.838 104.505 58.5045C103.959 58.1711 103.063 57.6093 103.215 56.6381C103.306 56.0614 103.203 55.4707 102.921 54.9593C103.598 54.4639 104.793 54.9386 104.793 54.9386C104.201 53.3756 102.76 54.4831 101.561 53.7398C100.363 52.9965 100.711 51.6155 99.9372 50.9025C99.1636 50.1895 97.4185 51.5395 97.4185 51.5395C98.7534 48.7172 101.257 48.2164 102.441 48.1861C103.625 48.1558 108.433 49.0802 108.086 54.9535Z" fill="#E0D3B4"/>
<path d="M106.066 35.3555L105.443 35.9787C105.172 36.702 104.773 37.923 104.764 38.8528C104.748 40.2603 104.796 41.8781 102.856 43.0005C102.856 43.0005 104.355 42.7123 105.505 44.3171C106.656 45.9218 105.113 47.7933 104.082 48.0108C104.082 48.0108 103.507 46.2246 101.418 46.0427C99.3291 45.8608 96.988 46.6079 93.1535 50.8462C93.1535 50.8462 95.3787 52.8696 94.2432 56.1846C94.2432 56.1846 91.5836 54.3692 88.7648 58.0023C86.0668 61.4808 84.649 66.6261 84.9049 70.4577C84.9108 70.5418 84.9172 70.625 84.9241 70.7071C84.9172 70.7907 84.9111 70.8736 84.9045 70.9569C84.6471 74.7899 86.0649 79.9353 88.7645 83.4123C91.5806 87.0427 94.2429 85.23 94.2429 85.23C95.3788 88.5454 93.1532 90.5684 93.1532 90.5684C96.9877 94.8067 99.3292 95.5534 101.418 95.3719C103.506 95.1904 104.082 93.4041 104.082 93.4041C105.113 93.6217 106.656 95.4931 105.505 97.0975C104.354 98.7019 102.856 98.4149 102.856 98.4149C104.794 99.5346 104.75 101.153 104.763 102.562C104.772 103.492 105.173 104.713 105.443 105.436L106.068 106.061L139.495 72.6339C138.985 72.1234 138.698 71.431 138.698 70.7091C138.698 69.9872 138.985 69.2948 139.495 68.7843L106.066 35.3555ZM113.822 61.2061C111.323 63.8369 108.506 64.9182 107.146 65.3135C106.808 65.0799 106.449 64.879 106.073 64.7133C106.346 64.4193 106.501 64.0348 106.508 63.6335C106.523 62.7386 107.085 62.1466 107.555 61.8281C108.026 61.5096 108.086 60.6596 108.086 60.6596C108.799 60.8872 108.936 61.7824 108.936 61.7824C108.936 61.7824 109.664 61.2663 109.224 60.1896C108.785 59.1128 109.042 58.2172 109.564 57.6343C110.085 57.0514 109.862 55.698 109.862 55.698C111.015 55.8799 111.577 56.9271 111.577 56.9271C111.865 56.6086 111.683 56.0925 111.379 55.8496C111.076 55.6067 109.422 53.9835 110.393 52.5876C111.364 51.1916 110.575 50.0385 110.575 50.0385C110.575 50.0385 113.413 50.0841 115.158 52.1325C116.903 54.1808 117.266 57.5791 113.822 61.2061ZM120.256 65.485C116.374 67.6254 111.489 68.0851 109.487 68.1837C109.324 67.7962 109.124 67.4253 108.89 67.0759C110.153 66.5617 111.173 65.5099 112.016 64.5898C113.003 63.5119 114.337 63.7855 114.337 63.7855C114.058 64.2104 113.944 64.7235 114.019 65.2267C115.324 64.4681 115.658 63.406 115.855 61.8734C116.052 60.3408 117.458 59.3189 117.458 59.3189C117.271 60.2836 117.858 61.8734 117.858 61.8734C119.421 60.4927 118.692 59.5518 118.586 58.6566C118.48 57.7613 119.36 57.6704 119.891 57.1984C120.421 56.7264 120.361 55.6658 120.361 55.6658C120.361 55.6658 122.318 56.1647 123.628 57.6282C124.938 59.0918 125.263 62.7233 120.256 65.485V65.485ZM136.231 70.711C136.013 70.7847 135.771 70.876 135.514 70.9873C134.813 71.2857 134.157 71.6795 133.564 72.1576C131.88 73.5383 129.937 74.6914 127.98 73.7658C127.98 73.7658 130.028 75.6319 129.179 76.8161C129.179 76.8161 128.845 76.2393 127.055 76.3606C125.264 76.4819 123.868 76.209 123.185 74.828C122.502 73.447 122.184 72.8856 121.455 72.6734C121.455 72.6734 122.699 73.6745 122.229 74.5398C122.229 74.5398 121.212 75.0102 118.177 73.3107C115.816 71.9888 111.683 71.5471 109.972 71.4174C110.019 70.9471 110.016 70.4731 109.963 70.0034C111.669 69.8744 115.81 69.4351 118.177 68.1089C121.212 66.4098 122.229 66.8802 122.229 66.8802C122.699 67.7452 121.455 68.7467 121.455 68.7467C122.184 68.5341 122.502 67.9723 123.185 66.5921C123.867 65.2118 125.264 64.9382 127.054 65.0595C128.845 65.1807 129.179 64.604 129.179 64.604C130.028 65.7874 127.98 67.6542 127.98 67.6542C129.937 66.7283 131.88 67.8818 133.564 69.2624C134.157 69.741 134.813 70.135 135.515 70.4332C135.771 70.5452 136.013 70.6366 136.231 70.711ZM119.892 84.2212C119.362 83.7531 118.48 83.6602 118.587 82.7631C118.694 81.8659 119.422 80.9269 117.859 79.5459C117.859 79.5459 117.271 81.1349 117.458 82.1004C117.458 82.1004 116.053 81.0785 115.856 79.5459C115.658 78.0133 115.324 76.9511 114.019 76.1925C113.944 76.6962 114.057 77.2099 114.337 77.6353C114.337 77.6353 113 77.9101 112.016 76.831C111.181 75.92 110.173 74.8813 108.928 74.3613C109.161 74.007 109.358 73.631 109.518 73.2386C111.539 73.3406 116.394 73.8069 120.253 75.9339C125.261 78.6956 124.936 82.3275 123.627 83.7891C122.317 85.2508 120.36 85.7515 120.36 85.7515C120.36 85.7515 120.423 84.6917 119.892 84.2212V84.2212ZM111.379 85.5719C111.683 85.329 111.864 84.8133 111.576 84.4944C111.576 84.4944 111.013 85.5431 109.861 85.7235C109.861 85.7235 110.085 84.3697 109.564 83.7872C109.042 83.2047 108.784 82.3095 109.224 81.2324C109.664 80.1552 108.936 79.6391 108.936 79.6391C108.936 79.6391 108.799 80.5344 108.086 80.7623C108.086 80.7623 108.025 79.9123 107.555 79.5935C107.085 79.2746 106.523 78.6836 106.508 77.788C106.501 77.4115 106.364 77.0489 106.119 76.7627C106.507 76.5885 106.876 76.3767 107.222 76.1303C108.608 76.5436 111.368 77.6326 113.822 80.2159C117.266 83.8425 116.902 87.2411 115.157 89.2899C113.412 91.3386 110.574 91.3838 110.574 91.3838C110.574 91.3838 111.363 90.2311 110.392 88.8347C109.42 87.4384 111.075 85.8156 111.379 85.5719V85.5719ZM97.419 89.8811C97.419 89.8811 99.1638 91.2315 99.9382 90.5185C100.713 89.8056 100.363 88.4245 101.561 87.6813C102.76 86.938 104.201 88.045 104.793 86.4821C104.793 86.4821 103.599 86.9568 102.922 86.4614C103.204 85.95 103.307 85.3592 103.215 84.7826C103.064 83.8114 103.959 83.25 104.505 82.9165C105.051 82.5831 104.93 81.763 104.93 81.763C104.93 81.763 104.52 82.2941 103.959 82.1272C104.076 81.9095 104.142 81.6681 104.153 81.4212C104.163 81.1742 104.118 80.9281 104.019 80.7013C103.686 79.9119 103.851 79.2581 104.05 78.7588C104.184 78.4189 103.716 77.7435 103.403 77.344C103.615 77.3443 103.827 77.3343 104.039 77.3141C104.963 78.2661 107.795 81.56 108.087 86.4664C108.435 92.3397 103.626 93.2645 102.442 93.2338C101.259 93.2031 98.7544 92.7038 97.419 89.8811V89.8811ZM93.8733 62.1201C96.0088 63.7183 95.34 66.414 94.3396 67.4673C94.3077 67.4991 94.2793 67.5314 94.2521 67.5601C94.3043 67.5548 94.8403 67.4976 95.1423 67.4258C95.3559 67.3721 95.5648 67.3013 95.7671 67.214C95.7671 67.214 96.8871 68.3341 96.9401 69.615C96.3006 70.0245 95.6343 70.3908 94.9459 70.7113C95.6343 71.0316 96.3004 71.3977 96.9397 71.8072C96.8872 73.0877 95.7671 74.2078 95.7671 74.2078C95.5649 74.1209 95.3561 74.0502 95.1427 73.9964C94.8482 73.9367 94.5508 73.8919 94.2517 73.8621L94.3396 73.9546C95.34 75.0079 96.0069 77.7017 93.873 79.3022C91.7391 80.9027 89.9659 79.022 89.9659 79.022C90.8059 78.9557 92.6596 77.2884 91.1527 74.9281C89.6458 72.5678 86.4456 72.3544 86.4456 72.3544L86.4456 71.082L86.4456 70.3406L86.4452 69.0686C86.4452 69.0686 89.6459 68.8548 91.1527 66.4945C92.6596 64.1342 90.8074 62.4654 89.9659 62.4006C89.9659 62.3998 91.7394 60.5195 93.8733 62.1201ZM96.1987 53.4102C96.1987 53.4102 98.8825 52.2092 101.749 55.3983C103.732 57.604 104.197 61.9083 102.08 65.3683C102.885 65.1582 103.727 65.1337 104.543 65.2967C105.359 65.4596 106.127 65.8058 106.79 66.3091C107.452 66.8123 107.992 67.4595 108.368 68.2018C108.744 68.9441 108.946 69.762 108.96 70.5939C108.96 70.6323 108.96 70.6707 108.961 70.7094C108.963 70.7482 108.961 70.7862 108.959 70.8268C108.946 71.6589 108.744 72.477 108.368 73.2195C107.992 73.962 107.453 74.6094 106.79 75.1127C106.128 75.6161 105.359 75.9624 104.543 76.1253C103.727 76.2882 102.885 76.2635 102.08 76.0532C104.197 79.5132 103.731 83.8175 101.749 86.0235C98.8822 89.2123 96.1984 88.0112 96.1984 88.0112C97.147 87.4663 99.7103 85.5086 100.033 81.1491C100.356 76.7895 96.3595 74.5693 96.3595 74.5693C96.3595 74.5693 96.8142 74.0547 97.0767 73.5705C97.3392 73.0862 97.612 72.1871 97.612 72.1871C99.2935 72.9569 100.572 74.011 101.498 75.2078C101.889 74.8844 102.478 74.1691 102.354 72.8529L102.269 72.4231C102.581 72.6411 102.948 72.7692 103.329 72.7935C103.709 72.8177 104.089 72.7372 104.427 72.5607C104.766 72.3842 105.049 72.1184 105.246 71.7922C105.444 71.466 105.549 71.092 105.549 70.7106C105.549 70.3292 105.444 69.9551 105.246 69.6289C105.049 69.3027 104.766 69.037 104.427 68.8604C104.089 68.6839 103.709 68.6034 103.329 68.6277C102.948 68.6519 102.581 68.78 102.269 68.998L102.355 68.5686C102.478 67.252 101.889 66.5368 101.498 66.2137C100.572 67.4109 99.2931 68.4646 97.6116 69.2344C97.6116 69.2344 97.3392 68.3364 97.0744 67.8529C96.8096 67.3694 96.3576 66.8537 96.3576 66.8537C96.3576 66.8537 100.354 64.6339 100.031 60.274C99.7079 55.9141 97.148 53.9559 96.1987 53.4102ZM108.086 54.9536C107.786 59.9896 104.811 63.3273 103.969 64.1761C103.76 64.1584 103.55 64.1506 103.341 64.1527C103.648 63.7689 104.193 63.0257 104.049 62.6623C103.854 62.1596 103.686 61.5088 104.019 60.7199C104.117 60.4929 104.163 60.2467 104.152 59.9997C104.142 59.7527 104.075 59.5113 103.958 59.2935C104.52 59.1266 104.93 59.6577 104.93 59.6577C104.93 59.6577 105.051 58.8381 104.505 58.5046C103.959 58.1711 103.063 57.6094 103.215 56.6382C103.306 56.0615 103.203 55.4708 102.921 54.9593C103.598 54.464 104.793 54.9386 104.793 54.9386C104.201 53.3757 102.76 54.4831 101.561 53.7402C100.362 52.9973 100.711 51.6156 99.9374 50.9026C99.1638 50.1896 97.4186 51.5396 97.4186 51.5396C98.7539 48.7176 101.257 48.2165 102.441 48.1862C103.625 48.1559 108.433 49.0803 108.086 54.9536V54.9536Z" fill="white"/>
<path d="M139.497 68.7863L141.422 70.7109L139.497 72.6357C138.986 72.1253 138.7 71.4329 138.7 70.711C138.7 69.9891 138.986 69.2967 139.497 68.7863V68.7863Z" fill="#0067BE"/>
<path d="M67.0996 74.322L66.5558 74.8658C65.6634 73.976 65.0823 72.8218 64.8989 71.575C62.7328 72.9982 61.1522 71.8082 61.1522 71.8082C60.4089 74.5469 62.6656 75.35 62.6656 75.35C60.7431 76.3945 60.062 77.6812 59.5022 79.6946C59.1353 81.0162 58.4043 82.5676 57.9473 83.4751L55.5893 85.8331C56.701 84.2241 58.432 81.4187 59.27 78.4839C60.359 74.6728 60.2596 71.5849 60.2036 70.7108C60.2615 69.8355 60.359 66.7488 59.27 62.9376C58.4319 60.0029 56.7009 57.1975 55.5896 55.5889L57.9473 57.9465C58.4043 58.854 59.1341 60.4035 59.5021 61.727C60.062 63.7404 60.7431 65.027 62.6656 66.0715C62.6656 66.0715 60.4104 66.8739 61.1518 69.6137C61.1518 69.6137 62.7327 68.4234 64.8989 69.8466C65.0822 68.5998 65.6634 67.4456 66.5558 66.5558L67.0995 67.0995C66.1419 68.0574 65.604 69.3564 65.604 70.7108C65.604 72.0652 66.1419 73.3642 67.0996 74.322Z" fill="white"/>
<path d="M67.0996 74.3221C66.1417 73.3642 65.6036 72.0651 65.6036 70.7105C65.6036 69.3558 66.1417 68.0567 67.0995 67.0988L70.7112 70.7105L67.0996 74.3221Z" fill="#6BB0B1"/>
<path d="M61.1518 69.613C60.4089 66.8747 62.6656 66.0708 62.6656 66.0708C60.7431 65.0263 60.062 63.7396 59.5021 61.7262C59.1353 60.4047 58.4039 58.8536 57.9473 57.9457L66.555 66.5535C65.6626 67.4433 65.0815 68.5976 64.8981 69.8444C62.7327 68.4226 61.1518 69.613 61.1518 69.613Z" fill="#0067BE"/>
<path d="M39.6724 86.0218C37.69 83.8161 37.2245 79.5119 39.3412 76.0514C38.5362 76.2615 37.694 76.2859 36.8782 76.1229C36.0624 75.9598 35.2942 75.6136 34.6318 75.1103C33.9694 74.607 33.4299 73.9597 33.0542 73.2175C32.6785 72.4752 32.4763 71.6573 32.4628 70.8254C32.4617 70.7867 32.4628 70.7487 32.4609 70.7092L32.4628 70.5921C32.4768 69.7605 32.6795 68.943 33.0556 68.2011C33.4316 67.4593 33.9713 66.8125 34.6338 66.3097C35.2963 65.8068 36.0643 65.461 36.88 65.2983C37.6956 65.1356 38.5376 65.1602 39.3423 65.3704C37.2253 61.9103 37.6911 57.6057 39.6734 55.4C42.5398 52.2105 45.2236 53.4123 45.2236 53.4123C44.2751 53.9572 41.7118 55.915 41.3887 60.2741C41.0656 64.6333 45.0621 66.8539 45.0621 66.8539C45.0621 66.8539 44.6082 67.3685 44.3457 67.8527C44.0832 68.337 43.8104 69.2361 43.8104 69.2361C42.1289 68.4663 40.8507 67.4122 39.924 66.2154C39.5338 66.5388 38.9448 67.2537 39.0679 68.5703L39.1539 69.0001C38.841 68.7821 38.4744 68.6541 38.0939 68.6299C37.7134 68.6057 37.3335 68.6862 36.9956 68.8626C36.6576 69.0391 36.3744 69.3048 36.1768 69.6309C35.9792 69.957 35.8748 70.331 35.8748 70.7122C35.8748 71.0935 35.9792 71.4675 36.1768 71.7936C36.3744 72.1197 36.6576 72.3854 36.9956 72.5619C37.3336 72.7383 37.7134 72.8188 38.0939 72.7946C38.4744 72.7704 38.841 72.6424 39.1539 72.4244L39.0679 72.8542C38.9444 74.1712 39.5334 74.8861 39.9244 75.2095C40.8511 74.0119 42.1297 72.9582 43.8104 72.1885C43.8104 72.1885 44.0829 73.0872 44.3476 73.5699C44.6124 74.0526 45.0641 74.5687 45.0641 74.5687C45.0641 74.5687 41.0679 76.789 41.3907 81.1485C41.7134 85.508 44.2771 87.4654 45.2256 88.0111C45.2226 88.0103 42.5388 89.2114 39.6724 86.0218Z" fill="#6BB0B1"/>
<path d="M47.5487 79.3012C45.4132 77.703 46.082 75.0073 47.082 73.9536C47.1139 73.9218 47.1442 73.8915 47.1703 73.8608C47.1177 73.8665 46.5816 73.9237 46.2796 73.9954C46.0662 74.0491 45.8574 74.1198 45.6553 74.2069C45.6553 74.2069 44.5352 73.0868 44.4823 71.8059C45.1218 71.3963 45.788 71.03 46.4765 70.7096C45.788 70.3891 45.1217 70.0229 44.4823 69.6133C44.5352 68.3324 45.6553 67.2123 45.6553 67.2123C45.8574 67.2994 46.0662 67.3701 46.2796 67.4237C46.5741 67.4835 46.8713 67.5285 47.1703 67.5584L47.082 67.4656C46.0816 66.4122 45.4151 63.7181 47.5486 62.1179C49.6821 60.5178 51.4561 62.3985 51.4561 62.3985C50.6161 62.4648 48.762 64.1318 50.2692 66.4924C51.7765 68.8531 54.9768 69.0657 54.9768 69.0657L54.9768 70.3382L54.9768 71.0795L54.9768 72.352C54.9768 72.352 51.7762 72.5649 50.2693 74.926C48.7624 77.2871 50.6146 78.9551 51.4558 79.0196C51.4558 79.0211 49.6826 80.9018 47.5487 79.3012Z" fill="#EF9700"/>
<path d="M60.2048 70.7089C60.2624 71.5846 60.3602 74.6709 59.2712 78.4821C58.4332 81.4168 56.7022 84.2223 55.5905 85.8312L35.9821 105.44C36.2523 104.717 36.6491 103.497 36.661 102.566C36.6763 101.158 36.631 99.5383 38.5684 98.4182C38.5684 98.4182 37.0696 98.706 35.9192 97.1012C34.7688 95.4965 36.3117 93.625 37.3424 93.4078C37.3424 93.4078 37.9176 95.1941 40.0063 95.3756C42.0949 95.5571 44.4368 94.8108 48.2717 90.5721C48.2717 90.5721 46.0465 88.5487 47.1812 85.2337C47.1812 85.2337 49.8412 87.0495 52.6596 83.416C55.358 79.9372 56.7758 74.7926 56.5199 70.9603C56.5145 70.8766 56.5081 70.7935 56.5007 70.7109C56.5079 70.6285 56.5142 70.5453 56.5199 70.4614C56.7773 66.6284 55.3594 61.483 52.6599 58.006C49.8441 54.3752 47.1814 56.1883 47.1814 56.1883C46.046 52.8725 48.2712 50.8499 48.2712 50.8499C44.4362 46.6112 42.0955 45.8645 40.0061 46.046C37.9167 46.2275 37.3423 48.0137 37.3423 48.0137C36.3116 47.7965 34.7686 45.9251 35.919 44.3203C37.0694 42.7156 38.5683 43.0034 38.5683 43.0034C36.6308 41.8833 36.6745 40.2655 36.6607 38.8557C36.6515 37.9255 36.2517 36.7053 35.9819 35.9819L55.5904 55.5905C56.7017 57.199 58.4327 60.0045 59.2708 62.9392C60.3587 66.7485 60.2612 69.8352 60.2048 70.7089Z" fill="#6BB0B1"/>
<path d="M62.6656 75.3501C62.6656 75.3501 60.4101 74.5481 61.1522 71.8082C61.1522 71.8082 62.7328 72.9982 64.8989 71.575C65.0823 72.8218 65.6635 73.976 66.5559 74.8658L57.947 83.4747C58.4044 82.5676 59.1338 81.0177 59.5018 79.6942C60.0621 77.6812 60.7432 76.3946 62.6656 75.3501Z" fill="#0067BE"/>
<path d="M21.5308 57.1997C22.0619 57.6701 22.9418 57.7611 22.8355 58.6578C22.7292 59.5546 21.999 60.492 23.5638 61.875C23.5638 61.875 24.1513 60.286 23.9636 59.3201C23.9636 59.3201 25.3696 60.3424 25.5669 61.875C25.7641 63.4076 26.098 64.4698 27.403 65.2284C27.4777 64.725 27.3642 64.2117 27.0841 63.7867C27.0841 63.7867 28.421 63.512 29.4057 64.591C30.2395 65.5016 31.2479 66.5407 32.4912 67.0626C32.2585 67.4168 32.0609 67.7929 31.9011 68.1854C29.8804 68.0833 25.0251 67.6171 21.1644 65.4878C16.1571 62.7261 16.481 59.0945 17.791 57.6325C19.1011 56.1705 21.0581 55.6701 21.0581 55.6701C21.0581 55.6701 20.9997 56.7292 21.5308 57.1997Z" fill="#E0D3B4"/>
<path d="M30.043 55.8494C29.7399 56.0919 29.5576 56.608 29.8462 56.9265C29.8462 56.9265 30.4091 55.8778 31.5603 55.6974C31.5603 55.6974 31.3366 57.0516 31.8585 57.6341C32.3803 58.2166 32.6378 59.1119 32.1977 60.189C31.7576 61.2661 32.4863 61.7822 32.4863 61.7822C32.4863 61.7822 32.6225 60.887 33.3358 60.6594C33.3358 60.6594 33.3965 61.509 33.8669 61.8275C34.3374 62.146 34.8987 62.7381 34.9141 63.6337C34.9201 64.01 35.0575 64.3724 35.3024 64.6582C34.9153 64.8329 34.5459 65.0447 34.1996 65.2906C32.8136 64.8777 30.0538 63.7887 27.6002 61.2054C24.1555 57.5788 24.5197 54.1802 26.2649 52.1318C28.01 50.0835 30.8473 50.0375 30.8473 50.0375C30.8473 50.0375 30.0584 51.1909 31.0292 52.5869C32 53.9829 30.3466 55.6065 30.043 55.8494Z" fill="#E0D3B4"/>
<path d="M41.4842 50.9024C40.7102 51.6157 41.0594 52.9964 39.8607 53.74C38.6619 54.4837 37.2202 53.3759 36.6289 54.9388C36.6289 54.9388 37.8231 54.4645 38.5007 54.9595C38.2185 55.4702 38.1144 56.0603 38.2049 56.6368C38.3568 57.6076 37.4616 58.169 36.9156 58.5032C36.3695 58.8374 36.4908 59.6563 36.4908 59.6563C36.4908 59.6563 36.8998 59.1252 37.4612 59.2922C37.3443 59.51 37.2782 59.7514 37.2678 59.9984C37.2573 60.2454 37.3029 60.4916 37.401 60.7185C37.7348 61.5074 37.5694 62.1617 37.3707 62.6605C37.2368 63.0009 37.7041 63.6763 38.018 64.0753C37.8058 64.0749 37.5933 64.0849 37.3822 64.1049C36.4574 63.1532 33.6255 59.8585 33.3339 54.953C32.9858 49.0793 37.795 48.1549 38.9788 48.1852C40.1626 48.2155 42.6672 48.7178 44.0011 51.539C44.003 51.5401 42.2578 50.1894 41.4842 50.9024Z" fill="#E0D3B4"/>
<path d="M7.85907 69.2629C9.54324 67.8819 11.4853 66.7288 13.443 67.6543C13.443 67.6543 11.3947 65.7886 12.2443 64.6044C12.2443 64.6044 12.5781 65.1808 14.3686 65.0596C16.1591 64.9383 17.5551 65.2115 18.2381 66.5922C18.9211 67.9728 19.2396 68.5346 19.9676 68.7468C19.9676 68.7468 18.7235 67.7453 19.194 66.8804C19.194 66.8804 20.2105 66.4103 23.2454 68.1098C25.6091 69.4337 29.7395 69.8735 31.451 70.0032C31.4034 70.4735 31.4064 70.9475 31.4598 71.4172C29.7538 71.5461 25.613 71.9855 23.2454 73.3109C20.2105 75.0104 19.194 74.5403 19.194 74.5403C18.7235 73.6754 19.9676 72.6739 19.9676 72.6739C19.2393 72.8864 18.9208 73.4474 18.2381 74.8285C17.5555 76.2095 16.1591 76.4823 14.3686 76.3611C12.5782 76.2398 12.2443 76.8162 12.2443 76.8162C11.3947 75.6327 13.4431 73.7663 13.4431 73.7663C11.4853 74.6919 9.54325 73.5387 7.85907 72.1577C7.26583 71.6796 6.60948 71.2857 5.90858 70.987C5.65148 70.8757 5.40896 70.7843 5.19139 70.7103C5.40896 70.6362 5.65149 70.5449 5.90859 70.4336C6.60952 70.135 7.26588 69.741 7.85907 69.2629V69.2629Z" fill="#E0D3B4"/>
<path d="M31.9352 73.2379C32.0984 73.6254 32.2987 73.9963 32.5331 74.3453C31.2695 74.8599 30.2488 75.9113 29.4065 76.8319C28.4199 77.909 27.0845 77.6358 27.0845 77.6358C27.3646 77.211 27.478 76.6978 27.403 76.1945C26.0984 76.9535 25.7645 78.0157 25.5673 79.5483C25.3701 81.0809 23.9645 82.1027 23.9645 82.1027C24.1506 81.1377 23.5646 79.5479 23.5646 79.5479C22.0013 80.9285 22.7296 81.8694 22.8359 82.7646C22.9422 83.6599 22.062 83.7512 21.5313 84.2228C21.0006 84.6944 21.0612 85.755 21.0612 85.755C21.0612 85.755 19.1042 85.2562 17.7942 83.7926C16.4841 82.3291 16.1602 78.6991 21.1675 75.9374C25.0477 73.7954 29.9329 73.3361 31.9352 73.2379Z" fill="#E0D3B4"/>
<path d="M35.3508 76.7065C35.0778 77.0005 34.9227 77.3847 34.9152 77.7859C34.9003 78.6811 34.3389 79.2732 33.8684 79.5917C33.398 79.9102 33.3374 80.7597 33.3374 80.7597C32.624 80.5322 32.4878 79.637 32.4878 79.637C32.4878 79.637 31.7591 80.1531 32.1992 81.2302C32.6394 82.3073 32.3815 83.2029 31.8596 83.7854C31.3378 84.3679 31.5619 85.7217 31.5619 85.7217C30.4088 85.5394 29.8478 84.4926 29.8478 84.4926C29.5592 84.8111 29.7415 85.3272 30.0446 85.5697C30.3478 85.8123 32.002 87.4366 31.0312 88.8326C30.0604 90.2286 30.8489 91.3817 30.8489 91.3817C30.8489 91.3817 28.0113 91.336 26.2664 89.2873C24.5216 87.2386 24.1571 83.8403 27.6018 80.2137C30.101 77.5825 32.9179 76.5015 34.2767 76.1059C34.6152 76.3391 34.9748 76.5402 35.3508 76.7065V76.7065Z" fill="#E0D3B4"/>
<path d="M33.3359 86.4665C33.6355 81.4309 36.6106 78.0936 37.4528 77.2445C37.6616 77.2621 37.8715 77.2702 38.081 77.2679C37.7721 77.6497 37.2291 78.3952 37.3723 78.7586C37.5695 79.259 37.7364 79.9117 37.4026 80.7007C37.3045 80.9277 37.259 81.1739 37.2695 81.421C37.28 81.668 37.3462 81.9095 37.4632 82.1274C36.9018 82.2943 36.492 81.7632 36.492 81.7632C36.492 81.7632 36.3707 82.5821 36.9168 82.9163C37.4628 83.2505 38.3585 83.8116 38.2065 84.7824C38.1162 85.3588 38.2203 85.9489 38.5024 86.4597C37.8255 86.9547 36.6305 86.4804 36.6305 86.4804C37.2223 88.0429 38.6639 86.9351 39.8627 87.6788C41.0614 88.4224 40.7122 89.8031 41.4862 90.5164C42.2602 91.2298 44.0054 89.8791 44.0054 89.8791C42.6696 92.7014 40.1658 93.2021 38.9828 93.2324C37.7998 93.2627 32.9867 92.3391 33.3359 86.4665Z" fill="#E0D3B4"/>
<path d="M35.3556 106.065L35.9807 105.44C36.2509 104.717 36.6476 103.498 36.6595 102.567C36.6749 101.159 36.6296 99.5389 38.567 98.4188C38.567 98.4188 37.0682 98.7066 35.9177 97.1019C34.7673 95.4971 36.3103 93.6257 37.341 93.4085C37.341 93.4085 37.9162 95.1948 40.0048 95.3763C42.0934 95.5578 44.4353 94.8115 48.2702 90.5729C48.2702 90.5729 46.045 88.5495 47.1797 85.2344C47.1797 85.2344 49.8397 87.0503 52.6581 83.4168C55.3565 79.9379 56.7739 74.7929 56.5183 70.961C56.513 70.8774 56.5066 70.7942 56.4991 70.7116C56.5063 70.6292 56.5127 70.5461 56.5183 70.4622C56.7758 66.6292 55.3579 61.4838 52.6583 58.0068C49.8422 54.3763 47.1799 56.1891 47.1799 56.1891C46.044 52.8737 48.2696 50.8507 48.2696 50.8507C44.4347 46.612 42.0939 45.8653 40.0049 46.0471C37.9159 46.229 37.3407 48.0145 37.3407 48.0145C36.31 47.7973 34.767 45.9258 35.9174 44.3211C37.0678 42.7164 38.5667 43.0042 38.5667 43.0042C36.6293 41.8841 36.673 40.2663 36.6592 38.8565C36.6503 37.9267 36.2505 36.7057 35.9803 35.9827L35.3556 35.358L1.92519 68.7885C2.43568 69.2989 2.72246 69.9913 2.72247 70.7132C2.72247 71.4352 2.4357 72.1275 1.92523 72.638L35.3556 106.065ZM27.6 80.2148C30.0988 77.584 32.9161 76.5027 34.2749 76.1071C34.6134 76.3403 34.973 76.5413 35.349 76.7076C35.076 77.0016 34.9209 77.3859 34.9134 77.787C34.8985 78.6822 34.3371 79.2743 33.8666 79.5928C33.3962 79.9113 33.3356 80.7609 33.3356 80.7609C32.6222 80.5333 32.486 79.6381 32.486 79.6381C32.486 79.6381 31.7573 80.1542 32.1974 81.2313C32.6376 82.3085 32.3797 83.2041 31.8579 83.7866C31.336 84.3691 31.5601 85.7228 31.5601 85.7228C30.407 85.5406 29.846 84.4938 29.846 84.4938C29.5574 84.8123 29.7397 85.3284 30.0432 85.5713C30.3468 85.8142 32.0002 87.4377 31.0294 88.8337C30.0586 90.2297 30.8472 91.3828 30.8472 91.3828C30.8472 91.3828 28.0095 91.3371 26.2647 89.2884C24.5199 87.2397 24.1553 83.8414 27.6 80.2148V80.2148ZM21.166 75.9358C25.0474 73.7951 29.9326 73.3358 31.9345 73.2372C32.0978 73.6247 32.298 73.9955 32.5324 74.3446C31.2688 74.8592 30.2481 75.9106 29.4058 76.8311C28.4193 77.9082 27.0839 77.635 27.0839 77.635C27.3639 77.2102 27.4773 76.697 27.4024 76.1937C26.0977 76.9527 25.7639 78.0149 25.5666 79.5475C25.3694 81.0801 23.9634 82.1016 23.9634 82.1016C24.1503 81.1373 23.564 79.5471 23.564 79.5471C22.0007 80.9278 22.729 81.8687 22.8353 82.7639C22.9416 83.6591 22.0613 83.7504 21.5306 84.222C20.9999 84.6936 21.0606 85.7543 21.0606 85.7543C21.0606 85.7543 19.1036 85.2554 17.7935 83.7919C16.4835 82.3283 16.1596 78.6967 21.166 75.9358V75.9358ZM5.19109 70.7098C5.40867 70.6357 5.65081 70.5448 5.90829 70.4331C6.60922 70.1345 7.26558 69.7405 7.85877 69.2624C9.54294 67.8814 11.485 66.7283 13.4427 67.6538C13.4427 67.6538 11.3944 65.7882 12.244 64.604C12.244 64.604 12.5778 65.1803 14.3683 65.0591C16.1587 64.9378 17.5547 65.2111 18.2378 66.5917C18.9208 67.9724 19.2389 68.5337 19.9676 68.7467C19.9676 68.7467 18.7232 67.7448 19.1936 66.8799C19.1936 66.8799 20.2101 66.4098 23.245 68.1094C25.6088 69.4333 29.7392 69.873 31.4506 70.0027C31.4031 70.473 31.4061 70.9471 31.4595 71.4168C29.7534 71.5457 25.6126 71.985 23.2451 73.3104C20.2102 75.0099 19.1937 74.5398 19.1937 74.5398C18.7232 73.6749 19.9673 72.6734 19.9673 72.6734C19.239 72.886 18.9205 73.447 18.2378 74.828C17.5552 76.209 16.1588 76.4819 14.3683 76.3606C12.5779 76.2393 12.244 76.8157 12.244 76.8157C11.3944 75.6323 13.4428 73.7658 13.4428 73.7658C11.485 74.6914 9.54296 73.5383 7.85878 72.1572C7.26554 71.6791 6.60919 71.2852 5.90829 70.9865C5.65157 70.8748 5.40828 70.785 5.19109 70.7098V70.7098ZM21.5305 57.1993C22.0616 57.6697 22.9414 57.7607 22.8352 58.6574C22.7289 59.5542 21.9986 60.4916 23.5635 61.8746C23.5635 61.8746 24.151 60.2856 23.9633 59.3197C23.9633 59.3197 25.3693 60.342 25.5665 61.8746C25.7638 63.4072 26.0976 64.4694 27.4027 65.228C27.4774 64.7246 27.3639 64.2113 27.0838 63.7863C27.0838 63.7863 28.4207 63.5116 29.4054 64.5906C30.2392 65.5012 31.2476 66.5404 32.4909 67.0622C32.2582 67.4164 32.0605 67.7925 31.9007 68.185C29.88 68.0829 25.0247 67.6167 21.1641 65.4874C16.1568 62.7257 16.4807 59.0941 17.7911 57.6325C19.1015 56.1709 21.0581 55.6701 21.0581 55.6701C21.0581 55.6701 20.9994 56.7288 21.5305 57.1993V57.1993ZM30.0427 55.849C29.7391 56.0919 29.5573 56.6076 29.8451 56.9261C29.8451 56.9261 30.4084 55.8778 31.5599 55.697C31.5599 55.697 31.3362 57.0512 31.8581 57.6337C32.38 58.2162 32.6374 59.1114 32.1973 60.1886C31.7572 61.2657 32.4859 61.7818 32.4859 61.7818C32.4859 61.7818 32.6221 60.8866 33.3354 60.659C33.3354 60.659 33.3961 61.5086 33.8669 61.8275C34.3378 62.1463 34.8984 62.7377 34.9134 63.6329C34.9196 64.0094 35.0571 64.3719 35.3021 64.6578C34.9149 64.8325 34.5457 65.0444 34.1996 65.2906C32.8132 64.8773 30.0535 63.7883 27.5999 61.205C24.1552 57.5784 24.5193 54.1797 26.2645 52.1314C28.0097 50.0831 30.8469 50.0371 30.8469 50.0371C30.8469 50.0371 30.058 51.1905 31.0288 52.5865C31.9997 53.9825 30.3462 55.6061 30.0427 55.849V55.849ZM44.0026 51.5398C44.0026 51.5398 42.2574 50.1891 41.4838 50.9021C40.7102 51.615 41.059 52.996 39.8603 53.7397C38.6615 54.4833 37.2199 53.3755 36.6282 54.9388C36.6282 54.9388 37.8227 54.4642 38.5004 54.9592C38.2181 55.4698 38.114 56.06 38.2045 56.6364C38.3565 57.6073 37.4613 58.1686 36.9152 58.5029C36.3692 58.8371 36.4901 59.6556 36.4901 59.6556C36.4901 59.6556 36.8999 59.1253 37.4609 59.2918C37.344 59.5096 37.2778 59.7511 37.2674 59.9981C37.257 60.2451 37.3025 60.4912 37.4006 60.7181C37.7345 61.5071 37.5672 62.1594 37.37 62.6605C37.2364 63.0005 37.7038 63.6759 38.0173 64.0754C37.8051 64.075 37.5925 64.0849 37.3815 64.1049C36.4567 63.1533 33.6248 59.8586 33.3331 54.953C32.9854 49.0797 37.7943 48.1549 38.9781 48.1852C40.1619 48.2156 42.6657 48.7187 44.0026 51.5398V51.5398ZM47.5484 79.3009C45.413 77.7027 46.0818 75.007 47.0817 73.9533C47.1136 73.9214 47.1439 73.8911 47.17 73.8604C47.117 73.8658 46.5814 73.9233 46.2794 73.9951C46.0659 74.0488 45.8572 74.1195 45.655 74.2065C45.655 74.2065 44.535 73.0864 44.482 71.8056C45.1215 71.396 45.7877 71.0297 46.4762 70.7092C45.7877 70.3888 45.1215 70.0225 44.482 69.6129C44.5349 68.3321 45.655 67.212 45.655 67.212C45.8571 67.299 46.0659 67.3697 46.2793 67.4234C46.5738 67.4832 46.871 67.5282 47.17 67.5581L47.0817 67.4652C46.0813 66.4119 45.4148 63.7177 47.5483 62.1176C49.6818 60.5175 51.4558 62.3982 51.4558 62.3982C50.6158 62.4645 48.7616 64.1314 50.2689 66.4921C51.7762 68.8528 54.9765 69.0654 54.9765 69.0654L54.9765 70.3379L54.9765 71.0792L54.9765 72.3517C54.9765 72.3517 51.7763 72.565 50.269 74.9257C48.7617 77.2863 50.6144 78.9548 51.4559 79.0197C51.4559 79.0212 49.6819 80.9011 47.5484 79.3009V79.3009ZM45.2219 88.0095C45.2219 88.0095 42.5385 89.211 39.6721 86.0214C37.6897 83.8158 37.2242 79.5115 39.3409 76.0511C38.5359 76.2611 37.6937 76.2855 36.8779 76.1225C36.062 75.9594 35.2939 75.6132 34.6315 75.1099C33.9691 74.6066 33.4296 73.9594 33.0539 73.2171C32.6781 72.4748 32.4759 71.6569 32.4625 70.8251C32.4614 70.7863 32.4625 70.7483 32.4606 70.7088C32.4587 70.6693 32.4606 70.6321 32.4629 70.5921C32.4768 69.7605 32.6793 68.9429 33.0553 68.201C33.4313 67.4591 33.9709 66.8123 34.6333 66.3093C35.2958 65.8064 36.0639 65.4606 36.8795 65.2979C37.6952 65.1351 38.5372 65.1598 39.3419 65.3701C37.2249 61.91 37.6907 57.6053 39.673 55.3997C42.5395 52.2102 45.2232 53.412 45.2232 53.412C44.2747 53.9569 41.7114 55.9147 41.3887 60.2742C41.066 64.6337 45.0618 66.8536 45.0618 66.8536C45.0618 66.8536 44.6078 67.3681 44.3454 67.8524C44.0829 68.3367 43.8101 69.2357 43.8101 69.2357C42.1286 68.466 40.8504 67.4119 39.9237 66.215C39.5334 66.5385 38.9444 67.2534 39.0676 68.5699L39.1535 68.9997C38.8407 68.7818 38.4741 68.6538 38.0936 68.6295C37.7131 68.6053 37.3332 68.6858 36.9952 68.8623C36.6573 69.0388 36.3741 69.3045 36.1765 69.6305C35.9789 69.9566 35.8744 70.3306 35.8744 70.7119C35.8744 71.0931 35.9789 71.4672 36.1765 71.7932C36.3741 72.1193 36.6573 72.385 36.9952 72.5615C37.3332 72.738 37.7131 72.8185 38.0936 72.7942C38.4741 72.77 38.8407 72.642 39.1536 72.4241L39.0676 72.8539C38.9441 74.1708 39.5331 74.8857 39.9237 75.2088C40.8508 74.0116 42.1294 72.9579 43.8101 72.1881C43.8101 72.1881 44.0825 73.0868 44.3473 73.5695C44.6121 74.0523 45.0637 74.5684 45.0637 74.5684C45.0637 74.5684 41.0676 76.7886 41.3904 81.1481C41.7131 85.5076 44.2733 87.4646 45.2219 88.0095V88.0095ZM33.3352 86.4657C33.6349 81.4301 36.6099 78.0929 37.4522 77.2437C37.6609 77.2613 37.8708 77.2694 38.0803 77.2671C37.7714 77.6489 37.2285 78.3945 37.3716 78.7579C37.5669 79.2602 37.7358 79.911 37.4019 80.6999C37.3038 80.9269 37.2583 81.1731 37.2688 81.4202C37.2793 81.6672 37.3456 81.9087 37.4625 82.1266C36.9012 82.2935 36.4913 81.7624 36.4913 81.7624C36.4913 81.7624 36.3701 82.5813 36.9161 82.9155C37.4622 83.2498 38.3578 83.8108 38.2062 84.782C38.1157 85.3583 38.2197 85.9482 38.5017 86.4589C37.8244 86.9535 36.6299 86.4796 36.6299 86.4796C37.2216 88.0421 38.6633 86.9343 39.862 87.678C41.0608 88.4217 40.7116 89.8023 41.4856 90.5156C42.2596 91.229 44.0047 89.8783 44.0047 89.8783C42.669 92.7006 40.1652 93.2013 38.9822 93.2316C37.7991 93.262 32.9864 92.3387 33.3356 86.4661L33.3352 86.4657Z" fill="white"/>
<path d="M1.92473 72.6347L0.00187491 70.7118L1.92664 68.787C2.43628 69.2977 2.72234 69.9898 2.72199 70.7113C2.72163 71.4327 2.43488 72.1245 1.92473 72.6347V72.6347Z" fill="#0067BE"/>
<path d="M67.0996 74.322L66.5558 74.8658C67.4457 75.7581 68.5999 76.3392 69.8467 76.5227C68.4231 78.6885 69.6134 80.2694 69.6134 80.2694C66.8747 81.0127 66.0712 78.7556 66.0712 78.7556C65.0267 80.6781 63.7401 81.3592 61.727 81.9194C60.4051 82.2859 58.8541 83.0173 57.9466 83.4743L55.5886 85.8323C57.1971 84.7202 60.003 82.9896 62.9373 82.1512C66.7485 81.0622 69.8363 81.1616 70.7105 81.2176C71.5861 81.1601 74.6724 81.0622 78.4836 82.1512C81.4187 82.9897 84.2238 84.7203 85.8328 85.832L83.4771 83.4763C82.5699 83.0196 81.0201 82.2894 79.697 81.9218C77.6835 81.3619 76.3965 80.6804 75.352 78.7579C75.352 78.7579 74.55 81.0135 71.8102 80.2721C71.8102 80.2721 73.0005 78.6912 71.5773 76.525C72.824 76.3415 73.9781 75.7602 74.8677 74.8677L74.3244 74.3244C73.8499 74.7987 73.2866 75.175 72.6667 75.4316C72.0468 75.6882 71.3824 75.8202 70.7115 75.82C70.0406 75.8197 69.3763 75.6873 68.7565 75.4303C68.1368 75.1733 67.5737 74.7967 67.0996 74.322V74.322Z" fill="white"/>
<path d="M67.0996 74.3221C68.0575 75.28 69.3566 75.8181 70.7112 75.8181C72.0658 75.8181 73.365 75.28 74.3228 74.3221L70.7112 70.7105L67.0996 74.3221Z" fill="#6BB0B1"/>
<path d="M71.8087 80.2698C74.5469 81.0127 75.3505 78.7557 75.3505 78.7557C76.395 80.6781 77.682 81.3596 79.6954 81.9195C81.017 82.2863 82.568 83.0177 83.4755 83.474L74.8666 74.865C73.977 75.7576 72.8228 76.3388 71.5761 76.5223C72.999 78.6889 71.8087 80.2698 71.8087 80.2698Z" fill="#0067BE"/>
<path d="M55.3998 101.749C57.6055 103.732 61.9098 104.197 65.3698 102.08C65.1598 102.885 65.1355 103.727 65.2985 104.543C65.4616 105.359 65.8079 106.127 66.3112 106.79C66.8145 107.452 67.4618 107.992 68.2041 108.367C68.9464 108.743 69.7643 108.945 70.5962 108.959C70.6346 108.96 70.6729 108.959 70.7121 108.96C70.7512 108.962 70.7888 108.96 70.8291 108.958C71.661 108.945 72.4788 108.743 73.221 108.367C73.9632 107.991 74.6104 107.451 75.1135 106.789C75.6167 106.126 75.9627 105.358 76.1256 104.542C76.2884 103.726 76.2638 102.884 76.0535 102.079C79.5136 104.196 83.8183 103.731 86.0239 101.748C89.2134 98.8818 88.0116 96.198 88.0116 96.198C87.4667 97.1466 85.5089 99.7099 81.1494 100.033C76.7899 100.355 74.5697 96.3591 74.5697 96.3591C74.5697 96.3591 74.0555 96.8135 73.5708 97.0756C73.0862 97.3377 72.1894 97.6128 72.1894 97.6128C72.9592 99.2943 74.0133 100.572 75.2101 101.499C74.8866 101.889 74.1717 102.478 72.8552 102.355L72.4254 102.269C72.6432 102.582 72.7711 102.949 72.7953 103.329C72.8194 103.71 72.7389 104.09 72.5623 104.428C72.3858 104.765 72.1201 105.049 71.794 105.246C71.4679 105.444 71.0939 105.548 70.7127 105.548C70.3314 105.548 69.9575 105.443 69.6314 105.246C69.3054 105.048 69.0397 104.765 68.8633 104.427C68.6868 104.089 68.6063 103.709 68.6305 103.329C68.6548 102.948 68.7828 102.582 69.0007 102.269L68.5713 102.355C67.2543 102.479 66.539 101.889 66.2159 101.499C67.4132 100.572 68.4673 99.2935 69.2366 97.6124C69.2366 97.6124 68.3383 97.3403 67.8552 97.0752C67.3721 96.81 66.856 96.3584 66.856 96.3584C66.856 96.3584 64.6361 100.355 60.2762 100.032C55.9163 99.7087 53.9593 97.1454 53.414 96.1972C53.4106 96.1983 52.2103 98.8829 55.3998 101.749Z" fill="#6BB0B1"/>
<path d="M62.12 93.8726C63.7186 96.0084 66.4143 95.3396 67.468 94.3396C67.4999 94.3078 67.5302 94.2774 67.5609 94.2513C67.5551 94.3039 67.498 94.84 67.4262 95.142C67.3723 95.3553 67.3016 95.5641 67.2148 95.7663C67.2148 95.7663 68.3349 96.8864 69.6154 96.939C70.025 96.2995 70.3912 95.6332 70.7117 94.9447C71.0322 95.6332 71.3985 96.2994 71.808 96.939C73.0889 96.886 74.209 95.7659 74.209 95.7659C74.1217 95.5637 74.0509 95.3548 73.9972 95.1412C73.9374 94.8469 73.8926 94.5498 73.8628 94.251L73.9557 94.3392C75.0087 95.3392 77.7028 96.0058 79.3029 93.8722C80.9031 91.7387 79.0228 89.9651 79.0228 89.9651C78.9564 90.8051 77.2891 92.6589 74.9288 91.152C72.5685 89.6451 72.3555 86.4444 72.3555 86.4444L71.0831 86.4444L70.3417 86.4444L69.0693 86.4444C69.0693 86.4444 68.856 89.6447 66.4953 91.152C64.1346 92.6593 62.4661 90.8066 62.4013 89.9651C62.4001 89.9655 60.5199 91.7391 62.12 93.8726Z" fill="#EF9700"/>
<path d="M70.7124 81.2165C69.8371 81.1594 66.7504 81.0611 62.9393 82.1501C60.0049 82.9886 57.1991 84.7192 55.5905 85.8312L35.9821 105.44C36.7051 105.169 37.9242 104.772 38.8555 104.76C40.2634 104.745 41.8835 104.791 43.0036 102.853C43.0036 102.853 42.7158 104.352 44.3201 105.502C45.9245 106.652 47.7963 105.11 48.0139 104.079C48.0139 104.079 46.2276 103.504 46.0457 101.415C45.8638 99.3261 46.611 96.985 50.8496 93.15C50.8496 93.15 52.873 95.3752 56.1876 94.2402C56.1876 94.2402 54.3722 91.5806 58.0053 88.7617C61.4842 86.0634 66.6292 84.6459 70.4611 84.9015C70.5452 84.9074 70.6285 84.9139 70.7109 84.921C70.7933 84.9139 70.8764 84.9075 70.9603 84.9019C74.7933 84.6444 79.9387 86.0623 83.4157 88.7618C87.0465 91.5776 85.2334 94.2403 85.2334 94.2403C88.5492 95.3757 90.5718 93.1505 90.5718 93.1505C94.8101 96.9851 95.5572 99.3262 95.3753 101.415C95.1934 103.504 93.4079 104.079 93.4079 104.079C93.6251 105.11 95.4966 106.653 97.1009 105.502C98.7053 104.351 98.4183 102.853 98.4183 102.853C99.5384 104.791 101.156 104.747 102.566 104.761C103.496 104.77 104.716 105.17 105.44 105.44L85.8312 85.8313C84.2223 84.7196 81.4172 82.989 78.4821 82.1506C74.6729 81.0627 71.5865 81.1605 70.7124 81.2165Z" fill="#6BB0B1"/>
<path d="M66.0712 78.7557C66.0712 78.7557 66.8736 81.0116 69.6134 80.2694C69.6134 80.2694 68.4231 78.6885 69.8467 76.5228C68.6 76.3393 67.4458 75.7581 66.5559 74.8658V74.8658L57.947 83.4747C58.8541 83.0173 60.4036 82.2875 61.7275 81.9199C63.7401 81.3592 65.0267 80.6781 66.0712 78.7557Z" fill="#0067BE"/>
<path d="M84.222 119.891C83.7535 119.362 83.6606 118.48 82.7639 118.586C81.8671 118.693 80.9277 119.421 79.5467 117.858C79.5467 117.858 81.1357 117.27 82.1012 117.458C82.1012 117.458 81.0793 116.052 79.5467 115.855C78.0141 115.658 76.9546 115.325 76.1941 114.019C76.6975 113.945 77.2108 114.058 77.6357 114.338C77.6357 114.338 77.9105 113.001 76.8314 112.017C75.9204 111.183 74.8817 110.175 74.3598 108.931C74.0055 109.164 73.6295 109.361 73.237 109.521C73.3391 111.542 73.8054 116.397 75.9327 120.256C78.6945 125.263 82.326 124.94 83.788 123.63C85.25 122.32 85.7504 120.363 85.7504 120.363C85.7504 120.363 84.6925 120.422 84.222 119.891Z" fill="#E0D3B4"/>
<path d="M85.5724 111.379C85.3299 111.682 84.8137 111.864 84.4952 111.576C84.4952 111.576 85.544 111.013 85.7239 109.861C85.7239 109.861 84.3701 110.085 83.7876 109.563C83.2051 109.041 82.3099 108.784 81.2324 109.224C80.1549 109.663 79.6395 108.935 79.6395 108.935C79.6395 108.935 80.5344 108.799 80.7623 108.086C80.7623 108.086 79.9124 108.025 79.5939 107.554C79.2754 107.084 78.6837 106.523 77.788 106.508C77.4117 106.502 77.0493 106.364 76.7635 106.119C76.5889 106.506 76.377 106.876 76.1307 107.222C76.5436 108.608 77.633 111.368 80.2163 113.821C83.8425 117.266 87.2416 116.902 89.2899 115.157C91.3383 113.412 91.3839 110.574 91.3839 110.574C91.3839 110.574 90.2308 111.363 88.8348 110.393C87.4388 109.422 85.8153 111.075 85.5724 111.379Z" fill="#E0D3B4"/>
<path d="M90.5189 99.9371C89.806 100.712 88.4249 100.362 87.6817 101.561C86.9384 102.76 88.0454 104.201 86.4829 104.793C86.4829 104.793 86.9572 103.599 86.4622 102.921C85.9507 103.203 85.3598 103.307 84.783 103.215C83.8122 103.063 83.2508 103.958 82.9169 104.505C82.5831 105.051 81.7638 104.929 81.7638 104.929C81.7638 104.929 82.2945 104.52 82.1276 103.959C81.9099 104.076 81.6685 104.142 81.4216 104.152C81.1746 104.163 80.9285 104.117 80.7017 104.019C79.9127 103.685 79.2585 103.851 78.7596 104.049C78.4193 104.183 77.7439 103.716 77.3448 103.402C77.3452 103.614 77.3352 103.827 77.3153 104.038C78.2669 104.963 81.5612 107.794 86.4672 108.086C92.3405 108.434 93.2653 103.625 93.235 102.441C93.2046 101.258 92.7023 98.753 89.8812 97.4191C89.8816 97.4187 91.2319 99.1636 90.5189 99.9371Z" fill="#E0D3B4"/>
<path d="M72.1588 133.563C73.5379 131.877 74.6926 129.936 73.7674 127.979C73.7674 127.979 75.6331 130.027 76.8173 129.177C76.8173 129.177 76.2405 128.843 76.3622 127.053C76.4838 125.263 76.2102 123.867 74.8295 123.184C73.4489 122.501 72.8871 122.182 72.6745 121.454C72.6745 121.454 73.6761 122.698 74.5414 122.228C74.5414 122.228 75.0114 121.211 73.3119 118.176C71.9899 115.814 71.5483 111.682 71.4186 109.971C70.9482 110.018 70.4742 110.015 70.0045 109.962C69.8756 111.668 69.4362 115.809 68.1105 118.176C66.411 121.211 66.8814 122.228 66.8814 122.228C67.7463 122.698 68.7479 121.454 68.7479 121.454C68.5353 122.182 67.9739 122.501 66.5932 123.184C65.2126 123.867 64.9394 125.263 65.0606 127.053C65.1819 128.844 64.6055 129.177 64.6055 129.177C65.7889 130.027 67.6554 127.979 67.6554 127.979C66.7295 129.936 67.883 131.878 69.264 133.563C69.7421 134.156 70.136 134.812 70.4347 135.513C70.546 135.77 70.637 136.012 70.7114 136.23C70.7851 136.012 70.8768 135.77 70.9881 135.513C71.2863 134.812 71.6803 134.155 72.1588 133.563Z" fill="#E0D3B4"/>
<path d="M68.1841 109.487C67.7966 109.324 67.4258 109.123 67.0767 108.889C66.5617 110.152 65.5103 111.173 64.5901 112.016C63.5126 113.002 63.7859 114.337 63.7859 114.337C64.2108 114.057 64.7239 113.944 65.2271 114.019C64.4685 115.324 63.4064 115.658 61.8737 115.855C60.3411 116.052 59.3193 117.458 59.3193 117.458C60.284 117.271 61.8741 117.857 61.8741 117.857C60.4931 119.42 59.5522 118.692 58.657 118.586C57.7617 118.479 57.6708 119.36 57.1988 119.89C56.7268 120.421 55.6666 120.36 55.6666 120.36C55.6666 120.36 56.1654 122.317 57.629 123.628C59.0925 124.938 62.7226 125.261 65.4842 120.254C67.6258 116.374 68.0855 111.489 68.1841 109.487Z" fill="#E0D3B4"/>
<path d="M64.7152 106.071C64.4212 106.344 64.0367 106.499 63.6354 106.506C62.7405 106.521 62.1485 107.083 61.83 107.553C61.5115 108.024 60.6615 108.084 60.6615 108.084C60.8891 108.797 61.7847 108.934 61.7847 108.934C61.7847 108.934 61.2686 109.663 60.1915 109.222C59.1143 108.782 58.2191 109.041 57.6366 109.562C57.0541 110.084 55.6999 109.86 55.6999 109.86C55.8822 111.013 56.9294 111.574 56.9294 111.574C56.6105 111.862 56.0948 111.681 55.8519 111.377C55.609 111.073 53.9854 109.42 52.5895 110.391C51.1935 111.362 50.0404 110.573 50.0404 110.573C50.0404 110.573 50.0856 113.41 52.1347 115.156C54.1838 116.901 57.5817 117.265 61.2087 113.821C63.8399 111.321 64.9209 108.504 65.3161 107.145C65.0827 106.807 64.8815 106.447 64.7152 106.071V106.071Z" fill="#E0D3B4"/>
<path d="M54.9543 108.085C59.9903 107.786 63.3272 104.81 64.1768 103.968C64.1586 103.759 64.1508 103.55 64.1534 103.34C63.7696 103.647 63.026 104.192 62.6626 104.049C62.1618 103.851 61.5095 103.685 60.7205 104.019C60.4935 104.117 60.2473 104.162 60.0003 104.152C59.7532 104.141 59.5117 104.075 59.2939 103.958C59.1269 104.519 59.658 104.929 59.658 104.929C59.658 104.929 58.8387 105.05 58.5049 104.504C58.1711 103.959 57.6097 103.063 56.6385 103.214C56.0622 103.305 55.4722 103.201 54.9616 102.919C54.4666 103.596 54.9409 104.791 54.9409 104.791C53.3779 104.199 54.4857 102.757 53.7425 101.559C52.9992 100.36 51.6178 100.709 50.9048 99.935C50.1918 99.1614 51.5422 97.4158 51.5422 97.4158C48.7195 98.7511 48.2187 101.255 48.1888 102.438C48.1589 103.622 49.0806 108.433 54.9543 108.085Z" fill="#E0D3B4"/>
<path d="M68.7865 139.496C69.297 138.986 69.9894 138.699 70.7113 138.699C71.4332 138.699 72.1256 138.986 72.636 139.496L106.067 106.066L105.442 105.441C104.719 105.171 103.497 104.772 102.567 104.762C101.16 104.747 99.5402 104.792 98.4201 102.854C98.4201 102.854 98.7075 104.353 97.1028 105.503C95.498 106.654 93.627 105.111 93.4098 104.08C93.4098 104.08 95.1957 103.505 95.3772 101.416C95.5587 99.3276 94.8119 96.9861 90.5737 93.1516C90.5737 93.1516 88.5503 95.3768 85.2353 94.2413C85.2353 94.2413 87.0488 91.5798 83.4176 88.7629C79.9391 86.0649 74.7937 84.647 70.9622 84.903C70.8786 84.9083 70.7954 84.9147 70.7128 84.9222C70.6307 84.9152 70.5475 84.9089 70.4634 84.903C66.6303 84.6455 61.4849 86.0634 58.0076 88.7632C54.3772 91.5794 56.1899 94.2417 56.1899 94.2417C52.8745 95.3775 50.8519 93.1515 50.8519 93.1515C46.6133 96.9865 45.8665 99.328 46.048 101.417C46.2295 103.505 48.0162 104.081 48.0162 104.081C47.7986 105.111 45.9272 106.654 44.3224 105.504C42.7177 104.353 43.0059 102.855 43.0059 102.855C41.8858 104.792 40.2676 104.749 38.8582 104.762C37.928 104.772 36.7074 105.171 35.9845 105.441L35.3594 106.066L68.7865 139.496ZM52.1324 115.156C50.0825 113.413 50.038 110.574 50.038 110.574C50.038 110.574 51.1911 111.362 52.5871 110.392C53.9831 109.421 55.6067 111.074 55.8496 111.378C56.0925 111.681 56.6086 111.864 56.9271 111.575C56.9271 111.575 55.8783 111.012 55.6976 109.86C55.6976 109.86 57.0522 110.085 57.6339 109.563C58.2156 109.041 59.112 108.783 60.1891 109.223C61.2662 109.663 61.7823 108.935 61.7823 108.935C61.7823 108.935 60.8867 108.798 60.6592 108.085C60.6592 108.085 61.5088 108.024 61.8276 107.554C62.1465 107.084 62.7382 106.522 63.6331 106.507C64.0343 106.5 64.4189 106.345 64.7129 106.072C64.879 106.447 65.0799 106.807 65.313 107.145C64.9178 108.504 63.8364 111.322 61.2056 113.821C57.5794 117.266 54.1807 116.901 52.1324 115.156V115.156ZM57.6289 123.627C56.1665 122.319 55.6665 120.36 55.6665 120.36C55.6665 120.36 56.7287 120.421 57.1987 119.89C57.6688 119.36 57.7605 118.479 58.6569 118.586C59.5533 118.692 60.493 119.42 61.8741 117.857C61.8741 117.857 60.2851 117.27 59.3192 117.458C59.3192 117.458 60.3411 116.052 61.8737 115.855C63.4063 115.657 64.4684 115.324 65.2271 114.019C64.7238 113.944 64.2107 114.057 63.7858 114.337C63.7858 114.337 63.511 113 64.5901 112.016C65.511 111.171 66.5632 110.151 67.0766 108.889C67.4257 109.123 67.7965 109.324 68.184 109.487C68.0854 111.489 67.6261 116.373 65.4853 120.255C62.7244 125.262 59.0917 124.938 57.63 123.629L57.6289 123.627ZM70.4338 135.511C70.1351 134.811 69.7412 134.154 69.2631 133.561C67.8821 131.877 66.7286 129.934 67.6545 127.977C67.6545 127.977 65.7885 130.025 64.6047 129.176C64.6047 129.176 65.181 128.842 65.0598 127.051C64.9385 125.261 65.2117 123.865 66.5924 123.182C67.973 122.499 68.5344 122.181 68.747 121.452C68.747 121.452 67.7455 122.697 66.8805 122.226C66.8805 122.226 66.4101 121.209 68.1096 118.174C69.4354 115.807 69.8747 111.666 70.0037 109.96C70.4734 110.013 70.9474 110.016 71.4177 109.969C71.5478 111.681 71.9872 115.811 73.311 118.175C75.0105 121.21 74.5405 122.226 74.5405 122.226C73.6752 122.696 72.6737 121.452 72.6737 121.452C72.8862 122.18 73.4476 122.499 74.8287 123.182C76.2097 123.865 76.4825 125.261 76.3613 127.051C76.24 128.842 76.8164 129.176 76.8164 129.176C75.6326 130.026 73.7665 127.977 73.7665 127.977C74.6917 129.934 73.539 131.877 72.1579 133.561C71.6796 134.154 71.2856 134.81 70.9872 135.511C70.8755 135.769 70.7842 136.011 70.7105 136.229C70.6361 136.013 70.5463 135.77 70.4346 135.513L70.4338 135.511ZM85.7537 120.36C85.7537 120.36 85.2549 122.317 83.7913 123.627C82.3278 124.937 78.6978 125.261 75.9361 120.253C73.8064 116.392 73.341 111.538 73.2404 109.519C73.6328 109.359 74.0089 109.161 74.3632 108.928C74.8831 110.174 75.9238 111.18 76.8348 112.014C77.9123 113 77.639 114.336 77.639 114.336C77.2141 114.055 76.7008 113.942 76.1974 114.017C76.956 115.322 78.0182 115.656 79.5508 115.853C81.0834 116.05 82.1052 117.456 82.1052 117.456C81.1406 117.269 79.5508 117.856 79.5508 117.856C80.9318 119.419 81.8723 118.69 82.768 118.584C83.6636 118.478 83.7541 119.358 84.2261 119.889C84.6981 120.42 85.7545 120.361 85.7545 120.361L85.7537 120.36ZM88.8323 110.392C90.2287 111.363 91.3818 110.573 91.3818 110.573C91.3818 110.573 91.3365 113.412 89.2878 115.156C87.2391 116.901 83.8408 117.264 80.2166 113.821C77.6333 111.367 76.5439 108.607 76.131 107.221C76.3773 106.875 76.5891 106.506 76.7634 106.118C77.0492 106.364 77.4118 106.501 77.7883 106.507C78.6839 106.522 79.2753 107.084 79.5941 107.554C79.913 108.024 80.7626 108.085 80.7626 108.085C80.5347 108.798 79.6398 108.935 79.6398 108.935C79.6398 108.935 80.1555 109.663 81.233 109.224C82.3105 108.784 83.2054 109.041 83.7879 109.563C84.3704 110.085 85.7242 109.861 85.7242 109.861C85.5423 111.014 84.4951 111.575 84.4951 111.575C84.814 111.864 85.3297 111.682 85.5726 111.378C85.8155 111.075 87.4386 109.421 88.8354 110.391L88.8323 110.392ZM93.2352 102.438C93.2667 103.621 92.3396 108.432 86.4674 108.083C81.5615 107.791 78.2672 104.96 77.3156 104.035C77.3351 103.825 77.3455 103.612 77.3451 103.399C77.7438 103.714 78.4192 104.181 78.7599 104.047C79.2607 103.849 79.9134 103.682 80.7023 104.016C80.9292 104.114 81.1753 104.16 81.4223 104.149C81.6692 104.139 81.9106 104.072 82.1283 103.955C82.2952 104.517 81.7645 104.926 81.7645 104.926C81.7645 104.926 82.5837 105.048 82.9176 104.501C83.2514 103.955 83.8128 103.06 84.7837 103.212C85.3605 103.303 85.9514 103.2 86.4628 102.918C86.9578 103.595 86.4832 104.79 86.4832 104.79C88.0461 104.198 86.9386 102.757 87.6823 101.558C88.426 100.359 89.8062 100.708 90.52 99.9343C91.2337 99.1607 89.8822 97.4155 89.8822 97.4155C92.7026 98.7555 93.2045 101.257 93.2352 102.441L93.2352 102.438ZM62.4001 89.9632C62.4673 90.8031 64.1338 92.6569 66.4941 91.15C68.8544 89.6431 69.0681 86.4425 69.0681 86.4425L70.3406 86.4425L71.0819 86.4425L72.3544 86.4425C72.3544 86.4425 72.5673 89.6431 74.9276 91.15C77.2879 92.6569 78.9568 90.8047 79.0216 89.9632C79.0216 89.9632 80.9019 91.7367 79.3017 93.8703C77.7016 96.0038 75.0075 95.3373 73.9541 94.3369L73.8616 94.249C73.8914 94.548 73.9364 94.8452 73.9963 95.1396C74.0499 95.3531 74.1206 95.5619 74.2078 95.764C74.2078 95.764 73.0877 96.884 71.8068 96.937C71.3973 96.2977 71.0311 95.6315 70.7109 94.9432C70.3904 95.6317 70.0242 96.2979 69.6146 96.9374C68.3337 96.8844 67.2136 95.7643 67.2136 95.7643C67.3007 95.5622 67.3714 95.3534 67.425 95.14C67.4968 94.838 67.554 94.302 67.5597 94.2494C67.5313 94.2778 67.501 94.3081 67.4665 94.3372C66.4131 95.3376 63.7194 96.0045 62.1192 93.871C60.5191 91.7375 62.4001 89.9655 62.4001 89.9655L62.4001 89.9632ZM60.2735 100.031C64.6327 100.354 66.8533 96.358 66.8533 96.358C66.8533 96.358 67.3682 96.8123 67.8525 97.0748C68.3368 97.3372 69.2339 97.612 69.2339 97.612C68.4642 99.2935 67.4104 100.572 66.2132 101.498C66.5363 101.889 67.2516 102.478 68.5685 102.355L68.9979 102.268C68.7798 102.581 68.6517 102.948 68.6273 103.329C68.603 103.709 68.6834 104.089 68.8599 104.428C69.0363 104.766 69.3021 105.049 69.6283 105.247C69.9544 105.444 70.3285 105.549 70.7099 105.549C71.0913 105.549 71.4655 105.445 71.7917 105.247C72.1179 105.049 72.3837 104.766 72.5602 104.428C72.7368 104.09 72.8173 103.71 72.7931 103.329C72.7688 102.949 72.6407 102.582 72.4227 102.269L72.8524 102.355C74.169 102.478 74.8839 101.889 75.2074 101.499C74.0102 100.572 72.9561 99.2935 72.1867 97.6124C72.1867 97.6124 73.085 97.3395 73.57 97.0771C74.055 96.8146 74.5685 96.3603 74.5685 96.3603C74.5685 96.3603 76.7887 100.356 81.1482 100.034C85.5077 99.711 87.4655 97.1477 88.0104 96.1991C88.0104 96.1991 89.2118 98.8825 86.0227 101.749C83.817 103.732 79.5124 104.197 76.0523 102.08C76.2627 102.885 76.2873 103.728 76.1245 104.544C75.9617 105.36 75.6156 106.128 75.1124 106.79C74.6092 107.453 73.962 107.993 73.2197 108.368C72.4774 108.744 71.6594 108.946 70.8275 108.96C70.7884 108.961 70.7508 108.96 70.7105 108.962C70.6702 108.964 70.6338 108.962 70.5946 108.96C69.7627 108.947 68.9448 108.744 68.2025 108.368C67.4602 107.993 66.8131 107.453 66.3098 106.79C65.8066 106.128 65.4605 105.36 65.2976 104.544C65.1347 103.728 65.1592 102.885 65.3694 102.08C61.9094 104.197 57.6051 103.732 55.3994 101.75C52.2099 98.8832 53.411 96.1995 53.411 96.1995C53.9562 97.1477 55.9144 99.7106 60.2735 100.034L60.2735 100.031ZM48.1873 102.438C48.2184 101.256 48.7199 98.7501 51.5407 97.4159C51.5407 97.4159 50.19 99.1611 50.9033 99.935C51.6167 100.709 52.9973 100.36 53.741 101.559C54.4846 102.757 53.3764 104.199 54.9394 104.791C54.9394 104.791 54.4651 103.596 54.9601 102.919C55.4708 103.201 56.0607 103.305 56.637 103.214C57.6082 103.063 58.1696 103.958 58.5034 104.504C58.8372 105.051 59.6565 104.929 59.6565 104.929C59.6565 104.929 59.1254 104.519 59.2923 103.958C59.5102 104.075 59.7517 104.141 59.9988 104.152C60.2458 104.162 60.492 104.117 60.719 104.019C61.508 103.685 62.1618 103.85 62.6611 104.049C63.0245 104.192 63.7689 103.65 64.1519 103.34C64.1495 103.55 64.1573 103.759 64.1752 103.968C63.3276 104.809 59.9888 107.786 54.9528 108.085C49.0806 108.433 48.157 103.625 48.1873 102.441L48.1873 102.438Z" fill="white"/>
<path d="M68.7866 139.497L70.7113 141.421L72.6361 139.497C72.1256 138.986 71.4333 138.699 70.7114 138.699C69.9895 138.699 69.2971 138.986 68.7866 139.497V139.497Z" fill="#0067BE"/>
</g>
<defs>
<clipPath id="clip0_14_38">
<rect width="100" height="100" fill="white" transform="translate(70.7107) rotate(45)"/>
</clipPath>
</defs>
</svg>
