<svg width="142" height="142" viewBox="0 0 142 142" fill="none" xmlns="http://www.w3.org/2000/svg">
<g clip-path="url(#clip0_14_243)">
<path d="M30.2402 80.7581C30.1296 80.8824 30.0201 81.0068 29.9101 81.1278C30.0201 81.0068 30.1293 80.8821 30.2402 80.7581Z" fill="white"/>
<path d="M30.5766 80.3886C30.8623 80.0864 31.1655 79.8057 31.5126 79.6003C31.1655 79.8057 30.8623 80.0864 30.5766 80.3886Z" fill="white"/>
<path d="M35.4489 77.3702C35.3917 77.1467 35.2914 76.9364 35.1536 76.7513C35.0934 76.6694 35.0276 76.5919 34.9568 76.5191C35.0276 76.5919 35.0934 76.6694 35.1536 76.7513C35.2914 76.9364 35.3917 77.1467 35.4489 77.3702V77.3702Z" fill="white"/>
<path d="M28.27 72.3263L28.2575 72.3107L28.27 72.3263Z" fill="white"/>
<path d="M35.4489 77.3702C35.4696 77.4522 35.4836 77.5358 35.4908 77.62C35.4836 77.5358 35.4696 77.4522 35.4489 77.3702V77.3702Z" fill="white"/>
<path d="M32.1912 79.3221C31.9521 79.3796 31.7233 79.4734 31.5127 79.6002C31.7233 79.4734 31.9521 79.3796 32.1912 79.3221V79.3221Z" fill="white"/>
<path d="M32.7137 79.2607C32.5378 79.2613 32.3625 79.2819 32.1912 79.3222C32.3625 79.2819 32.5378 79.2613 32.7137 79.2607V79.2607Z" fill="white"/>
<path d="M58.2809 71.4078C57.0012 71.2536 53.8853 71.0433 50.5733 72.0662C46.2471 73.4024 41.8157 75.9859 39.5512 80.0691C37.2866 84.1523 39.52 88.5143 42.4328 88.2832C45.3455 88.0521 46.2085 85.0622 44.6521 83.2592C43.0956 81.4563 41.3351 81.9766 41.3351 81.9766C41.3351 81.9766 42.7101 79.2521 45.19 79.2692C47.6699 79.2863 49.2098 82.346 49.2098 82.346C49.2098 82.346 49.7806 78.1771 52.6768 76.1009C52.6768 76.1009 55.6402 74.0373 57.5325 77.648C57.5325 77.648 58.9084 80.3997 54.887 82.5694C54.887 82.5694 56.3817 81.1535 55.1382 79.487C53.8946 77.8206 51.447 78.6271 50.852 80.9156C50.257 83.2041 51.4867 86.2337 49.5159 88.8399C47.545 91.446 44.0786 92.5307 41.0746 90.9313C38.0705 89.3318 37.1593 86.1155 37.3173 85.1093C37.3173 85.1093 36.0473 88.8664 32.9649 91.1552C29.8826 93.4439 26.4286 92.3976 25.5565 89.4355C24.6844 86.4734 27.7656 83.0458 30.7156 85.4405C30.7156 85.4405 27.4747 86.1149 27.7656 88.2846C28.0565 90.4543 30.6494 91.6184 32.9382 89.7002C35.227 87.7819 36.3136 84.8998 36.974 82.332C37.6343 79.7642 41.2469 73.9844 46.7765 71.6824L38.3975 71.5277C38.3873 72.1401 38.346 72.9794 38.2302 74.0211C37.9702 76.3612 37.6387 81.3154 32.9291 82.2404C29.6557 82.8823 27.4003 82.3805 26.3302 82.0146C26.086 81.9354 25.8485 81.837 25.6199 81.7201C25.6199 81.7201 26.2348 81.7874 27.009 81.7913C27.5122 81.5897 28.3736 81.1519 29.0723 80.3192C30.1266 79.0624 31.4556 78.7156 32.438 78.6C33.4204 78.4845 33.6079 76.2456 32.0046 75.5378C30.4225 74.838 27.3344 74.6313 26.8678 72.2926C25.7098 72.4029 24.2507 72.8611 22.7753 74.1667C19.511 77.0554 19.3375 79.3955 20.6809 80.0457C22.0242 80.6958 23.4831 80.0746 24.4939 81.0854C25.5047 82.0962 23.7574 83.5556 23.9595 84.5088C24.1616 85.462 25.3321 86.0545 24.7398 86.5889C24.1475 87.1232 22.9341 86.1122 22.8765 84.7255C22.8188 83.3389 23.7574 82.7753 23.3242 82.0532C22.8911 81.3311 21.5329 82.8619 19.482 82.8625C17.4312 82.863 16.073 80.9269 17.6906 78.2978C19.3083 75.6688 22.2553 74.1088 22.2409 72.9678C22.2329 72.3532 21.8844 72.0803 21.3989 72.0612C21.0812 72.509 20.4669 73.1344 19.2796 73.8198C16.9542 75.1631 14.4842 74.3977 13.5018 74.4846C12.5194 74.5714 12.3752 75.6691 12.274 76.1745C12.1728 76.6799 11.2916 76.1169 11.1041 74.6577C10.9853 73.7365 11.7005 72.9584 12.2459 72.5118C10.9646 71.9628 10.2502 71.7066 9.78947 71.5806C9.42138 71.4806 9.20907 71.2153 9.09768 70.9567C9.06342 70.878 9.037 70.7962 9.01881 70.7124C9.03726 70.6286 9.06366 70.5468 9.09767 70.4681C9.20906 70.2095 9.42138 69.9442 9.78975 69.8439C10.2505 69.7184 10.9649 69.4617 12.2462 68.9127C11.7016 68.4647 10.9856 67.6885 11.1041 66.767C11.2919 65.3082 12.1731 64.7446 12.2743 65.2506C12.3755 65.7565 12.5197 66.8536 13.5021 66.9405C14.4845 67.0273 16.9542 66.2616 19.2802 67.605C20.4683 68.2918 21.0812 68.9158 21.3991 69.3638C21.885 69.3445 22.2332 69.0718 22.2412 68.4572C22.2569 67.3149 19.3089 65.756 17.6912 63.1269C16.0735 60.4979 17.4312 58.5623 19.4823 58.5626C21.5334 58.5629 22.8913 60.0934 23.3242 59.3716C23.7571 58.6497 22.8188 58.0859 22.8765 56.6992C22.9341 55.3126 24.1475 54.3015 24.7398 54.8359C25.3321 55.3702 24.1633 55.9639 23.9601 56.916C23.7568 57.868 25.5055 59.3283 24.4944 60.3394C23.4833 61.3504 22.0242 60.7295 20.6814 61.3791C19.3386 62.0287 19.5112 64.3691 22.7761 67.2578C24.2509 68.5634 25.7106 69.0211 26.8681 69.1319C27.336 66.7919 30.4233 66.5842 32.0051 65.8869C33.6085 65.1791 33.4207 62.94 32.4383 62.8245C31.4559 62.7089 30.1272 62.3623 29.0728 61.1056C28.3741 60.2729 27.5128 59.8351 27.0096 59.6329C26.2342 59.6363 25.6208 59.7044 25.6208 59.7044C25.8493 59.5874 26.0868 59.4889 26.331 59.4099C27.4 59.0451 29.6546 58.5425 32.9297 59.1843C37.6388 60.1088 37.9702 65.0625 38.231 67.4034C38.3471 68.4454 38.3876 69.2844 38.3978 69.8968L46.7765 69.7385C41.2472 67.4373 37.6354 61.6557 36.9737 59.0892C36.312 56.5228 35.2275 53.639 32.939 51.7205C30.6505 49.802 28.0576 50.9666 27.7664 53.136C27.4753 55.3055 30.7167 55.9804 30.7167 55.9804C27.7664 58.3748 24.6841 54.9484 25.5576 51.9855C26.4311 49.0225 29.8834 47.9772 32.9655 50.2658C36.0475 52.5543 37.3181 56.3113 37.3181 56.3113C37.1593 55.306 38.0722 52.0913 41.0751 50.4908C44.078 48.8902 47.5455 49.976 49.5164 52.5821C51.4873 55.1883 50.2573 58.2177 50.8523 60.5062C51.4473 62.7947 53.8941 63.6031 55.1387 61.935C56.3833 60.2668 54.8873 58.8524 54.8873 58.8524C58.909 61.0223 57.5334 63.7738 57.5334 63.7738C55.6414 67.3852 52.6776 65.3209 52.6776 65.3209C49.7803 63.2441 49.2117 59.0768 49.2117 59.0768C49.2117 59.0768 47.6726 62.1385 45.1917 62.1539C42.7107 62.1693 41.3357 59.4449 41.3357 59.4449C41.3357 59.4449 43.0959 59.9655 44.6524 58.1625C46.2088 56.3595 45.3453 53.369 42.4328 53.1383C39.5203 52.9075 37.2858 57.2683 39.5509 61.3521C41.816 65.4358 46.248 68.0194 50.5733 69.3547C53.885 70.3779 57.0007 70.1678 58.2806 70.0134L59.1091 69.1044L62.6814 62.3921L35.6447 35.3554L0.289386 70.7107L35.6447 106.066L62.682 79.0288L59.1091 72.3166L58.2809 71.4078ZM36.5874 40.22C36.7236 40.16 36.8693 40.1248 37.0178 40.1161C37.1664 40.1249 37.3123 40.1602 37.4485 40.2203C38.3738 40.6295 38.6722 42.13 38.1723 43.1212C37.5398 44.3746 37.7226 45.501 38.3101 45.7665C38.8977 46.032 39.0921 45.3523 40.8405 44.9153C42.5888 44.4783 43.3363 46.4908 43.3363 46.4908C43.3363 46.4908 42.3815 45.8812 40.3574 47.2154C38.5387 48.4143 37.2775 51.5051 37.0404 52.1206L37.0178 52.1796L36.9955 52.1208C36.7581 51.5051 35.4958 48.4154 33.6782 47.2154C31.6541 45.8812 30.6996 46.4911 30.6996 46.4911C30.6996 46.4911 31.4471 44.478 33.1952 44.9153C34.9433 45.3526 35.1385 46.0315 35.7255 45.7665C36.3125 45.5015 36.4959 44.3746 35.8636 43.1209C35.3635 42.13 35.6618 40.6295 36.5874 40.22ZM38.1731 98.3011C38.6722 99.291 38.3747 100.793 37.4491 101.202C37.313 101.262 37.1672 101.297 37.0186 101.306C36.8701 101.297 36.7243 101.262 36.5882 101.202C35.6626 100.793 35.3643 99.2923 35.8645 98.3008C36.497 97.0474 36.3139 95.9213 35.7263 95.6558C35.1388 95.3903 34.9441 96.0697 33.196 96.507C31.4479 96.9443 30.7004 94.9312 30.7004 94.9312C30.7004 94.9312 31.655 95.5406 33.6793 94.2066C35.4955 93.0086 36.7581 89.9147 36.9952 89.3004C37.0043 89.2775 37.0117 89.2573 37.0181 89.2416C37.0239 89.2573 37.0313 89.2775 37.0404 89.3004C37.2778 89.916 38.5401 93.0058 40.3574 94.206C42.3818 95.54 43.3361 94.9304 43.3361 94.9304C43.3361 94.9304 42.5886 96.9429 40.8405 96.5061C39.0924 96.0694 38.8972 95.39 38.3101 95.655C37.7231 95.92 37.5395 97.0466 38.1723 98.3003L38.1731 98.3011Z" fill="white"/>
<path d="M64.0137 63.7244L62.682 62.3926L59.1094 69.1046L64.0137 63.7244Z" fill="#E0D3B4"/>
<path d="M28.2572 69.1098C28.5804 68.6906 28.9591 68.3172 29.3827 67.9998C31.4266 66.4323 34.2145 65.9556 35.1528 64.671C36.0911 63.3864 34.9793 61.753 33.3038 62.0995C31.6282 62.4461 30.7903 61.2619 29.909 60.2941C29.4023 59.7371 28.0581 59.6255 27.0081 59.6304C27.5113 59.8325 28.3727 60.2704 29.0714 61.1031C30.1258 62.3598 31.455 62.7064 32.4369 62.8219C33.4187 62.9375 33.6071 65.1766 32.0037 65.8844C30.4219 66.5839 27.3335 66.7904 26.8667 69.1294C27.3295 69.1747 27.7958 69.1682 28.2572 69.1098V69.1098Z" fill="#6BB0B1"/>
<path d="M35.8636 43.1209C36.4958 44.3746 36.313 45.5004 35.7254 45.7664C35.1379 46.0325 34.9435 45.3523 33.1951 44.9153C31.4468 44.4782 30.6995 46.491 30.6995 46.491C30.6995 46.491 31.6541 45.8811 33.6782 47.2154C35.4969 48.4142 36.758 51.5051 36.9954 52.1208L37.0178 52.1795L37.0404 52.1205C37.2775 51.5051 38.5398 48.4153 40.3573 47.2154C42.3814 45.8811 43.3363 46.4907 43.3363 46.4907C43.3363 46.4907 42.5885 44.478 40.8404 44.9153C39.0923 45.3526 38.8971 46.0314 38.3101 45.7664C37.7231 45.5015 37.5397 44.3746 38.1722 43.1211C38.671 42.131 38.3738 40.6294 37.4485 40.2202C37.3122 40.1601 37.1664 40.1249 37.0178 40.116C36.8693 40.1248 36.7235 40.16 36.5874 40.22C35.6618 40.6294 35.3634 42.1299 35.8636 43.1209Z" fill="#EF9700"/>
<path d="M59.1094 72.3168L62.6819 79.0287L64.0139 77.6967L59.1094 72.3168Z" fill="#E0D3B4"/>
<path d="M66.0102 75.7005L71.0008 70.7099L66.0102 65.7192C63.259 68.4721 63.2588 72.949 66.0102 75.7005Z" fill="#EF9700"/>
<path d="M66.0102 75.7004C63.2587 72.9489 63.2582 68.4712 66.0102 65.7192L64.7777 64.4867C61.3466 67.9178 61.3463 73.5004 64.7777 76.9318L66.0105 75.699L66.0102 75.7004Z" fill="white"/>
<path d="M58.2544 70.7107L58.03 70.2888L58.2809 70.0137C57.0012 70.1678 53.8853 70.3782 50.5735 69.355C46.2474 68.0188 41.8157 65.4355 39.5512 61.3523C37.2866 57.2691 39.5206 52.9071 42.4328 53.1382C45.345 53.3693 46.2085 56.3592 44.6521 58.1622C43.0956 59.9651 41.3354 59.4446 41.3354 59.4446C41.3354 59.4446 42.7101 62.1687 45.1914 62.1536C47.6726 62.1384 49.2114 59.0765 49.2114 59.0765C49.2114 59.0765 49.78 63.2438 52.6773 65.3205C52.6773 65.3205 55.6405 67.3843 57.5331 63.7734C57.5331 63.7734 58.9087 61.022 54.887 58.852C54.887 58.852 56.3819 60.2676 55.1384 61.9346C53.8949 63.6017 51.4476 62.7943 50.852 60.5058C50.2564 58.2173 51.4884 55.1865 49.5161 52.5818C47.5439 49.977 44.0788 48.8909 41.0748 50.4904C38.0708 52.0899 37.159 55.3057 37.3178 56.311C37.3178 56.311 36.0478 52.5539 32.9652 50.2654C29.8826 47.9769 26.4289 49.023 25.5573 51.9851C24.6857 54.9472 27.7664 58.3748 30.7164 55.9801C30.7164 55.9801 27.4755 55.3057 27.7661 53.1357C28.0568 50.9658 30.6499 49.8019 32.9387 51.7201C35.2275 53.6384 36.3122 56.5224 36.9734 59.0889C37.6346 61.6553 41.2463 67.437 46.7765 69.7385L38.3973 69.8934C38.4033 70.2403 38.3992 70.5146 38.3928 70.7107C38.3992 70.9062 38.4033 71.1811 38.3975 71.5277L46.7765 71.6823C41.2474 73.9838 37.6352 79.7655 36.974 82.3319C36.3128 84.8984 35.2275 87.7825 32.939 89.7004C30.6505 91.6183 28.057 90.4542 27.7664 88.2848C27.4758 86.1154 30.7164 85.4407 30.7164 85.4407C27.7661 83.0463 24.6841 86.4725 25.5573 89.4357C26.4305 92.3989 29.8831 93.4439 32.9657 91.1554C36.0483 88.8669 37.3172 85.1093 37.3172 85.1093C37.1587 86.1149 38.0711 89.3295 41.0743 90.9304C44.0775 92.5313 47.543 91.4463 49.5156 88.839C51.4881 86.2318 50.2565 83.2035 50.8517 80.9147C51.447 78.6259 53.8933 77.818 55.1379 79.4862C56.3825 81.1543 54.8867 82.5685 54.8867 82.5685C58.9081 80.3988 57.5323 77.6471 57.5323 77.6471C55.6408 74.0356 52.6765 76.1 52.6765 76.1C49.7792 78.1773 49.2103 82.3443 49.2103 82.3443C49.2103 82.3443 47.6715 79.283 45.1906 79.2675C42.7096 79.2521 41.3343 81.9762 41.3343 81.9762C41.3343 81.9762 43.0945 81.4557 44.6512 83.2589C46.208 85.0622 45.3444 88.0516 42.4319 88.2829C39.5194 88.5142 37.2847 84.1525 39.5503 80.0688C41.816 75.985 46.2469 73.4015 50.5724 72.0659C53.8844 71.0429 57.0001 71.253 58.28 71.4074L58.0291 71.1323L58.2544 70.7107Z" fill="#6BB0B1"/>
<path d="M64.7774 76.9332C61.346 73.5018 61.3463 67.9192 64.7774 64.4881L64.0137 63.7244L59.1094 69.1046L58.2808 70.0137L58.0299 70.2888L58.2543 70.7107L58.0299 71.1325L58.2808 71.4077L59.1091 72.3165L64.014 77.6967L64.7774 76.9332Z" fill="#0067BE"/>
<path d="M28.6633 81.6705C28.73 81.6589 28.7948 81.6454 28.8585 81.6308C29.0401 81.5915 29.2181 81.5368 29.3904 81.4673C29.6044 81.3785 29.7833 81.2674 29.9101 81.1278C30.0202 81.0068 30.1296 80.8824 30.2402 80.7581C30.3507 80.6337 30.4621 80.5097 30.5766 80.3886C30.8622 80.0864 31.1655 79.8057 31.5127 79.6003C31.7233 79.4734 31.9521 79.3796 32.1912 79.3221C32.3625 79.2818 32.5378 79.2612 32.7137 79.2606C32.9123 79.2603 33.1103 79.2809 33.3046 79.3221C33.4059 79.3434 33.5085 79.3576 33.6117 79.3646C33.7089 79.3714 33.8064 79.3712 33.9035 79.364C34.1279 79.3485 34.3475 79.2919 34.5514 79.1969C34.6657 79.1433 34.7737 79.0773 34.8735 79.0001C34.9381 78.9497 34.9991 78.8948 35.056 78.8357C35.1118 78.7774 35.163 78.7149 35.2093 78.6488C35.4223 78.3498 35.5223 77.985 35.4916 77.6192C35.4845 77.535 35.4705 77.4514 35.4497 77.3694C35.3925 77.1458 35.2922 76.9356 35.1544 76.7504C35.0942 76.6686 35.0285 76.591 34.9576 76.5183C34.8827 76.442 34.8036 76.3699 34.7207 76.3024C34.6783 76.2676 34.6342 76.2334 34.5887 76.1995C34.4457 76.0945 34.2973 75.9972 34.1439 75.9081C34.0377 75.8456 33.9269 75.7843 33.8117 75.7242C33.6391 75.6337 33.4571 75.545 33.2685 75.4567C32.0732 74.8973 30.5973 74.3511 29.3835 73.4208C28.9659 73.1073 28.5917 72.7397 28.2707 72.3278L28.2588 72.3115C27.7976 72.2533 27.3313 72.2466 26.8686 72.2917C27.3363 74.6315 30.4235 74.8391 32.0054 75.537C33.6087 76.2447 33.4212 78.4836 32.4388 78.5992C31.4564 78.7147 30.1274 79.0616 29.073 80.3183C28.3744 81.151 27.513 81.5889 27.0098 81.7904C27.3384 81.7926 27.695 81.7824 28.046 81.7513C28.2558 81.7333 28.4642 81.7069 28.6633 81.6705Z" fill="#6BB0B1"/>
<path d="M34.7199 76.3032C34.8028 76.3708 34.8818 76.4428 34.9567 76.5191C34.8818 76.4428 34.8028 76.3708 34.7199 76.3032Z" fill="white"/>
<path d="M33.2677 75.4575C33.4557 75.5452 33.6382 75.6345 33.8108 75.7249C33.6382 75.6345 33.4563 75.5457 33.2677 75.4575Z" fill="white"/>
<path d="M33.8108 75.725C33.926 75.7851 34.0368 75.8464 34.1431 75.9089C34.0366 75.8462 33.9259 75.7849 33.8108 75.725Z" fill="white"/>
<path d="M34.1431 75.9089C34.2964 75.998 34.4449 76.0953 34.5878 76.2004C34.4449 76.0953 34.2964 75.998 34.1431 75.9089V75.9089Z" fill="white"/>
<path d="M34.8735 79.0001C34.7737 79.0773 34.6657 79.1434 34.5515 79.1969C34.6657 79.1434 34.7737 79.0773 34.8735 79.0001V79.0001Z" fill="white"/>
<path d="M28.6633 81.6704C28.4642 81.7068 28.2558 81.7333 28.0451 81.7521C28.2558 81.7333 28.4642 81.7068 28.6633 81.6704Z" fill="white"/>
<path d="M33.6118 79.3646C33.7089 79.3714 33.8064 79.3712 33.9034 79.364C33.8064 79.3712 33.7089 79.3714 33.6118 79.3646V79.3646Z" fill="white"/>
<path d="M29.3904 81.4673C29.2181 81.5369 29.0401 81.5916 28.8585 81.6308C29.0401 81.5916 29.2181 81.5369 29.3904 81.4673V81.4673Z" fill="white"/>
<path d="M35.2093 78.6488C35.163 78.7149 35.1118 78.7774 35.056 78.8357C35.1118 78.7774 35.163 78.7149 35.2093 78.6488V78.6488Z" fill="white"/>
<path d="M35.0549 78.8369C34.998 78.8959 34.937 78.9508 34.8724 79.0012C34.937 78.9508 34.998 78.8959 35.0549 78.8369V78.8369Z" fill="white"/>
<path d="M19.972 68.9022C20.4652 69.2091 20.9814 69.3778 21.3977 69.3613C21.0798 68.9132 20.4658 68.2882 19.2788 67.6024C16.9528 66.2591 14.4828 67.0245 13.5007 66.9379C12.5186 66.8513 12.3741 65.7534 12.2729 65.248C12.1717 64.7426 11.2905 65.3056 11.1027 66.7645C10.9842 67.686 11.7005 68.4624 12.2448 68.9102C12.7295 68.7012 13.2956 68.4533 13.9628 68.1511C16.3895 67.0535 18.903 68.238 19.972 68.9022Z" fill="#EF9700"/>
<path d="M13.9631 73.2699C13.2955 72.968 12.7306 72.7191 12.2447 72.5106C11.7002 72.9587 10.9841 73.7354 11.103 74.6566C11.2905 76.1157 12.1717 76.6787 12.2729 76.1733C12.3741 75.6679 12.5183 74.5697 13.5007 74.4834C14.4831 74.3971 16.953 75.162 19.2785 73.8186C20.4669 73.1321 21.0801 72.5078 21.3977 72.0601C20.9816 72.0432 20.4652 72.2123 19.9719 72.5186C18.9029 73.1834 16.3897 74.3676 13.9631 73.2699Z" fill="#EF9700"/>
<path d="M23.9587 84.5079C23.7552 83.5533 25.5044 82.0958 24.493 81.0845C23.4816 80.0731 22.0231 80.6946 20.68 80.0447C19.337 79.3948 19.5098 77.0548 22.7744 74.1657C24.2498 72.8602 25.7089 72.4025 26.867 72.2916C27.3297 72.2465 27.7959 72.2532 28.2572 72.3115C28.2191 72.2607 28.183 72.2108 28.1483 72.1612C28.0525 72.0234 27.9653 71.8798 27.8871 71.7314C27.776 71.5208 27.6881 71.2989 27.6249 71.0693C27.5925 70.9516 27.5684 70.8318 27.553 70.7106C27.5685 70.5896 27.5925 70.4698 27.6247 70.3522C27.6881 70.1227 27.7762 69.9007 27.8874 69.6902C27.9944 69.4868 28.1182 69.2928 28.2574 69.11C27.7961 69.1685 27.3296 69.1751 26.8667 69.1299C25.7087 69.0196 24.2495 68.5613 22.7747 67.2558C19.5098 64.367 19.3366 62.0267 20.68 61.3771C22.0233 60.7275 23.4824 61.3478 24.493 60.3373C25.5035 59.3268 23.7562 57.8674 23.9586 56.9139C24.161 55.9605 25.3306 55.3682 24.7384 54.8339C24.1461 54.2995 22.9329 55.3103 22.875 56.6972C22.8171 58.0841 23.7562 58.6471 23.3228 59.3695C22.8894 60.0919 21.5317 58.5606 19.4809 58.5605C17.43 58.5605 16.0718 60.4956 17.6889 63.1252C19.306 65.7547 22.2535 67.3142 22.2389 68.4555C22.2309 69.0701 21.8827 69.3428 21.3969 69.3621C20.9805 69.3786 20.4644 69.2098 19.9711 68.903C18.9021 68.2387 16.3886 67.0542 13.962 68.1519C13.2947 68.4541 12.7298 68.7031 12.2439 68.911C10.9626 69.4599 10.2482 69.7166 9.7875 69.8421C9.41913 69.9424 9.20683 70.2077 9.09543 70.4663C9.06143 70.545 9.03502 70.6268 9.01658 70.7106C9.03477 70.7944 9.06118 70.8762 9.09543 70.9549C9.20682 71.2135 9.41914 71.4788 9.78723 71.5789C10.248 71.7049 10.9624 71.961 12.2437 72.51C12.7287 72.7192 13.2944 72.9674 13.962 73.2693C16.3886 74.367 18.9016 73.1825 19.9708 72.518C20.4641 72.2117 20.9805 72.0426 21.3966 72.0595C21.8821 72.0785 22.2309 72.3512 22.2387 72.966C22.253 74.107 19.3066 75.667 17.6884 78.2961C16.0702 80.9251 17.4298 82.861 19.4809 82.8612C21.532 82.8615 22.8897 81.3301 23.3231 82.052C23.7565 82.7738 22.8171 83.3377 22.8753 84.7243C22.9335 86.1109 24.1461 87.1223 24.7387 86.5876C25.3312 86.053 24.161 85.4613 23.9587 84.5079Z" fill="#E0D3B4"/>
<path d="M38.2302 74.021C38.3462 72.9791 38.3884 72.1389 38.3975 71.5277C38.4033 71.1811 38.3992 70.9062 38.3928 70.7107C38.3992 70.5147 38.4033 70.2403 38.3972 69.8935C38.387 69.2811 38.3462 68.4418 38.2304 67.4001C37.9704 65.06 37.6387 60.1061 32.9291 59.181C29.6557 58.5391 27.4002 59.0409 26.3304 59.4065C26.0862 59.4856 25.8487 59.584 25.6202 59.701C25.6202 59.701 26.2345 59.6337 27.009 59.6296C28.0589 59.6246 29.4031 59.7363 29.9099 60.2933C30.7911 61.2611 31.6287 62.4456 33.3046 62.0987C34.9805 61.7518 36.0925 63.3844 35.1536 64.6701C34.2148 65.9558 31.4266 66.4323 29.3835 67.9989C28.9599 68.3164 28.5813 68.6898 28.258 69.109C28.1188 69.2918 27.995 69.4858 27.888 69.6891C27.7768 69.8997 27.6887 70.1216 27.6252 70.3511C27.593 70.4688 27.5691 70.5886 27.5535 70.7096C27.569 70.8307 27.593 70.9506 27.6255 71.0683C27.6887 71.2978 27.7766 71.5198 27.8877 71.7303C27.9949 71.9335 28.1187 72.1276 28.2578 72.3104L28.2696 72.3267C28.5906 72.7386 28.9648 73.1062 29.3824 73.4197C30.5962 74.35 32.0721 74.8962 33.2674 75.4556C33.4554 75.5433 33.638 75.6327 33.8106 75.7231C33.9258 75.7832 34.0366 75.8445 34.1428 75.907C34.2962 75.9961 34.4447 76.0934 34.5876 76.1984C34.6331 76.2324 34.6772 76.2665 34.7196 76.3013C34.8025 76.3688 34.8816 76.4409 34.9565 76.5172C35.0274 76.5899 35.0932 76.6675 35.1534 76.7493C35.2911 76.9345 35.3915 77.1448 35.4487 77.3683C35.4694 77.4503 35.4834 77.5339 35.4906 77.6181C35.5213 77.9835 35.4215 78.348 35.2091 78.6469C35.1627 78.713 35.1115 78.7755 35.0557 78.8338C34.9989 78.8929 34.9379 78.9478 34.8732 78.9981C34.7734 79.0754 34.6654 79.1414 34.5512 79.195C34.3472 79.2899 34.1276 79.3466 33.9032 79.3621C33.8061 79.3693 33.7086 79.3695 33.6115 79.3626C33.5083 79.3556 33.4056 79.3415 33.3043 79.3202C33.1101 79.279 32.912 79.2584 32.7135 79.2587C32.5375 79.2593 32.3622 79.2799 32.191 79.3202C31.9519 79.3777 31.723 79.4715 31.5124 79.5984C31.1658 79.8033 30.8614 80.0839 30.5763 80.3867C30.4619 80.5077 30.3505 80.6318 30.2399 80.7562C30.1294 80.8805 30.0199 81.0049 29.9099 81.1259C29.7831 81.2654 29.6041 81.3765 29.3902 81.4653C29.2179 81.5349 29.0399 81.5896 28.8583 81.6288C28.7946 81.6434 28.7292 81.6564 28.6631 81.6685C28.464 81.7049 28.2556 81.7314 28.0449 81.7501C27.6939 81.7813 27.3371 81.7912 27.0087 81.7893C26.2337 81.7863 25.6196 81.7182 25.6196 81.7182C25.8482 81.835 26.0857 81.9335 26.3299 82.0126C27.3989 82.3774 29.6535 82.8801 32.9288 82.2385C37.6374 81.3151 37.9702 76.3611 38.2302 74.021Z" fill="#0067BE"/>
<path d="M40.8404 96.5061C42.5885 96.9428 43.336 94.9303 43.336 94.9303C43.336 94.9303 42.3828 95.5394 40.3574 94.206C38.5387 93.0071 37.2792 89.9146 37.0404 89.3003C37.0313 89.2774 37.0238 89.2573 37.0181 89.2416C37.0117 89.2573 37.0043 89.2774 36.9952 89.3003C36.7581 89.9146 35.4955 93.0085 33.6793 94.2065C31.6549 95.5405 30.7004 94.9311 30.7004 94.9311C30.7004 94.9311 31.4479 96.9437 33.196 96.5069C34.9441 96.0702 35.1393 95.3908 35.7263 95.6557C36.3133 95.9207 36.497 97.0473 35.8644 98.3008C35.3643 99.2923 35.6626 100.793 36.5882 101.202C36.7243 101.262 36.8701 101.297 37.0186 101.306C37.1672 101.297 37.313 101.262 37.449 101.202C38.3746 100.793 38.6733 99.292 38.1731 98.3011C37.5403 97.0473 37.7234 95.9213 38.3109 95.6558C38.8985 95.3902 39.0923 96.0688 40.8404 96.5061Z" fill="#EF9700"/>
<path d="M60.9523 111.47C60.8279 111.581 60.7036 111.69 60.5825 111.8C60.7036 111.69 60.8279 111.581 60.9523 111.47Z" fill="white"/>
<path d="M61.3218 111.134C61.624 110.848 61.9047 110.545 62.1104 110.198C61.9047 110.545 61.624 110.848 61.3218 111.134Z" fill="white"/>
<path d="M64.3401 106.261C64.5638 106.319 64.7742 106.419 64.9594 106.557C65.0413 106.617 65.1188 106.683 65.1916 106.754C65.1188 106.683 65.0413 106.617 64.9594 106.557C64.7742 106.419 64.5638 106.319 64.3401 106.261V106.261Z" fill="white"/>
<path d="M69.3841 113.44L69.3997 113.453L69.3841 113.44Z" fill="white"/>
<path d="M64.3401 106.262C64.2581 106.241 64.1746 106.227 64.0903 106.22C64.1746 106.227 64.2581 106.241 64.3401 106.262V106.262Z" fill="white"/>
<path d="M62.3886 109.519C62.3311 109.759 62.2372 109.987 62.1104 110.198C62.2372 109.987 62.3311 109.759 62.3886 109.519V109.519Z" fill="white"/>
<path d="M62.4498 108.997C62.4492 109.173 62.4287 109.348 62.3885 109.52C62.4287 109.348 62.4492 109.173 62.4498 108.997V108.997Z" fill="white"/>
<path d="M69.3939 82.6013L62.682 79.0287L35.6447 106.066L71.0008 141.422L106.356 106.067L79.3186 79.0293L72.6069 82.6021L71.6973 83.4301C71.5429 84.7095 71.3328 87.8257 72.356 91.1375C73.6919 95.4633 76.2752 99.895 80.3586 102.16C84.4421 104.425 88.8041 102.191 88.5725 99.2779C88.3409 96.3652 85.3517 95.5024 83.5488 97.0589C81.7458 98.6154 82.2664 100.376 82.2664 100.376C82.2664 100.376 79.5419 99.0006 79.5574 96.5196C79.5728 94.0386 82.6345 92.4995 82.6345 92.4995C82.6345 92.4995 78.4669 91.9307 76.3901 89.0334C76.3901 89.0334 74.3263 86.0702 77.9372 84.1776C77.9372 84.1776 80.6887 82.802 82.8584 86.8235C82.8584 86.8235 81.4428 85.3285 79.7758 86.572C78.1087 87.8155 78.916 90.2628 81.2046 90.8584C83.4931 91.454 86.5241 90.2223 89.1289 92.1946C91.7337 94.1668 92.8197 97.6319 91.2203 100.636C89.6208 103.64 86.4047 104.551 85.3994 104.393C85.3994 104.393 89.1564 105.663 91.445 108.745C93.7335 111.828 92.6874 115.282 89.7255 116.153C86.7637 117.025 83.3356 113.944 85.7306 110.994C85.7306 110.994 86.405 114.235 88.5747 113.944C90.7443 113.653 91.9085 111.06 89.9902 108.772C88.072 106.483 85.1877 105.398 82.6212 104.737C80.0548 104.076 74.2734 100.464 71.9719 94.9339L71.817 103.313C72.4288 103.323 73.2692 103.365 74.3117 103.48C76.6521 103.741 81.6057 104.072 82.5308 108.782C83.1727 112.055 82.6711 114.311 82.3055 115.381C82.2262 115.625 82.1278 115.862 82.011 116.091C82.011 116.091 82.078 115.476 82.0822 114.702C81.8804 114.199 81.4425 113.337 80.6098 112.639C79.3528 111.584 79.0065 110.255 78.8907 109.273C78.7749 108.291 76.5363 108.103 75.8285 109.706C75.129 111.288 74.9222 114.376 72.5832 114.843C72.6935 116.001 73.1517 117.46 74.4576 118.935C77.3461 122.2 79.6864 122.373 80.3363 121.03C80.9862 119.687 80.3655 118.228 81.3761 117.217C82.3866 116.207 83.8457 117.954 84.7994 117.751C85.7532 117.549 86.3449 116.379 86.8792 116.971C87.4136 117.564 86.4028 118.777 85.0159 118.835C83.629 118.893 83.066 117.954 82.3436 118.387C81.6212 118.82 83.1525 120.178 83.1528 122.229C83.1531 124.28 81.2148 125.639 78.5854 124.022C75.9561 122.405 74.3966 119.457 73.2554 119.472C72.6408 119.48 72.3681 119.828 72.3488 120.314C72.7966 120.632 73.422 121.246 74.1077 122.433C75.4507 124.759 74.6853 127.229 74.7722 128.211C74.859 129.193 75.9567 129.338 76.4621 129.439C76.9675 129.54 76.4042 130.421 74.9453 130.609C74.0241 130.728 73.2474 130.011 72.7996 129.467C72.2507 130.748 71.9943 131.463 71.8688 131.923C71.7682 132.292 71.5029 132.504 71.2443 132.615C71.1656 132.649 71.0838 132.676 71 132.694C70.9162 132.676 70.8344 132.649 70.7557 132.615C70.4968 132.504 70.2318 132.292 70.1315 131.923C70.0054 131.462 69.7493 130.748 69.2003 129.467C68.7523 130.011 67.9756 130.727 67.0546 130.609C65.5955 130.421 65.0322 129.54 65.5379 129.439C66.0436 129.338 67.1412 129.193 67.2278 128.211C67.3144 127.229 66.549 124.758 67.8923 122.433C68.5791 121.245 69.2031 120.631 69.6511 120.314C69.6318 119.828 69.3592 119.479 68.7446 119.472C67.6022 119.456 66.0436 122.404 63.4143 124.022C60.785 125.64 58.8494 124.281 58.8491 122.23C58.8488 120.178 60.3802 118.821 59.6583 118.387C58.9365 117.954 58.3724 118.893 56.986 118.835C55.5997 118.777 54.5878 117.564 55.1227 116.972C55.6576 116.379 56.2493 117.55 57.2025 117.752C58.1556 117.954 59.6148 116.206 60.6259 117.217C61.6369 118.228 61.016 119.688 61.6656 121.03C62.3152 122.373 64.6556 122.201 67.5446 118.936C68.8504 117.461 69.3079 116.001 69.419 114.844C67.0789 114.376 66.8713 111.288 66.1737 109.707C65.4659 108.104 63.227 108.291 63.1112 109.273C62.9954 110.255 62.6491 111.585 61.3924 112.639C60.5597 113.338 60.1216 114.199 59.92 114.702C59.923 115.477 59.9914 116.092 59.9914 116.092C59.8744 115.863 59.7759 115.625 59.6967 115.381C59.3319 114.312 58.8292 112.057 59.4711 108.782C60.3956 104.073 65.3493 103.742 67.6902 103.481C68.7322 103.365 69.5723 103.323 70.1836 103.314L70.0281 94.9339C67.7269 100.463 61.9449 104.075 59.3788 104.737C56.8126 105.398 53.9282 106.483 52.0103 108.772C50.0924 111.06 51.2559 113.653 53.4256 113.944C55.5953 114.235 56.27 110.994 56.27 110.994C58.6641 113.944 55.2382 117.027 52.2747 116.153C49.3112 115.28 48.2665 111.827 50.5553 108.745C52.8441 105.663 56.6008 104.392 56.6008 104.392C55.5956 104.551 52.3806 103.639 50.78 100.636C49.1794 97.6327 50.263 94.1663 52.87 92.1957C55.477 90.2251 58.5055 91.4548 60.7941 90.8593C63.0826 90.2637 63.8893 87.8191 62.2229 86.5734C60.5564 85.3277 59.1405 86.8246 59.1405 86.8246C61.3099 82.8029 64.0617 84.1787 64.0617 84.1787C67.6734 86.0705 65.6088 89.0345 65.6088 89.0345C63.5315 91.9318 59.3644 92.5006 59.3644 92.5006C59.3644 92.5006 62.4258 94.0395 62.4415 96.5207C62.4572 99.0019 59.7325 100.377 59.7325 100.377C59.7325 100.377 60.2531 98.6165 58.4501 97.06C56.6472 95.5036 53.6572 96.3666 53.4262 99.2793C53.1951 102.192 57.5562 104.426 61.6403 102.161C65.7243 99.8956 68.3073 95.4641 69.6432 91.1388C70.6667 87.8246 70.4574 84.7098 70.303 83.4299L69.3939 82.6013ZM98.5904 105.848C97.3364 105.215 96.2106 105.398 95.9448 105.986C95.679 106.574 96.3589 106.768 96.7957 108.516C97.2324 110.264 95.2202 111.012 95.2202 111.012C95.2202 111.012 95.8298 110.057 94.4956 108.033C93.297 106.214 90.2061 104.953 89.5904 104.716L89.5317 104.693L89.5907 104.671C90.2061 104.434 93.2973 103.173 94.4959 101.354C95.8301 99.3298 95.2205 98.3749 95.2205 98.3749C95.2205 98.3749 97.2332 99.1227 96.7962 100.871C96.3592 102.619 95.6801 102.814 95.9451 103.401C96.21 103.988 97.3369 104.172 98.5904 103.539C99.5802 103.04 101.082 103.338 101.491 104.263C101.551 104.399 101.586 104.545 101.595 104.693C101.587 104.842 101.552 104.988 101.491 105.124C101.081 106.048 99.5808 106.347 98.5898 105.847L98.5904 105.848ZM46.0541 103.402C46.3188 102.815 45.6402 102.619 45.2029 100.871C44.7656 99.1233 46.7787 98.3758 46.7787 98.3758C46.7787 98.3758 46.1694 99.3303 47.5033 101.355C48.7022 103.173 51.7947 104.433 52.4087 104.671L52.4677 104.694L52.4087 104.717C51.793 104.954 48.7033 106.216 47.5036 108.034C46.1694 110.058 46.779 111.013 46.779 111.013C46.779 111.013 44.7662 110.265 45.2032 108.517C45.6402 106.769 46.3194 106.574 46.0541 105.986C45.7889 105.399 44.6628 105.216 43.4091 105.848C42.4178 106.349 40.9171 106.05 40.5082 105.124C40.4481 104.988 40.4129 104.843 40.4042 104.694C40.413 104.545 40.4482 104.4 40.5082 104.264C40.9174 103.338 42.4179 103.039 43.4091 103.54C44.6639 104.171 45.7913 103.987 46.0541 103.402Z" fill="white"/>
<path d="M77.986 77.6967L79.3178 79.0284L72.6061 82.6013L77.986 77.6967Z" fill="#E0D3B4"/>
<path d="M72.6009 113.454C73.0201 113.13 73.3935 112.752 73.7109 112.328C75.2782 110.284 75.7549 107.496 77.0398 106.558C78.3246 105.62 79.9575 106.731 79.6109 108.407C79.2643 110.082 80.4486 110.92 81.4164 111.801C81.9736 112.308 82.0853 113.653 82.08 114.702C81.8782 114.199 81.4403 113.338 80.6077 112.639C79.3506 111.585 79.0043 110.256 78.8885 109.274C78.7727 108.291 76.5341 108.104 75.8263 109.707C75.1268 111.289 74.92 114.377 72.581 114.844C72.5359 114.381 72.5426 113.915 72.6009 113.454V113.454Z" fill="#6BB0B1"/>
<path d="M98.5899 105.847C97.3359 105.215 96.2101 105.397 95.9443 105.985C95.6785 106.573 96.3584 106.767 96.7952 108.515C97.2319 110.263 95.2197 111.011 95.2197 111.011C95.2197 111.011 95.8293 110.056 94.4951 108.032C93.2965 106.214 90.2056 104.953 89.5899 104.715L89.5317 104.693L89.5907 104.671C90.2062 104.434 93.2973 103.173 94.4959 101.354C95.8301 99.3298 95.2205 98.375 95.2205 98.375C95.2205 98.375 97.2333 99.1227 96.7963 100.871C96.3592 102.619 95.6801 102.814 95.9451 103.401C96.2101 103.988 97.3369 104.172 98.5904 103.539C99.5802 103.04 101.082 103.338 101.491 104.263C101.551 104.399 101.586 104.545 101.595 104.693C101.587 104.842 101.552 104.988 101.491 105.124C101.081 106.048 99.5808 106.347 98.5899 105.847Z" fill="#EF9700"/>
<path d="M69.3939 82.6013L62.682 79.0287L64.014 77.6967L69.3939 82.6013Z" fill="#E0D3B4"/>
<path d="M66.0102 75.7005L71.0008 70.7098L75.9915 75.7005C73.2386 78.4516 68.7614 78.4516 66.0102 75.7005Z" fill="#EF9700"/>
<path d="M66.0102 75.7004C68.7614 78.4516 73.2395 78.4525 75.9915 75.7005L77.2242 76.9332C73.7931 80.3643 68.2102 80.3643 64.7791 76.9332L66.0119 75.7004L66.0102 75.7004Z" fill="white"/>
<path d="M71 83.4564L71.4219 83.6808L71.6971 83.4299C71.5427 84.7093 71.3326 87.8255 72.3558 91.1372C73.6917 95.4631 76.2749 99.8948 80.3584 102.16C84.4419 104.424 88.8039 102.19 88.5723 99.2777C88.3407 96.365 85.3515 95.5022 83.5485 97.0587C81.7456 98.6152 82.2662 100.375 82.2662 100.375C82.2662 100.375 79.5417 99.0003 79.5572 96.5194C79.5726 94.0384 82.6342 92.4993 82.6342 92.4993C82.6342 92.4993 78.4667 91.9305 76.3899 89.0332C76.3899 89.0332 74.3261 86.07 77.937 84.1774C77.937 84.1774 80.6885 82.8018 82.8581 86.8232C82.8581 86.8232 81.4426 85.3283 79.7755 86.5718C78.1085 87.8153 78.9158 90.2626 81.2043 90.8582C83.4929 91.4538 86.5239 90.2221 89.1287 92.1943C91.7334 94.1666 92.8195 97.6316 91.22 100.636C89.6206 103.64 86.4045 104.551 85.3992 104.392C85.3992 104.392 89.1562 105.662 91.4448 108.745C93.7333 111.828 92.6872 115.281 89.7253 116.153C86.7635 117.025 83.3354 113.944 85.7304 110.994C85.7304 110.994 86.4048 114.235 88.5745 113.944C90.7441 113.653 91.9082 111.06 89.99 108.771C88.0718 106.483 85.1877 105.398 82.6213 104.737C80.0549 104.076 74.2734 100.464 71.972 94.9339L71.817 103.313C71.4704 103.307 71.1958 103.311 71 103.318C70.8046 103.312 70.5296 103.307 70.1828 103.313L70.0281 94.9339C67.7269 100.463 61.945 104.075 59.3788 104.737C56.8126 105.398 53.9283 106.483 52.0103 108.772C50.0924 111.06 51.2559 113.653 53.4256 113.944C55.5953 114.235 56.27 110.994 56.27 110.994C58.6641 113.944 55.2382 117.027 52.2747 116.153C49.3113 115.28 48.2665 111.827 50.5553 108.745C52.8441 105.663 56.6009 104.392 56.6009 104.392C55.5956 104.551 52.3806 103.639 50.78 100.636C49.1795 97.6327 50.2631 94.1663 52.87 92.1957C55.477 90.2251 58.5056 91.4549 60.7941 90.8593C63.0826 90.2637 63.8894 87.8191 62.2229 86.5734C60.5564 85.3277 59.1406 86.8246 59.1406 86.8246C61.31 82.8029 64.0617 84.1787 64.0617 84.1787C67.6734 86.0705 65.6088 89.0345 65.6088 89.0345C63.5315 91.9319 59.3644 92.5007 59.3644 92.5007C59.3644 92.5007 62.4258 94.0395 62.4415 96.5207C62.4573 99.002 59.7325 100.377 59.7325 100.377C59.7325 100.377 60.2531 98.6165 58.4501 97.0601C56.6472 95.5036 53.6572 96.3666 53.4262 99.2794C53.1951 102.192 57.5563 104.426 61.6403 102.161C65.7243 99.8956 68.3073 95.4642 69.6432 91.1389C70.6667 87.8247 70.4574 84.7098 70.303 83.4299L70.5782 83.6808L71 83.4564Z" fill="#6BB0B1"/>
<path d="M64.7775 76.9332C68.2086 80.3644 73.7915 80.3644 77.2226 76.9333L77.9861 77.6967L72.6061 82.6013L71.6973 83.4302L71.4222 83.6811L71.0003 83.4566L70.5784 83.6811L70.3033 83.4302L69.3942 82.6016L64.0142 77.697L64.7777 76.9335L64.7775 76.9332Z" fill="#0067BE"/>
<path d="M60.0402 113.047C60.0517 112.981 60.0653 112.916 60.0796 112.852C60.119 112.67 60.1737 112.492 60.2431 112.32C60.3319 112.106 60.4433 111.927 60.5825 111.8C60.7036 111.69 60.8279 111.581 60.9523 111.47C61.0766 111.36 61.2007 111.248 61.3217 111.134C61.6239 110.848 61.9046 110.545 62.1103 110.198C62.2372 109.987 62.331 109.759 62.3885 109.519C62.4287 109.348 62.4492 109.173 62.4497 108.997C62.4503 108.798 62.4297 108.6 62.3883 108.406C62.3671 108.304 62.3529 108.202 62.3458 108.099C62.3392 108.001 62.3394 107.904 62.3463 107.807C62.362 107.583 62.4187 107.363 62.5134 107.159C62.567 107.045 62.633 106.937 62.7103 106.837C62.7606 106.772 62.8156 106.711 62.8749 106.655C62.9333 106.599 62.9957 106.548 63.0616 106.501C63.3606 106.288 63.7254 106.188 64.0911 106.219C64.1754 106.226 64.2589 106.24 64.3409 106.261C64.5646 106.318 64.775 106.418 64.9602 106.556C65.0421 106.616 65.1196 106.682 65.1924 106.753C65.2687 106.828 65.3407 106.907 65.4083 106.99C65.443 107.032 65.4769 107.076 65.5108 107.122C65.6159 107.265 65.7132 107.413 65.8023 107.566C65.8648 107.673 65.9262 107.784 65.9865 107.899C66.0769 108.072 66.1654 108.253 66.2539 108.442C66.8134 109.637 67.3593 111.113 68.2896 112.327C68.6031 112.745 68.9706 113.119 69.3826 113.44L69.3988 113.452C69.4572 113.913 69.464 114.379 69.419 114.842C67.0789 114.374 66.8713 111.287 66.1737 109.705C65.4659 108.102 63.227 108.289 63.1112 109.272C62.9954 110.254 62.6491 111.583 61.3923 112.638C60.5596 113.336 60.1215 114.197 59.92 114.701C59.9177 114.372 59.9282 114.016 59.9594 113.665C59.9773 113.455 60.0038 113.246 60.0402 113.047Z" fill="#6BB0B1"/>
<path d="M65.4075 106.991C65.3399 106.908 65.2679 106.829 65.1916 106.754C65.2679 106.829 65.3399 106.908 65.4075 106.991V106.991Z" fill="white"/>
<path d="M66.2532 108.443C66.1655 108.255 66.0761 108.072 65.9857 107.9C66.0761 108.072 66.1646 108.254 66.2532 108.443Z" fill="white"/>
<path d="M65.9857 107.9C65.9256 107.785 65.8642 107.674 65.8015 107.567C65.864 107.674 65.9254 107.784 65.9857 107.9Z" fill="white"/>
<path d="M65.8015 107.567C65.7124 107.414 65.6151 107.266 65.51 107.123C65.6151 107.266 65.7124 107.414 65.8015 107.567V107.567Z" fill="white"/>
<path d="M62.7103 106.837C62.6331 106.937 62.567 107.045 62.5135 107.159C62.567 107.045 62.6331 106.937 62.7103 106.837V106.837Z" fill="white"/>
<path d="M60.0402 113.047C60.0052 113.248 59.9774 113.455 59.9586 113.666C59.9774 113.455 60.0038 113.246 60.0402 113.047Z" fill="white"/>
<path d="M62.3458 108.099C62.3393 108.001 62.3395 107.904 62.3464 107.807C62.3395 107.904 62.3393 108.001 62.3458 108.099V108.099Z" fill="white"/>
<path d="M60.2432 112.32C60.1738 112.492 60.119 112.67 60.0796 112.852C60.119 112.67 60.1738 112.492 60.2432 112.32V112.32Z" fill="white"/>
<path d="M63.0616 106.501C62.9957 106.548 62.9333 106.599 62.875 106.655C62.9333 106.599 62.9957 106.548 63.0616 106.501V106.501Z" fill="white"/>
<path d="M62.8738 106.656C62.8145 106.712 62.7595 106.773 62.7092 106.838C62.7595 106.773 62.8145 106.712 62.8738 106.656V106.656Z" fill="white"/>
<path d="M72.8082 121.738C72.5016 121.245 72.3326 120.729 72.3494 120.313C72.7972 120.631 73.4225 121.245 74.1083 122.432C75.4513 124.758 74.6859 127.228 74.7728 128.21C74.8596 129.192 75.9573 129.337 76.4627 129.438C76.9681 129.539 76.4048 130.42 74.9459 130.608C74.0247 130.727 73.248 130.01 72.8002 129.466C73.0092 128.981 73.2574 128.415 73.5593 127.748C74.6569 125.321 73.4724 122.807 72.8082 121.738Z" fill="#EF9700"/>
<path d="M68.4407 127.748C68.7424 128.415 68.9913 128.98 69.1998 129.466C68.7517 130.01 67.975 130.726 67.0541 130.608C65.595 130.42 65.0317 129.539 65.5373 129.438C66.043 129.337 67.1407 129.192 67.2273 128.21C67.3138 127.228 66.5484 124.757 67.8918 122.432C68.5786 121.244 69.2026 120.63 69.6506 120.313C69.6672 120.729 69.4984 121.245 69.1918 121.738C68.5273 122.808 67.3431 125.321 68.4407 127.748Z" fill="#EF9700"/>
<path d="M57.2025 117.752C58.1571 117.955 59.6148 116.206 60.6259 117.217C61.637 118.228 61.0161 119.688 61.6657 121.03C62.3153 122.373 64.6556 122.201 67.5447 118.936C68.8505 117.461 69.3079 116.001 69.419 114.844C69.464 114.381 69.4573 113.915 69.3989 113.453C69.4496 113.491 69.4998 113.528 69.5492 113.562C69.6869 113.658 69.8305 113.745 69.979 113.823C70.1897 113.934 70.4117 114.022 70.6413 114.086C70.7589 114.118 70.8787 114.142 70.9997 114.157C71.1208 114.142 71.2406 114.118 71.3582 114.086C71.5878 114.023 71.8099 113.935 72.0205 113.823C72.2237 113.716 72.4177 113.592 72.6006 113.453C72.5422 113.915 72.5355 114.381 72.5805 114.844C72.6908 116.002 73.149 117.461 74.4549 118.936C77.3433 122.201 79.6837 122.374 80.3336 121.031C80.9834 119.688 80.3628 118.228 81.3733 117.218C82.3838 116.207 83.843 117.954 84.7967 117.752C85.7504 117.55 86.3421 116.38 86.8765 116.972C87.4108 117.564 86.4 118.777 85.0131 118.835C83.6263 118.893 83.0632 117.954 82.3408 118.388C81.6184 118.821 83.1498 120.179 83.1501 122.23C83.1504 124.281 81.2148 125.639 78.5855 124.022C75.9562 122.405 74.3967 119.457 73.2554 119.472C72.6409 119.48 72.3682 119.828 72.3489 120.314C72.332 120.73 72.5011 121.247 72.8077 121.74C73.4719 122.809 74.6564 125.322 73.5588 127.749C73.2568 128.416 73.0079 128.981 72.7997 129.467C72.2507 130.748 71.9943 131.463 71.8688 131.923C71.7682 132.292 71.503 132.504 71.2443 132.615C71.1657 132.649 71.0838 132.676 71 132.694C70.9162 132.676 70.8344 132.649 70.7557 132.615C70.4968 132.504 70.2319 132.292 70.1315 131.923C70.0055 131.462 69.7493 130.748 69.2004 129.467C68.9911 128.982 68.743 128.416 68.4413 127.749C67.3437 125.322 68.5282 122.809 69.1924 121.74C69.499 121.247 69.6677 120.73 69.6512 120.314C69.6319 119.828 69.3592 119.479 68.7446 119.472C67.6023 119.456 66.0436 122.404 63.4143 124.022C60.785 125.64 58.8494 124.281 58.8491 122.23C58.8489 120.178 60.3802 118.821 59.6584 118.387C58.9365 117.954 58.3724 118.893 56.9861 118.835C55.5997 118.777 54.5878 117.564 55.1227 116.972C55.6576 116.379 56.2493 117.55 57.2025 117.752Z" fill="#E0D3B4"/>
<path d="M67.6894 103.48C68.7314 103.364 69.5715 103.322 70.1828 103.313C70.5296 103.307 70.8045 103.312 71 103.318C71.1958 103.311 71.4704 103.307 71.817 103.313C72.4288 103.323 73.2692 103.365 74.3117 103.48C76.6521 103.741 81.6057 104.072 82.5308 108.782C83.1727 112.055 82.6711 114.311 82.3055 115.381C82.2263 115.625 82.1278 115.862 82.0111 116.091C82.0111 116.091 82.0781 115.476 82.0822 114.702C82.0874 113.652 81.9758 112.308 81.4185 111.801C80.4507 110.92 79.2662 110.082 79.6131 108.406C79.9599 106.73 78.3274 105.618 77.042 106.557C75.7565 107.496 75.2795 110.284 73.7131 112.327C73.3957 112.751 73.0223 113.13 72.6031 113.453C72.4202 113.592 72.2262 113.716 72.0229 113.823C71.8124 113.934 71.5903 114.022 71.3606 114.085C71.2431 114.118 71.1233 114.142 71.0022 114.157C70.8812 114.142 70.7614 114.118 70.6438 114.085C70.4142 114.022 70.1921 113.934 69.9815 113.823C69.7782 113.716 69.5842 113.592 69.4014 113.453L69.3851 113.441C68.9732 113.12 68.6056 112.746 68.2921 112.328C67.3618 111.115 66.8159 109.639 66.2565 108.444C66.1688 108.256 66.0794 108.073 65.989 107.9C65.9289 107.785 65.8675 107.674 65.8048 107.568C65.7157 107.414 65.6185 107.266 65.5134 107.123C65.4794 107.078 65.4455 107.034 65.4108 106.991C65.3433 106.908 65.2712 106.829 65.1949 106.754C65.1222 106.684 65.0446 106.618 64.9627 106.558C64.7775 106.42 64.5671 106.319 64.3435 106.262C64.2615 106.241 64.1779 106.227 64.0937 106.22C63.7283 106.19 63.3639 106.289 63.0649 106.502C62.999 106.548 62.9367 106.6 62.8783 106.655C62.819 106.712 62.764 106.773 62.7137 106.837C62.6364 106.937 62.5704 107.045 62.5168 107.16C62.422 107.363 62.3654 107.583 62.3497 107.807C62.3428 107.905 62.3426 108.002 62.3492 108.099C62.3563 108.202 62.3705 108.305 62.3916 108.406C62.4331 108.601 62.4537 108.799 62.4531 108.997C62.4526 109.173 62.4321 109.349 62.3919 109.52C62.3344 109.759 62.2406 109.988 62.1137 110.199C61.9085 110.545 61.6281 110.85 61.3251 111.134C61.2041 111.249 61.08 111.36 60.9557 111.471C60.8313 111.581 60.7069 111.691 60.5859 111.801C60.4467 111.928 60.3353 112.107 60.2465 112.321C60.1771 112.493 60.1224 112.671 60.083 112.852C60.0686 112.916 60.0557 112.982 60.0435 113.048C60.0085 113.248 59.9807 113.455 59.9619 113.666C59.9308 114.017 59.9209 114.374 59.9225 114.702C59.9255 115.477 59.9939 116.091 59.9939 116.091C59.8769 115.863 59.7784 115.625 59.6992 115.381C59.3344 114.312 58.8317 112.057 59.4736 108.782C60.3948 104.073 65.3493 103.74 67.6894 103.48Z" fill="#0067BE"/>
<path d="M45.2043 100.87C44.7676 99.1219 46.7801 98.3744 46.7801 98.3744C46.7801 98.3744 46.1707 99.3289 47.5047 101.353C48.7036 103.172 51.7961 104.432 52.4101 104.67L52.4691 104.693L52.4101 104.715C51.7944 104.953 48.7047 106.215 47.505 108.032C46.1708 110.056 46.7804 111.011 46.7804 111.011C46.7804 111.011 44.7676 110.263 45.2046 108.516C45.6416 106.768 46.3207 106.572 46.0555 105.985C45.7902 105.398 44.6642 105.215 43.4105 105.847C42.4192 106.347 40.9185 106.049 40.5096 105.123C40.4495 104.987 40.4143 104.841 40.4056 104.693C40.4144 104.544 40.4496 104.398 40.5096 104.262C40.9187 103.337 42.4192 103.038 43.4105 103.538C44.6639 104.171 45.79 103.988 46.0555 103.4C46.321 102.813 45.6416 102.618 45.2043 100.87Z" fill="#EF9700"/>
<path d="M81.0477 29.9506C81.172 29.84 81.2964 29.7306 81.4174 29.6206C81.2953 29.7317 81.1718 29.8398 81.0477 29.9506Z" fill="white"/>
<path d="M80.6782 30.287C80.3758 30.5729 80.0953 30.8759 79.8896 31.2233C80.0953 30.8759 80.3758 30.5729 80.6782 30.287Z" fill="white"/>
<path d="M77.6596 35.1596C77.436 35.1022 77.2258 35.002 77.0406 34.8643C76.9588 34.804 76.8814 34.7382 76.8087 34.6672C76.8814 34.7382 76.9588 34.804 77.0406 34.8643C77.2258 35.002 77.436 35.1022 77.6596 35.1596Z" fill="white"/>
<path d="M72.6172 27.9791L72.6014 27.9668L72.6172 27.9791Z" fill="white"/>
<path d="M77.6595 35.1596C77.7416 35.1802 77.8253 35.1941 77.9096 35.2012C77.8253 35.1941 77.7416 35.1802 77.6595 35.1596V35.1596Z" fill="white"/>
<path d="M79.6114 31.9019C79.669 31.6628 79.7628 31.434 79.8896 31.2233C79.7628 31.434 79.669 31.6628 79.6114 31.9019Z" fill="white"/>
<path d="M79.55 32.4244C79.5508 32.2484 79.5715 32.0732 79.6115 31.9019C79.5715 32.0732 79.5508 32.2484 79.55 32.4244V32.4244Z" fill="white"/>
<path d="M72.6059 58.8199L79.3181 62.3927L106.355 35.3555L71.0001 0.00012207L35.6447 35.3555L62.6815 62.3922L69.3956 58.8213L70.3044 57.993C70.4585 56.7134 70.6689 53.5974 69.646 50.2854C68.3098 45.9593 65.7263 41.5278 61.6431 39.2633C57.5599 36.9988 53.1968 39.231 53.4276 42.1435C53.6584 45.056 56.6486 45.9193 58.4516 44.3628C60.2545 42.8064 59.7342 41.0459 59.7342 41.0459C59.7342 41.0459 62.4581 42.4209 62.443 44.9021C62.4278 47.3834 59.3661 48.9219 59.3661 48.9219C59.3661 48.9219 63.5332 49.4908 65.6102 52.3878C65.6102 52.3878 67.6737 55.3513 64.0631 57.2436C64.0631 57.2436 61.3114 58.6194 59.1417 54.5975C59.1417 54.5975 60.557 56.0927 62.224 54.8492C63.8911 53.6057 63.084 51.1581 60.7952 50.5628C58.5064 49.9675 55.4759 51.1991 52.8712 49.2269C50.2664 47.2546 49.1803 43.7896 50.7798 40.7856C52.3793 37.7816 55.5951 36.8697 56.6006 37.0283C56.6006 37.0283 52.8436 35.7583 50.5548 32.676C48.266 29.5937 49.3124 26.1396 52.2748 25.2678C55.2372 24.396 58.6642 27.4772 56.2698 30.4269C56.2698 30.4269 55.5954 27.186 53.4254 27.4766C51.2554 27.7673 50.0913 30.3607 52.0098 32.6492C53.9283 34.9377 56.8121 36.0227 59.3783 36.6842C61.9445 37.3456 67.7258 40.9571 70.0276 46.487L70.1825 38.1077C69.5702 38.0975 68.7311 38.0565 67.6895 37.9407C65.3494 37.6806 60.3954 37.3489 59.4701 32.6396C58.8282 29.3662 59.33 27.1107 59.6959 26.0407C59.7749 25.7964 59.8734 25.5589 59.9904 25.3304C59.9904 25.3304 59.9228 25.945 59.9187 26.7195C60.1208 27.2227 60.5587 28.084 61.3913 28.7827C62.6481 29.8371 62.995 31.1661 63.1102 32.1482C63.2255 33.1304 65.4649 33.3184 66.1727 31.7151C66.8725 30.1329 67.079 27.0446 69.4177 26.578C69.3074 25.42 68.8489 23.9611 67.5436 22.486C64.6545 19.2214 62.3145 19.048 61.6646 20.3916C61.0147 21.7352 61.6356 23.1938 60.6248 24.2046C59.614 25.2154 58.1546 23.4681 57.2014 23.6702C56.2483 23.8724 55.6557 25.0423 55.1211 24.4503C54.5865 23.8583 55.5978 22.6446 56.9844 22.5869C58.3711 22.5293 58.9346 23.4679 59.6568 23.0347C60.3789 22.6015 58.8478 21.2436 58.8478 19.1928C58.8478 17.1419 60.7834 15.7837 63.4124 17.4014C66.0415 19.0191 67.6015 21.966 68.7424 21.9517C69.357 21.9437 69.63 21.5951 69.649 21.1096C69.201 20.7917 68.5759 20.1776 67.8905 18.9904C66.5469 16.6646 67.3123 14.1947 67.2257 13.2126C67.1391 12.2304 66.0426 12.0846 65.5358 11.9848C65.029 11.8849 65.5934 11.0024 67.0523 10.8146C67.9737 10.696 68.7515 11.411 69.1982 11.9564C69.7472 10.6751 70.0036 9.96095 70.1293 9.49994C70.2294 9.13185 70.4947 8.91954 70.7533 8.80814C70.8321 8.77405 70.914 8.74756 70.9979 8.72901C71.0817 8.74737 71.1635 8.77378 71.2422 8.80787C71.5008 8.91926 71.7658 9.13184 71.8661 9.49966C71.9919 9.96067 72.2483 10.6748 72.7973 11.9561C73.2453 11.4115 74.0218 10.6957 74.9432 10.8143C76.4021 11.0021 76.9651 11.8833 76.4597 11.9845C75.9543 12.0857 74.8561 12.2299 74.7698 13.2123C74.6835 14.1947 75.4486 16.6644 74.105 18.9901C73.4185 20.1785 72.7945 20.7914 72.3464 21.1093C72.3655 21.5949 72.6384 21.9434 73.253 21.9514C74.394 21.9657 75.9543 19.0191 78.5831 17.4011C81.2118 15.7831 83.1477 17.1411 83.1477 19.1925C83.1477 21.2439 81.6166 22.6013 82.3387 23.0344C83.0608 23.4676 83.6241 22.5287 85.011 22.5866C86.3979 22.6445 87.4087 23.8577 86.8744 24.45C86.34 25.0422 85.7464 23.8734 84.794 23.67C83.8417 23.4665 82.382 25.2157 81.3706 24.2043C80.3593 23.193 80.9808 21.7344 80.3309 20.3913C79.681 19.0483 77.3409 19.2211 74.4519 22.4857C73.1466 23.9609 72.6886 25.4203 72.578 26.578C74.9192 27.0443 75.1252 30.1332 75.823 31.7151C76.5308 33.3184 78.77 33.1306 78.8855 32.1482C79.0011 31.1658 79.3476 29.8371 80.6044 28.7827C81.4371 28.084 81.8749 27.2227 82.0768 26.7192C82.0737 25.9441 82.0056 25.3301 82.0056 25.3301C82.1224 25.5587 82.2208 25.7964 82.2998 26.0407C82.6649 27.1094 83.1673 29.3642 82.5256 32.6396C81.6011 37.3487 76.6472 37.6798 74.3063 37.9406C73.2643 38.0567 72.4242 38.0989 71.8132 38.1077L71.9679 46.4867C74.2693 40.9576 80.0507 37.3456 82.6175 36.6842C85.1842 36.0227 88.0677 34.938 89.9859 32.6492C91.9041 30.3604 90.7398 27.7678 88.5704 27.4766C86.401 27.1855 85.726 30.4269 85.726 30.4269C83.3316 27.4766 86.758 24.3943 89.721 25.2678C92.6839 26.1413 93.7292 29.5936 91.4409 32.676C89.1527 35.7583 85.399 37.0277 85.399 37.0277C86.4045 36.8692 89.6189 37.7818 91.2198 40.785C92.8206 43.7882 91.7343 47.2552 89.1284 49.2263C86.5225 51.1975 83.4929 49.9672 81.2044 50.5622C78.9159 51.1572 78.1074 53.604 79.7756 54.8486C81.4437 56.0933 82.8579 54.5974 82.8579 54.5974C80.6882 58.6189 77.9365 57.243 77.9365 57.243C74.3253 55.3513 76.3894 52.3872 76.3894 52.3872C78.4664 49.4902 82.6334 48.9214 82.6334 48.9214C82.6334 48.9214 79.5721 47.3826 79.5566 44.9016C79.5412 42.4206 82.264 41.0467 82.264 41.0467C82.264 41.0467 81.7434 42.8069 83.5469 44.3634C85.3504 45.9198 88.3393 45.0568 88.5706 42.1443C88.802 39.2319 84.4403 36.9971 80.3568 39.2625C76.2733 41.5278 73.6892 45.9593 72.3539 50.2846C71.3309 53.5966 71.541 56.7123 71.6954 57.9922L72.6059 58.8199ZM43.4097 35.5733C44.6631 36.2058 45.7892 36.0227 46.055 35.4354C46.3208 34.8481 45.6411 34.6532 45.2038 32.9051C44.7665 31.157 46.7796 30.4095 46.7796 30.4095C46.7796 30.4095 46.17 31.3638 47.5039 33.3882C48.7028 35.2068 51.7939 36.4677 52.4096 36.7051L52.4681 36.7277C52.4524 36.7335 52.4325 36.7413 52.4093 36.7501C51.7937 36.9875 48.7039 38.2497 47.5039 40.0673C46.1697 42.0914 46.7796 43.046 46.7796 43.046C46.7796 43.046 44.7652 42.2999 45.2038 40.5504C45.6425 38.8009 46.32 38.6071 46.055 38.0201C45.79 37.433 44.6634 37.2494 43.4097 37.8822C42.4196 38.381 40.918 38.0838 40.5091 37.1582C40.4487 37.022 40.4134 36.8761 40.4048 36.7275C40.4136 36.579 40.4488 36.4332 40.5088 36.2971C40.9188 35.3726 42.4193 35.0742 43.4091 35.5755L43.4097 35.5733ZM95.943 38.0195C95.6785 38.606 96.3571 38.8015 96.7941 40.5498C97.2311 42.2982 95.2183 43.0454 95.2183 43.0454C95.2183 43.0454 95.8282 42.0909 94.494 40.0668C93.2952 38.2481 90.204 36.9872 89.5886 36.7495L89.5299 36.7272C89.5453 36.7211 89.5654 36.7137 89.5883 36.7046C90.204 36.4672 93.2952 35.2063 94.494 33.3876C95.828 31.3632 95.2186 30.4087 95.2186 30.4087C95.2186 30.4087 97.2311 31.1562 96.7941 32.9045C96.3571 34.6529 95.678 34.8478 95.9429 35.4349C96.2079 36.0219 97.3345 36.2055 98.5883 35.5727C99.5784 35.0739 101.08 35.3712 101.489 36.2965C101.549 36.4327 101.584 36.5786 101.593 36.7272C101.584 36.8758 101.549 37.0216 101.489 37.1576C101.08 38.0832 99.5795 38.3815 98.5883 37.8816C97.3359 37.2502 96.2088 37.4344 95.9443 38.0209L95.943 38.0195Z" fill="white"/>
<path d="M64.0137 63.7244L62.682 62.3926L69.3939 58.8201L64.0137 63.7244Z" fill="#E0D3B4"/>
<path d="M69.3992 27.9679C68.98 28.2911 68.6065 28.6698 68.2891 29.0934C66.7216 31.1373 66.2449 33.9252 64.9603 34.8635C63.6757 35.8018 62.0425 34.6898 62.3891 33.0142C62.7357 31.3386 61.5512 30.501 60.5834 29.6197C60.0267 29.1127 59.9148 27.7688 59.9197 26.7188C60.1218 27.222 60.5597 28.0834 61.3924 28.7821C62.6491 29.8365 62.996 31.1654 63.1112 32.1476C63.2265 33.1297 65.4659 33.3178 66.1737 31.7144C66.8735 30.1323 67.08 27.0439 69.4187 26.5774C69.464 27.0402 69.4575 27.5065 69.3992 27.9679V27.9679Z" fill="#6BB0B1"/>
<path d="M43.4091 35.5754C44.6625 36.2079 45.7886 36.0248 46.0544 35.4375C46.3202 34.8502 45.6405 34.6553 45.2032 32.9072C44.7659 31.1591 46.779 30.4116 46.779 30.4116C46.779 30.4116 46.1693 31.3659 47.5033 33.3903C48.7022 35.209 51.7933 36.4698 52.409 36.7072L52.4675 36.7299C52.4517 36.7356 52.4319 36.7434 52.4087 36.7522C51.793 36.9896 48.7033 38.2519 47.5033 40.0694C46.1691 42.0935 46.779 43.0481 46.779 43.0481C46.779 43.0481 44.7645 42.302 45.2032 40.5525C45.6419 38.803 46.3194 38.6092 46.0544 38.0222C45.7894 37.4352 44.6628 37.2515 43.4091 37.8843C42.4189 38.3831 40.9174 38.0859 40.5085 37.1603C40.4481 37.0241 40.4128 36.8782 40.4042 36.7296C40.413 36.5811 40.4482 36.4353 40.5082 36.2992C40.9187 35.3725 42.4192 35.0741 43.4091 35.5754Z" fill="#EF9700"/>
<path d="M72.6061 58.82L79.3178 62.3929L77.9863 63.7243L72.6061 58.82Z" fill="#E0D3B4"/>
<path d="M75.9898 65.7209L70.9992 70.7115L66.0086 65.7209C68.7622 62.9689 73.2383 62.9694 75.9898 65.7209Z" fill="#EF9700"/>
<path d="M75.9898 65.7208C73.2383 62.9694 68.7608 62.9686 66.0085 65.7209L64.776 64.4884C68.2072 61.0572 73.7898 61.057 77.2211 64.4884L75.9884 65.7211L75.9898 65.7208Z" fill="white"/>
<path d="M71 57.9651L70.5782 57.7406L70.303 57.9915C70.4571 56.7119 70.6675 53.5959 69.6446 50.2839C68.3084 45.9578 65.7249 41.5264 61.6417 39.2618C57.5585 36.9973 53.1968 39.231 53.4275 42.1434C53.6583 45.0559 56.6486 45.9192 58.4515 44.3627C60.2545 42.8063 59.7342 41.0458 59.7342 41.0458C59.7342 41.0458 62.4581 42.4208 62.4429 44.9021C62.4277 47.3833 59.3661 48.9219 59.3661 48.9219C59.3661 48.9219 63.5331 49.4907 65.6102 52.3877C65.6102 52.3877 67.6737 55.3512 64.0631 57.2435C64.0631 57.2435 61.3113 58.6194 59.1417 54.5974C59.1417 54.5974 60.557 56.0926 62.224 54.8491C63.891 53.6056 63.084 51.158 60.7952 50.5627C58.5064 49.9674 55.4759 51.1991 52.8711 49.2268C50.2664 47.2545 49.1803 43.7895 50.7798 40.7855C52.3792 37.7815 55.595 36.8696 56.6006 37.0282C56.6006 37.0282 52.8436 35.7582 50.5548 32.6759C48.266 29.5936 49.3123 26.1395 52.2747 25.2677C55.2371 24.3959 58.6641 27.4771 56.2697 30.4268C56.2697 30.4268 55.5953 27.1859 53.4253 27.4765C51.2554 27.7672 50.0913 30.3606 52.0098 32.6491C53.9283 34.9377 56.8121 36.0226 59.3782 36.6841C61.9444 37.3456 67.7258 40.957 70.0276 46.4869L70.1825 38.1077C70.5294 38.1137 70.804 38.1093 70.9998 38.1033C71.1952 38.1096 71.4701 38.1137 71.817 38.1077L71.9717 46.4867C74.2732 40.9576 80.0546 37.3456 82.6213 36.6841C85.188 36.0226 88.0715 34.9379 89.9897 32.6491C91.908 30.3604 90.7436 27.7677 88.5742 27.4765C86.4048 27.1854 85.7298 30.4268 85.7298 30.4268C83.3354 27.4765 86.7618 24.3942 89.7248 25.2677C92.6877 26.1412 93.733 29.5936 91.4447 32.6759C89.1565 35.7582 85.3989 37.0276 85.3989 37.0276C86.4045 36.8691 89.6189 37.7818 91.2197 40.7849C92.8206 43.7881 91.7342 47.2551 89.1284 49.2263C86.5225 51.1974 83.4928 49.9671 81.2043 50.5621C78.9158 51.1572 78.1074 53.6039 79.7755 54.8486C81.4437 56.0932 82.8578 54.5974 82.8578 54.5974C80.6882 58.6188 77.9364 57.2429 77.9364 57.2429C74.3253 55.3512 76.3893 52.3872 76.3893 52.3872C78.4664 49.4901 82.6334 48.9213 82.6334 48.9213C82.6334 48.9213 79.572 47.3825 79.5566 44.9015C79.5412 42.4205 82.2639 41.0466 82.2639 41.0466C82.2639 41.0466 81.7434 42.8068 83.5469 44.3633C85.3504 45.9198 88.3392 45.0567 88.5706 42.1443C88.8019 39.2318 84.4402 36.997 80.3567 39.2624C76.2733 41.5277 73.6892 45.9592 72.3538 50.2845C71.3309 53.5965 71.541 56.7122 71.6954 57.9921L71.4202 57.7412L71 57.9651Z" fill="#6BB0B1"/>
<path d="M77.2226 64.4881C73.7912 61.0567 68.2086 61.057 64.7774 64.4881L64.0137 63.7243L69.3955 58.8211L70.3043 57.9929L70.5795 57.742L71.0014 57.9664L71.4232 57.742L71.6984 57.9929L72.6072 58.8212L77.9877 63.7257L77.2239 64.4895L77.2226 64.4881Z" fill="#0067BE"/>
<path d="M81.9601 28.3737C81.9485 28.4404 81.9347 28.5055 81.9201 28.5692C81.881 28.7509 81.8263 28.9288 81.7566 29.1011C81.6681 29.3148 81.5567 29.494 81.4174 29.6205C81.2964 29.7306 81.1721 29.84 81.0477 29.9506C80.9233 30.0611 80.799 30.1728 80.6782 30.287C80.3758 30.5729 80.0953 30.8759 79.8897 31.2233C79.7629 31.434 79.6691 31.6628 79.6115 31.9019C79.5714 32.0732 79.5508 32.2485 79.55 32.4244C79.5499 32.6229 79.5706 32.8208 79.6117 33.015C79.6328 33.1164 79.6468 33.2191 79.6539 33.3224C79.6608 33.4195 79.6606 33.517 79.6534 33.6141C79.6379 33.8385 79.5813 34.0582 79.4863 34.2621C79.4327 34.3764 79.3667 34.4844 79.2894 34.5841C79.2391 34.6487 79.1843 34.7096 79.1254 34.7664C79.0669 34.8222 79.0043 34.8736 78.9381 34.92C78.6394 35.1324 78.275 35.2321 77.9097 35.2012C77.8253 35.1941 77.7417 35.1802 77.6596 35.1596C77.4361 35.1022 77.2258 35.0019 77.0406 34.8643C76.9589 34.804 76.8814 34.7381 76.8087 34.6671C76.7322 34.5925 76.66 34.5135 76.5925 34.4306C76.5578 34.3881 76.5236 34.344 76.4897 34.2985C76.3848 34.1555 76.2875 34.007 76.1983 33.8537C76.136 33.7473 76.0747 33.6366 76.0144 33.5215C75.9239 33.3489 75.8351 33.1669 75.7469 32.9783C75.1877 31.7828 74.6415 30.3068 73.7109 29.0933C73.3977 28.6755 73.0302 28.3012 72.6182 27.9802L72.6017 27.9687C72.5434 27.5074 72.5368 27.041 72.5821 26.5782C74.9233 27.0444 75.1293 30.1334 75.8271 31.7152C76.5349 33.3186 78.7741 33.1308 78.8896 32.1484C79.0051 31.166 79.3517 29.8373 80.6085 28.7829C81.4412 28.0842 81.879 27.2228 82.0808 26.7194C82.083 27.048 82.0728 27.4045 82.0417 27.7555C82.0229 27.9662 81.9962 28.1749 81.9601 28.3737Z" fill="#6BB0B1"/>
<path d="M76.5925 34.4306C76.66 34.5135 76.7322 34.5925 76.8087 34.6672C76.7322 34.5925 76.66 34.5135 76.5925 34.4306V34.4306Z" fill="white"/>
<path d="M75.7469 32.9783C75.8346 33.1663 75.9239 33.3488 76.0143 33.5214C75.9239 33.3488 75.8351 33.1669 75.7469 32.9783Z" fill="white"/>
<path d="M76.0143 33.5215C76.0748 33.6364 76.1361 33.7471 76.1982 33.8537C76.1353 33.7475 76.074 33.6367 76.0143 33.5215Z" fill="white"/>
<path d="M76.1982 33.8538C76.2875 34.0079 76.3849 34.1572 76.49 34.301C76.3849 34.1572 76.2875 34.0079 76.1982 33.8538V33.8538Z" fill="white"/>
<path d="M79.2894 34.5841C79.3667 34.4844 79.4327 34.3764 79.4863 34.2621C79.4327 34.3764 79.3667 34.4844 79.2894 34.5841V34.5841Z" fill="white"/>
<path d="M81.9601 28.3737C81.9962 28.1749 82.0229 27.9661 82.0417 27.7555C82.0229 27.9661 81.9962 28.1749 81.9601 28.3737Z" fill="white"/>
<path d="M79.6539 33.3224C79.6607 33.4196 79.6605 33.5171 79.6533 33.6142C79.6605 33.5171 79.6607 33.4196 79.6539 33.3224V33.3224Z" fill="white"/>
<path d="M81.7566 29.1011C81.8262 28.9288 81.8809 28.7509 81.92 28.5692C81.8809 28.7509 81.8262 28.9288 81.7566 29.1011V29.1011Z" fill="white"/>
<path d="M78.9381 34.92C79.0043 34.8736 79.0669 34.8223 79.1253 34.7664C79.0669 34.8223 79.0043 34.8736 78.9381 34.92V34.92Z" fill="white"/>
<path d="M79.1253 34.7664C79.1843 34.7096 79.2391 34.6487 79.2894 34.5842C79.2391 34.6487 79.1843 34.7096 79.1253 34.7664V34.7664Z" fill="white"/>
<path d="M69.1918 19.6823C69.4984 20.1759 69.6672 20.692 69.6507 21.1084C69.2026 20.7905 68.5775 20.1764 67.8921 18.9892C66.5485 16.6634 67.3139 14.1935 67.2273 13.2113C67.1407 12.2292 66.0442 12.0834 65.5374 11.9835C65.0306 11.8837 65.595 11.0011 67.0539 10.8134C67.9753 10.6948 68.7532 11.4098 69.1998 11.9552C68.9906 12.4402 68.7427 13.0062 68.4408 13.6732C67.3428 16.1001 68.5273 18.6136 69.1918 19.6823Z" fill="#EF9700"/>
<path d="M73.5595 13.6735C73.2573 13.0062 73.0084 12.4412 72.8002 11.9551C73.2483 11.4106 74.0247 10.6948 74.9462 10.8134C76.405 11.0011 76.968 11.8823 76.4626 11.9835C75.9572 12.0847 74.859 12.2289 74.7727 13.2113C74.6864 14.1937 75.4516 16.6634 74.108 18.9892C73.4214 20.1775 72.7974 20.7905 72.3494 21.1084C72.3328 20.692 72.5016 20.1759 72.8079 19.6826C73.4727 18.6136 74.6572 16.1001 73.5595 13.6735Z" fill="#EF9700"/>
<path d="M84.7973 23.6693C83.8427 23.4658 82.3852 25.215 81.3739 24.2036C80.3625 23.1923 80.984 21.7337 80.3341 20.3906C79.6842 19.0476 77.3442 19.2205 74.4551 22.485C73.1498 23.9602 72.6919 25.4196 72.5813 26.5773C72.536 27.0401 72.5425 27.5065 72.6009 27.9678C72.5504 27.9295 72.5005 27.8934 72.4506 27.8589C72.3129 27.763 72.1693 27.6758 72.0207 27.5978C71.8103 27.4866 71.5885 27.3986 71.359 27.3353C71.2412 27.3032 71.1214 27.2791 71.0003 27.2634C70.8792 27.2791 70.7594 27.3031 70.6416 27.3353C70.4122 27.3988 70.1903 27.4868 69.9798 27.5978C69.7764 27.7049 69.5823 27.8288 69.3994 27.9681C69.458 27.5066 69.4647 27.0401 69.4196 26.5771C69.3093 25.419 68.8507 23.9602 67.5455 22.485C64.6564 19.2205 62.3163 19.047 61.6665 20.3906C61.0166 21.7342 61.6375 23.1928 60.6267 24.2036C59.6159 25.2144 58.1565 23.4672 57.2033 23.6693C56.2501 23.8714 55.6576 25.0413 55.123 24.4493C54.5883 23.8573 55.5997 22.6436 56.9863 22.586C58.3729 22.5283 58.9365 23.4669 59.6586 23.0337C60.3808 22.6006 58.8497 21.2426 58.8497 19.1918C58.8497 17.141 60.7853 15.7827 63.4143 17.4004C66.0433 19.0181 67.6034 21.965 68.7443 21.9507C69.3589 21.9427 69.6319 21.5942 69.6509 21.1086C69.6674 20.6923 69.4987 20.1761 69.1921 19.6826C68.5276 18.6139 67.3431 16.1004 68.441 13.6734C68.7429 13.0065 68.9919 12.4415 69.2001 11.9554C69.749 10.6741 70.0055 9.95999 70.1312 9.49898C70.2313 9.13089 70.4965 8.91857 70.7552 8.80718C70.834 8.77309 70.9159 8.7466 70.9997 8.72805C71.0835 8.74641 71.1653 8.77281 71.244 8.80691C71.5027 8.9183 71.7676 9.13088 71.868 9.4987C71.9937 9.95971 72.2502 10.6738 72.7991 11.9551C73.0084 12.4401 73.2563 13.0062 73.5585 13.6734C74.6561 16.1001 73.4713 18.6133 72.8068 19.6826C72.5005 20.1759 72.3318 20.692 72.3483 21.1084C72.3673 21.5939 72.6403 21.9424 73.2549 21.9504C74.3958 21.9648 75.9562 19.0181 78.5849 17.4001C81.2137 15.7822 83.1495 17.1401 83.1495 19.1915C83.1495 21.2429 81.6184 22.6003 82.3406 23.0335C83.0627 23.4666 83.626 22.5278 85.0129 22.5857C86.3998 22.6436 87.4106 23.8568 86.8762 24.449C86.3419 25.0413 85.7507 23.8717 84.7973 23.6693Z" fill="#E0D3B4"/>
<path d="M74.3104 37.9408C73.2684 38.0569 72.4283 38.0991 71.8172 38.1079C71.4704 38.114 71.1955 38.1098 71 38.1035C70.8042 38.1096 70.5296 38.114 70.1828 38.1079C69.5704 38.0977 68.7313 38.0566 67.6897 37.9408C65.3496 37.6808 60.3956 37.3491 59.4703 32.6397C58.8284 29.3663 59.3302 27.1109 59.6961 26.0408C59.7751 25.7965 59.8736 25.559 59.9906 25.3305C59.9906 25.3305 59.923 25.9451 59.9189 26.7196C59.9139 27.7696 60.0259 29.1135 60.5826 29.6205C61.5504 30.5018 62.7349 31.3394 62.3883 33.015C62.0417 34.6906 63.6737 35.8031 64.9594 34.8643C66.2451 33.9254 66.7216 31.1373 68.2883 29.0942C68.6057 28.6706 68.9791 28.2919 69.3983 27.9687C69.5812 27.8294 69.7753 27.7055 69.9787 27.5984C70.1892 27.4873 70.4111 27.3993 70.6405 27.3359C70.7582 27.3037 70.8781 27.2797 70.9992 27.2639C71.1203 27.2797 71.2401 27.3037 71.3579 27.3359C71.5873 27.3992 71.8092 27.4872 72.0196 27.5984C72.2228 27.7056 72.4169 27.8293 72.5998 27.9684L72.6163 27.98C73.0283 28.3009 73.3957 28.6752 73.709 29.0931C74.6396 30.3065 75.1855 31.7828 75.7449 32.978C75.8326 33.1661 75.922 33.3486 76.0124 33.5212C76.0729 33.6361 76.1342 33.7469 76.1963 33.8535C76.2862 34.0077 76.3842 34.1571 76.49 34.301C76.5239 34.3465 76.5581 34.3906 76.5928 34.433C76.6603 34.516 76.7325 34.595 76.809 34.6696C76.8816 34.7406 76.9591 34.8065 77.0409 34.8668C77.2261 35.0044 77.4363 35.1047 77.6599 35.1621C77.742 35.1827 77.8256 35.1966 77.9099 35.2037C78.2752 35.2346 78.6396 35.1349 78.9384 34.9225C79.0046 34.8761 79.0672 34.8247 79.1256 34.7689C79.1845 34.7121 79.2394 34.6512 79.2897 34.5866C79.367 34.4869 79.433 34.3789 79.4865 34.2646C79.5815 34.0607 79.6382 33.841 79.6536 33.6166C79.6608 33.5195 79.661 33.422 79.6542 33.3249C79.6471 33.2216 79.633 33.1189 79.612 33.0175C79.5709 32.8233 79.5502 32.6253 79.5502 32.4269C79.551 32.2509 79.5717 32.0757 79.6117 31.9044C79.6693 31.6653 79.7631 31.4365 79.8899 31.2258C80.0948 30.8792 80.3755 30.5748 80.6785 30.2895C80.7993 30.1753 80.9236 30.0636 81.048 29.9531C81.1723 29.8425 81.2967 29.733 81.4177 29.623C81.5569 29.4965 81.6683 29.3172 81.7568 29.1036C81.8265 28.9313 81.8812 28.7533 81.9204 28.5717C81.935 28.508 81.9482 28.4424 81.9603 28.3762C81.9964 28.1774 82.0232 27.9687 82.0419 27.758C82.0731 27.407 82.083 27.0502 82.0811 26.7219C82.0781 25.9468 82.01 25.3328 82.01 25.3328C82.1268 25.5614 82.2252 25.799 82.3042 26.0433C82.6692 27.112 83.1716 29.3669 82.53 32.6422C81.6044 37.348 76.6504 37.6808 74.3104 37.9408Z" fill="#0067BE"/>
<path d="M96.7954 40.5511C97.2324 42.2989 95.2197 43.0467 95.2197 43.0467C95.2197 43.0467 95.8296 42.0921 94.4953 40.068C93.2965 38.2493 90.2053 36.9885 89.5899 36.7508L89.5312 36.7284C89.5466 36.7224 89.5667 36.7149 89.5896 36.7059C90.2053 36.4685 93.2965 35.2076 94.4953 33.3889C95.8293 31.3645 95.2199 30.4099 95.2199 30.4099C95.2199 30.4099 97.2324 31.1574 96.7954 32.9058C96.3584 34.6542 95.6793 34.8491 95.9443 35.4361C96.2092 36.0232 97.3358 36.2068 98.5896 35.574C99.5797 35.0752 101.081 35.3724 101.49 36.2978C101.551 36.434 101.586 36.5798 101.594 36.7284C101.586 36.877 101.551 37.0229 101.49 37.1589C101.081 38.0845 99.5808 38.3828 98.5896 37.8829C97.3358 37.2501 96.2098 37.4332 95.9443 38.0208C95.6787 38.6083 96.3584 38.8027 96.7954 40.5511Z" fill="#EF9700"/>
<path d="M111.76 60.6627C111.87 60.5383 111.98 60.414 112.09 60.293C111.979 60.4151 111.87 60.5383 111.76 60.6627Z" fill="white"/>
<path d="M111.423 61.0322C111.137 61.3346 110.834 61.6151 110.487 61.821C110.834 61.6151 111.137 61.3346 111.423 61.0322Z" fill="white"/>
<path d="M106.551 64.0508C106.608 64.2744 106.709 64.4848 106.846 64.6701C106.907 64.7519 106.973 64.8293 107.044 64.902C106.973 64.8293 106.907 64.7519 106.846 64.6701C106.709 64.4848 106.608 64.2744 106.551 64.0508V64.0508Z" fill="white"/>
<path d="M113.731 69.0933L113.744 69.1091L113.731 69.0933Z" fill="white"/>
<path d="M106.551 64.0509C106.53 63.9687 106.516 63.8851 106.509 63.8008C106.516 63.8851 106.53 63.9687 106.551 64.0509V64.0509Z" fill="white"/>
<path d="M109.809 62.0992C110.048 62.0416 110.277 61.9478 110.487 61.821C110.277 61.9478 110.048 62.0416 109.809 62.0992V62.0992Z" fill="white"/>
<path d="M109.286 62.1604C109.462 62.1597 109.637 62.1391 109.809 62.0992C109.637 62.1391 109.462 62.1597 109.286 62.1604V62.1604Z" fill="white"/>
<path d="M83.7192 70.0136C84.9988 70.1678 88.1145 70.3779 91.4268 69.3552C95.7526 68.0188 100.184 65.4352 102.449 61.3523C104.714 57.2694 102.479 52.9071 99.567 53.1385C96.6545 53.3698 95.7907 56.3589 97.3488 58.1613C98.9069 59.9638 100.665 59.444 100.665 59.444C100.665 59.444 99.2905 62.1682 96.8106 62.1516C94.3307 62.1351 92.7905 59.0745 92.7905 59.0745C92.7905 59.0745 92.2217 63.2416 89.3247 65.3186C89.3247 65.3186 86.3614 67.3824 84.4689 63.7715C84.4689 63.7715 83.0944 61.0184 87.1147 58.8504C87.1147 58.8504 85.62 60.2657 86.8635 61.9327C88.1071 63.5997 90.5544 62.7924 91.15 60.5039C91.7455 58.2154 90.5136 55.1846 92.4859 52.5799C94.4581 49.9751 97.9229 48.8887 100.927 50.4885C103.931 52.0882 104.843 55.3037 104.684 56.309C104.684 56.309 105.954 52.552 109.037 50.2635C112.119 47.975 115.572 49.0197 116.445 51.9832C117.318 54.9467 114.236 58.3728 111.286 55.9784C111.286 55.9784 114.526 55.3037 114.236 53.1338C113.945 50.9638 111.352 49.8003 109.064 51.7185C106.775 53.6367 105.688 56.5227 105.027 59.0886C104.367 61.6545 100.755 67.4362 95.2246 69.7379L103.604 69.8926C103.614 69.2802 103.655 68.4412 103.771 67.3995C104.031 65.0594 104.362 60.1055 109.072 59.1804C112.345 58.5385 114.601 59.0398 115.671 59.4059C115.915 59.485 116.153 59.5835 116.382 59.7004C116.382 59.7004 115.766 59.6329 114.992 59.629C114.489 59.8308 113.628 60.269 112.929 61.1017C111.875 62.3584 110.545 62.705 109.563 62.8203C108.581 62.9355 108.393 65.1752 109.997 65.883C111.578 66.5825 114.667 66.789 115.134 69.128C116.292 69.0177 117.751 68.5595 119.226 67.2539C122.49 64.3649 122.664 62.0248 121.32 61.3749C119.976 60.725 118.518 61.346 117.507 60.3352C116.496 59.3243 118.244 57.8652 118.041 56.9118C117.839 55.9583 116.669 55.366 117.262 54.8317C117.854 54.2973 119.067 55.3081 119.125 56.695C119.183 58.0819 118.244 58.645 118.677 59.3674C119.111 60.0898 120.468 58.5584 122.519 58.5584C124.57 58.5584 125.928 60.4942 124.311 63.123C122.693 65.7517 119.746 67.3121 119.761 68.4533C119.768 69.0676 120.117 69.3406 120.603 69.3599C120.92 68.9116 121.535 68.2868 122.722 67.601C125.047 66.2574 127.517 67.0231 128.5 66.9365C129.482 66.85 129.628 65.7534 129.727 65.2466C129.827 64.7398 130.71 65.3042 130.898 66.7631C131.016 67.6843 130.301 68.4624 129.756 68.9088C131.037 69.4578 131.751 69.7142 132.212 69.8399C132.58 69.9406 132.792 70.2052 132.904 70.4641C132.938 70.5429 132.964 70.6247 132.983 70.7084C132.965 70.7923 132.938 70.8743 132.904 70.953C132.792 71.2116 132.58 71.4769 132.212 71.5772C131.751 71.703 131.037 71.9591 129.756 72.5081C130.3 72.9561 131.016 73.7329 130.897 74.6541C130.708 76.1115 129.83 76.6749 129.727 76.1708C129.625 75.6668 129.482 74.5675 128.5 74.4809C127.517 74.3943 125.047 75.1595 122.722 73.8161C121.533 73.1296 120.92 72.5053 120.603 72.0576C120.117 72.0766 119.768 72.3493 119.761 72.9642C119.745 74.1065 122.693 75.6652 124.311 78.2939C125.928 80.9227 124.571 82.8588 122.519 82.8588C120.468 82.8588 119.112 81.326 118.677 82.0495C118.243 82.773 119.183 83.335 119.125 84.7219C119.067 86.1088 117.854 87.1196 117.262 86.5852C116.669 86.0509 117.838 85.4572 118.042 84.5052C118.246 83.5531 116.496 82.0931 117.508 81.0818C118.519 80.0704 119.977 80.6916 121.321 80.042C122.664 79.3924 122.491 77.052 119.226 74.163C117.751 72.8574 116.292 72.3997 115.134 72.2886C114.666 74.6287 111.579 74.8363 109.997 75.5339C108.394 76.2417 108.581 78.4806 109.564 78.5961C110.546 78.7116 111.875 79.0582 112.929 80.3153C113.628 81.1479 114.489 81.5858 114.992 81.7876C115.768 81.7843 116.382 81.7162 116.382 81.7162C116.153 81.833 115.916 81.9315 115.672 82.0107C114.603 82.3755 112.348 82.8781 109.072 82.2362C104.364 81.3117 104.032 76.3578 103.771 74.0169C103.655 72.9749 103.614 72.1362 103.604 71.5238L95.2249 71.6787C100.754 73.9799 104.367 79.7616 105.028 82.328C105.689 84.8945 106.773 87.783 109.06 89.7012C111.347 91.6194 113.942 90.4553 114.233 88.2856C114.524 86.1159 111.283 85.4415 111.283 85.4415C114.232 83.0471 117.315 86.4733 116.442 89.4365C115.569 92.3997 112.116 93.445 109.033 91.1562C105.951 88.8674 104.681 85.1104 104.681 85.1104C104.84 86.1159 103.927 89.3306 100.924 90.9315C97.9209 92.5323 94.4539 91.446 92.4828 88.8401C90.5116 86.2342 91.7419 83.2046 91.1466 80.9158C90.5514 78.627 88.1051 77.8191 86.8602 79.487C85.6153 81.1548 87.112 82.5693 87.112 82.5693C83.0902 80.3999 84.4661 77.6482 84.4661 77.6482C86.3576 74.0367 89.3219 76.1011 89.3219 76.1011C92.2189 78.1781 92.788 82.3454 92.788 82.3454C92.788 82.3454 94.3266 79.2838 96.8078 79.2686C99.2891 79.2534 100.667 81.9782 100.667 81.9782C100.667 81.9782 98.9064 81.4576 97.3496 83.2608C95.7929 85.0641 96.6564 88.0535 99.5686 88.2845C102.481 88.5156 104.716 84.1544 102.451 80.0707C100.185 75.9869 95.7537 73.4031 91.4284 72.0678C88.1164 71.0448 85.0005 71.2547 83.7208 71.4094L82.8925 72.3181L79.3194 79.0301L106.356 106.067L141.711 70.7115L106.355 35.3553L79.3181 62.3926L82.8906 69.1046L83.7192 70.0136ZM105.413 101.201C105.277 101.261 105.131 101.296 104.982 101.305C104.834 101.296 104.688 101.261 104.552 101.201C103.626 100.792 103.328 99.2912 103.828 98.3002C104.461 97.0465 104.277 95.9204 103.69 95.6549C103.102 95.3894 102.908 96.0688 101.16 96.5061C99.4115 96.9434 98.6637 94.93 98.6637 94.93C98.6637 94.93 99.6183 95.5399 101.642 94.2057C103.461 93.0071 104.722 89.916 104.96 89.3003C104.968 89.2771 104.976 89.2573 104.982 89.2416L105.005 89.3003C105.242 89.916 106.504 93.0057 108.322 94.2057C110.346 95.5396 111.3 94.9303 111.3 94.9303C111.3 94.9303 110.554 96.9414 108.805 96.5058C107.055 96.0702 106.862 95.3899 106.275 95.6549C105.688 95.9199 105.504 97.0465 106.137 98.3002C106.637 99.2914 106.338 100.791 105.413 101.201ZM103.827 43.12C103.328 42.1299 103.625 40.6283 104.55 40.2191C104.687 40.159 104.832 40.1238 104.981 40.1152C105.129 40.1238 105.275 40.1589 105.412 40.2188C106.337 40.628 106.635 42.1288 106.135 43.1197C105.503 44.3737 105.686 45.4995 106.273 45.765C106.861 46.0306 107.055 45.3512 108.804 44.9142C110.552 44.4771 111.3 46.4896 111.3 46.4896C111.3 46.4896 110.345 45.88 108.321 47.2143C106.502 48.4128 105.241 51.504 105.003 52.1197C104.995 52.1428 104.987 52.1627 104.981 52.1784L104.959 52.1194C104.721 51.5043 103.459 48.4142 101.642 47.2143C99.6175 45.88 98.6626 46.4896 98.6626 46.4896C98.6626 46.4896 99.4104 44.4769 101.158 44.9139C102.906 45.3509 103.102 46.03 103.689 45.765C104.276 45.5001 104.46 44.3746 103.828 43.1211L103.827 43.12Z" fill="white"/>
<path d="M77.986 77.6967L79.3178 79.0285L82.8906 72.3168L77.986 77.6967Z" fill="#E0D3B4"/>
<path d="M113.743 72.3116C113.42 72.7308 113.041 73.1042 112.617 73.4216C110.573 74.9889 107.785 75.4656 106.847 76.7505C105.909 78.0353 107.021 79.6679 108.696 79.3213C110.372 78.9748 111.21 80.1593 112.091 81.1271C112.598 81.684 113.942 81.796 114.992 81.7907C114.489 81.5889 113.627 81.151 112.929 80.3184C111.874 79.0613 110.545 78.7147 109.563 78.5992C108.58 78.4837 108.393 76.2448 109.996 75.537C111.578 74.8372 114.667 74.6304 115.133 72.2917C114.67 72.2467 114.204 72.2533 113.743 72.3116V72.3116Z" fill="#6BB0B1"/>
<path d="M106.135 98.3016C105.503 97.0479 105.686 95.9218 106.273 95.6563C106.861 95.3908 107.055 96.0702 108.803 96.5072C110.551 96.9442 111.299 94.9317 111.299 94.9317C111.299 94.9317 110.344 95.5411 108.32 94.2071C106.502 93.0085 105.241 89.9174 105.003 89.3017L104.981 89.243C104.975 89.2587 104.967 89.2785 104.958 89.3017C104.721 89.9174 103.46 93.0086 101.641 94.2071C99.6169 95.5414 98.6623 94.9314 98.6623 94.9314C98.6623 94.9314 99.4085 96.9459 101.158 96.5075C102.908 96.0691 103.101 95.3914 103.689 95.6563C104.276 95.9213 104.459 97.0479 103.826 98.3016C103.327 99.2915 103.625 100.793 104.55 101.202C104.686 101.263 104.832 101.298 104.981 101.306C105.129 101.298 105.275 101.263 105.411 101.202C106.338 100.791 106.637 99.2915 106.135 98.3016Z" fill="#EF9700"/>
<path d="M82.8906 69.1046L79.3178 62.3929L77.9863 63.7244L82.8906 69.1046Z" fill="#E0D3B4"/>
<path d="M75.9898 65.7209L70.9992 70.7115L75.9898 75.7021C78.7418 72.9485 78.741 68.4721 75.9898 65.7209Z" fill="#EF9700"/>
<path d="M75.9898 65.7209C78.741 68.4721 78.7421 72.9498 75.9898 75.7021L77.2226 76.9349C80.6537 73.5038 80.6537 67.9209 77.2226 64.4898L75.9898 65.7225L75.9898 65.7209Z" fill="white"/>
<path d="M83.7456 70.7107L83.9701 71.1325L83.7192 71.4077C84.9985 71.2533 88.1148 71.0432 91.4268 72.0661C95.7526 73.402 100.184 75.9855 102.449 80.069C104.714 84.1525 102.48 88.5142 99.567 88.2829C96.654 88.0515 95.7915 85.0621 97.348 83.2591C98.9044 81.4562 100.665 81.9765 100.665 81.9765C100.665 81.9765 99.2896 79.2523 96.8086 79.2678C94.3277 79.2832 92.7889 82.3446 92.7889 82.3446C92.7889 82.3446 92.2198 78.1773 89.3227 76.1002C89.3227 76.1002 86.3592 74.0367 84.4669 77.6473C84.4669 77.6473 83.0911 80.3991 87.1128 82.5685C87.1128 82.5685 85.6175 81.1532 86.8611 79.4861C88.1046 77.8191 90.5522 78.6262 91.1475 80.9149C91.7428 83.2037 90.5114 86.2345 92.4836 88.8393C94.4559 91.444 97.9209 92.5301 100.925 90.9306C103.929 89.3311 104.84 86.1151 104.682 85.1095C104.682 85.1095 105.952 88.8666 109.034 91.1553C112.117 93.4441 115.571 92.3977 116.443 89.4356C117.315 86.4735 114.233 83.046 111.284 85.4407C111.284 85.4407 114.524 86.1151 114.234 88.2848C113.943 90.4544 111.35 91.6188 109.061 89.7003C106.772 87.7818 105.688 84.8983 105.026 82.3319C104.364 79.7654 100.753 73.9843 95.2232 71.6826L103.602 71.5276C103.597 71.181 103.601 70.9061 103.607 70.7106C103.601 70.5152 103.597 70.2403 103.602 69.8931L95.2235 69.7384C100.753 67.4372 104.365 61.6556 105.026 59.0891C105.688 56.5227 106.773 53.6389 109.061 51.7207C111.35 49.8025 113.942 50.9666 114.234 53.136C114.525 55.3054 111.284 55.9806 111.284 55.9806C114.234 58.3747 117.316 54.9486 116.442 51.9854C115.569 49.0221 112.117 47.9772 109.035 50.2657C105.953 52.5542 104.682 56.3112 104.682 56.3112C104.841 55.3059 103.928 52.0912 100.925 50.4907C97.922 48.8901 94.4545 49.9759 92.4836 52.582C90.5128 55.1882 91.7428 58.2176 91.1477 60.5061C90.5527 62.7946 88.1046 63.6017 86.8613 61.9349C85.6181 60.2681 87.1125 58.8526 87.1125 58.8526C83.0908 61.022 84.4667 63.7737 84.4667 63.7737C86.3587 67.3851 89.3225 65.3208 89.3225 65.3208C92.2195 63.2438 92.7883 59.0767 92.7883 59.0767C92.7883 59.0767 94.3271 62.1381 96.8084 62.1538C99.2896 62.1695 100.663 59.4462 100.663 59.4462C100.663 59.4462 98.9028 59.9668 97.3466 58.1635C95.7904 56.3603 96.6529 53.3709 99.5656 53.1398C102.478 52.9088 104.713 57.2699 102.447 61.3537C100.182 65.4374 95.7504 68.021 91.4254 69.3566C88.1131 70.3792 84.9977 70.1694 83.7178 70.015L83.9687 70.2902L83.7456 70.7107Z" fill="#6BB0B1"/>
<path d="M77.2226 64.4881C80.6537 67.9192 80.6537 73.5021 77.2226 76.9332L77.9861 77.6967L82.8909 72.3165L83.7192 71.4077L83.9701 71.1325L83.7457 70.7107L83.9701 70.2888L83.7192 70.0137L82.8906 69.1046L77.9863 63.7244L77.2226 64.4881Z" fill="#0067BE"/>
<path d="M113.337 59.7506C113.27 59.7622 113.205 59.776 113.141 59.7903C112.96 59.8296 112.782 59.8843 112.609 59.9538C112.396 60.0423 112.217 60.154 112.09 60.2929C111.98 60.414 111.87 60.5383 111.76 60.6627C111.649 60.787 111.538 60.9114 111.423 61.0322C111.137 61.3346 110.834 61.615 110.487 61.821C110.277 61.9478 110.048 62.0416 109.809 62.0992C109.637 62.1391 109.462 62.1597 109.286 62.1604C109.087 62.1607 108.89 62.14 108.695 62.0987C108.594 62.0778 108.491 62.0637 108.388 62.0565C108.291 62.0499 108.193 62.0501 108.096 62.057C107.872 62.0726 107.652 62.1292 107.448 62.2241C107.334 62.2776 107.226 62.3437 107.126 62.421C107.062 62.4712 107.001 62.5261 106.944 62.5853C106.888 62.6438 106.837 62.7063 106.79 62.7723C106.578 63.0711 106.478 63.4354 106.509 63.8007C106.516 63.885 106.53 63.9687 106.551 64.0508C106.608 64.2744 106.709 64.4847 106.846 64.6701C106.907 64.7518 106.973 64.8293 107.044 64.902C107.118 64.9785 107.197 65.0506 107.28 65.1181C107.323 65.1529 107.366 65.1868 107.412 65.2207C107.555 65.3256 107.703 65.4229 107.857 65.5121C107.963 65.5745 108.074 65.6359 108.189 65.6963C108.362 65.7868 108.543 65.8753 108.732 65.9638C109.928 66.523 111.404 67.0689 112.617 67.9995C113.035 68.3127 113.409 68.6802 113.73 69.0922L113.742 69.1087C114.203 69.1672 114.67 69.1738 115.132 69.1286C114.666 66.7871 111.577 66.5811 109.995 65.8836C108.392 65.1758 108.58 62.9366 109.562 62.8208C110.544 62.705 111.873 62.359 112.928 61.1022C113.626 60.2695 114.488 59.8314 114.991 59.6296C114.662 59.6274 114.306 59.6378 113.955 59.669C113.744 59.6877 113.536 59.7145 113.337 59.7506Z" fill="#6BB0B1"/>
<path d="M107.28 65.1182C107.197 65.0507 107.118 64.9785 107.044 64.902C107.118 64.9785 107.197 65.0507 107.28 65.1182V65.1182Z" fill="white"/>
<path d="M108.732 65.9638C108.544 65.8761 108.362 65.7868 108.189 65.6963C108.362 65.7868 108.544 65.8753 108.732 65.9638Z" fill="white"/>
<path d="M108.189 65.6964C108.074 65.6359 107.963 65.5745 107.857 65.5122C107.963 65.5749 108.074 65.6363 108.189 65.6964Z" fill="white"/>
<path d="M107.857 65.5122C107.703 65.423 107.555 65.3257 107.412 65.2208C107.555 65.3257 107.703 65.423 107.857 65.5122V65.5122Z" fill="white"/>
<path d="M107.126 62.421C107.226 62.3437 107.334 62.2777 107.448 62.2241C107.334 62.2777 107.226 62.3437 107.126 62.421V62.421Z" fill="white"/>
<path d="M113.337 59.7506C113.537 59.7159 113.745 59.6877 113.955 59.669C113.745 59.6877 113.536 59.7145 113.337 59.7506Z" fill="white"/>
<path d="M108.388 62.0565C108.291 62.0499 108.193 62.0501 108.096 62.0571C108.193 62.0501 108.291 62.0499 108.388 62.0565V62.0565Z" fill="white"/>
<path d="M112.609 59.9539C112.782 59.8844 112.96 59.8297 113.141 59.7904C112.96 59.8297 112.782 59.8844 112.609 59.9539V59.9539Z" fill="white"/>
<path d="M106.79 62.7723C106.837 62.7063 106.888 62.6438 106.944 62.5853C106.888 62.6438 106.837 62.7063 106.79 62.7723V62.7723Z" fill="white"/>
<path d="M106.944 62.5853C107.001 62.5261 107.062 62.4712 107.126 62.421C107.062 62.4712 107.001 62.5261 106.944 62.5853V62.5853Z" fill="white"/>
<path d="M122.028 72.5186C121.535 72.2123 121.018 72.0432 120.602 72.0601C120.92 72.5078 121.534 73.1332 122.722 73.8186C125.047 75.162 127.517 74.3966 128.499 74.4834C129.482 74.5703 129.627 75.6666 129.727 76.1733C129.827 76.6801 130.709 76.1154 130.897 74.6566C131.016 73.7354 130.301 72.9573 129.755 72.5106C129.27 72.7199 128.704 72.968 128.037 73.2697C125.61 74.3676 123.097 73.1831 122.028 72.5186Z" fill="#EF9700"/>
<path d="M128.037 68.1511C128.704 68.453 129.269 68.702 129.755 68.9102C130.3 68.4621 131.016 67.6857 130.897 66.7645C130.71 65.3056 129.828 64.7423 129.727 65.248C129.626 65.7537 129.481 66.8514 128.499 66.9379C127.517 67.0245 125.047 66.2588 122.721 67.6024C121.533 68.2893 120.92 68.913 120.602 69.3613C121.018 69.3776 121.535 69.2091 122.028 68.9025C123.097 68.238 125.611 67.0535 128.037 68.1511Z" fill="#EF9700"/>
<path d="M118.041 56.9131C118.245 57.8677 116.496 59.3254 117.507 60.3365C118.518 61.3476 119.977 60.7267 121.32 61.3763C122.663 62.0259 122.49 64.3662 119.225 67.2553C117.75 68.5608 116.291 69.0185 115.133 69.1294C114.67 69.1746 114.204 69.168 113.743 69.1095C113.781 69.16 113.817 69.2102 113.851 69.2598C113.947 69.3975 114.035 69.541 114.113 69.6897C114.224 69.9002 114.312 70.1222 114.375 70.3517C114.408 70.4693 114.431 70.5891 114.447 70.7101C114.432 70.8312 114.408 70.9511 114.375 71.0688C114.312 71.2983 114.224 71.5203 114.113 71.7308C114.006 71.9341 113.882 72.1283 113.743 72.3112C114.204 72.2527 114.67 72.2459 115.133 72.2908C116.291 72.4011 117.75 72.8597 119.226 74.1652C122.49 77.054 122.663 79.3941 121.32 80.0442C119.977 80.6944 118.518 80.0732 117.507 81.084C116.496 82.0948 118.244 83.5542 118.042 84.5104C117.84 85.4666 116.669 86.0558 117.261 86.5905C117.853 87.1251 119.067 86.1137 119.125 84.7271C119.182 83.3405 118.244 82.7769 118.677 82.0548C119.11 81.3327 120.468 82.8638 122.519 82.8641C124.57 82.8643 125.927 80.926 124.311 78.2967C122.694 75.6674 119.746 74.1079 119.761 72.9669C119.769 72.3523 120.117 72.0794 120.603 72.0603C121.019 72.0435 121.535 72.2125 122.028 72.5189C123.097 73.1834 125.611 74.3679 128.038 73.27C128.705 72.9683 129.27 72.7193 129.756 72.5109C131.037 71.9619 131.751 71.7058 132.212 71.58C132.58 71.4797 132.792 71.2144 132.904 70.9558C132.938 70.877 132.965 70.7951 132.983 70.7112C132.964 70.6275 132.938 70.5457 132.904 70.4669C132.792 70.208 132.58 69.9433 132.212 69.8427C131.751 69.717 131.037 69.4605 129.756 68.9116C129.271 68.7023 128.704 68.4544 128.037 68.1525C125.611 67.0548 123.098 68.2396 122.028 68.9038C121.535 69.2104 121.019 69.3789 120.603 69.3627C120.117 69.3434 119.768 69.0704 119.761 68.4561C119.745 67.3137 122.693 65.7548 124.311 63.1258C125.928 60.4967 124.571 58.5611 122.519 58.5611C120.468 58.5611 119.11 60.0922 118.677 59.3701C118.244 58.648 119.183 58.0844 119.125 56.6978C119.067 55.3112 117.854 54.2998 117.262 54.8344C116.67 55.3691 117.839 55.96 118.041 56.9131Z" fill="#E0D3B4"/>
<path d="M103.77 67.4001C103.653 68.442 103.611 69.2822 103.602 69.8932C103.597 70.2403 103.601 70.5152 103.607 70.7107C103.601 70.9062 103.597 71.1811 103.602 71.5277C103.613 72.14 103.654 72.9794 103.77 74.0208C104.03 76.3611 104.361 81.3148 109.071 82.2401C112.344 82.882 114.6 82.3805 115.67 82.0146C115.914 81.9354 116.151 81.8369 116.38 81.7201C116.38 81.7201 115.765 81.7874 114.991 81.7915C113.941 81.7968 112.597 81.6848 112.09 81.1278C111.209 80.16 110.371 78.9755 108.695 79.3221C107.02 79.6687 105.907 78.0367 106.846 76.7513C107.785 75.4658 110.573 74.9888 112.616 73.4224C113.04 73.105 113.419 72.7316 113.742 72.3124C113.881 72.1294 114.005 71.9353 114.112 71.732C114.223 71.5215 114.311 71.2995 114.374 71.07C114.407 70.9522 114.431 70.8324 114.446 70.7112C114.431 70.5902 114.407 70.4705 114.375 70.3528C114.311 70.1233 114.223 69.9013 114.112 69.6908C114.005 69.4876 113.881 69.2935 113.742 69.1107L113.73 69.0941C113.409 68.6821 113.035 68.3147 112.617 68.0014C111.404 67.0708 109.928 66.5252 108.733 65.9657C108.545 65.8781 108.362 65.7887 108.189 65.6983C108.075 65.6378 107.964 65.5764 107.857 65.5141C107.704 65.4249 107.555 65.3276 107.412 65.2227C107.367 65.1888 107.323 65.1548 107.28 65.1201C107.197 65.0526 107.118 64.9804 107.044 64.9039C106.973 64.8313 106.907 64.7538 106.847 64.6721C106.709 64.4867 106.609 64.2764 106.551 64.0528C106.531 63.9706 106.517 63.887 106.509 63.8027C106.479 63.4374 106.578 63.0731 106.791 62.7742C106.837 62.7082 106.889 62.6457 106.944 62.5873C107.001 62.5281 107.062 62.4732 107.126 62.423C107.226 62.3457 107.334 62.2796 107.449 62.2261C107.652 62.1312 107.872 62.0746 108.096 62.059C108.194 62.0521 108.291 62.0519 108.388 62.0584C108.491 62.0656 108.594 62.0797 108.696 62.1006C108.89 62.142 109.088 62.1627 109.286 62.1624C109.462 62.1617 109.638 62.1411 109.809 62.1012C110.048 62.0436 110.277 61.9498 110.488 61.823C110.834 61.6178 111.139 61.3374 111.424 61.0341C111.538 60.9134 111.649 60.789 111.76 60.6647C111.871 60.5403 111.98 60.416 112.09 60.2949C112.217 60.156 112.396 60.0443 112.61 59.9558C112.782 59.8863 112.96 59.8316 113.141 59.7923C113.205 59.7779 113.271 59.7647 113.337 59.7526C113.537 59.7178 113.745 59.6897 113.955 59.6709C114.306 59.6398 114.663 59.6299 114.991 59.6315C115.766 59.6345 116.381 59.7029 116.381 59.7029C116.152 59.586 115.914 59.4875 115.67 59.4085C114.601 59.0434 112.346 58.541 109.071 59.1829C104.362 60.1055 104.03 65.06 103.77 67.4001Z" fill="#0067BE"/>
<path d="M101.159 44.915C99.4115 44.4779 98.6637 46.4907 98.6637 46.4907C98.6637 46.4907 99.6186 45.8811 101.643 47.2153C103.461 48.4142 104.722 51.5053 104.96 52.1205L104.982 52.1795C104.988 52.1638 104.996 52.1439 105.005 52.1207C105.242 51.5051 106.504 48.4153 108.322 47.2153C110.346 45.8811 111.301 46.4907 111.301 46.4907C111.301 46.4907 110.553 44.4779 108.805 44.9152C107.057 45.3525 106.862 46.0314 106.274 45.7661C105.687 45.5009 105.504 44.3748 106.136 43.1208C106.635 42.131 106.338 40.6291 105.413 40.2199C105.276 40.1599 105.131 40.1248 104.982 40.1162C104.833 40.1249 104.688 40.1601 104.552 40.2202C103.626 40.6294 103.328 42.1296 103.828 43.1211C104.46 44.3745 104.277 45.5006 103.69 45.7661C103.102 46.0316 102.908 45.352 101.159 44.915Z" fill="#EF9700"/>
</g>
<defs>
<clipPath id="clip0_14_243">
<rect width="100" height="100" fill="white" transform="translate(71) rotate(45)"/>
</clipPath>
</defs>
</svg>
