<svg id="visual" viewBox="0 0 900 600" width="900" height="600" xmlns="http://www.w3.org/2000/svg" xmlns:xlink="http://www.w3.org/1999/xlink" version="1.1"><rect x="0" y="0" width="900" height="600" fill="#FFFFFF"></rect><path d="M0 154L21.5 151.2C43 148.3 86 142.7 128.8 137.8C171.7 133 214.3 129 257.2 128C300 127 343 129 385.8 133.7C428.7 138.3 471.3 145.7 514.2 146.3C557 147 600 141 642.8 142C685.7 143 728.3 151 771.2 153.2C814 155.3 857 151.7 878.5 149.8L900 148L900 0L878.5 0C857 0 814 0 771.2 0C728.3 0 685.7 0 642.8 0C600 0 557 0 514.2 0C471.3 0 428.7 0 385.8 0C343 0 300 0 257.2 0C214.3 0 171.7 0 128.8 0C86 0 43 0 21.5 0L0 0Z" fill="#6bb0b2"></path><path d="M0 125L21.5 122.2C43 119.3 86 113.7 128.8 112.3C171.7 111 214.3 114 257.2 115C300 116 343 115 385.8 111.8C428.7 108.7 471.3 103.3 514.2 101.5C557 99.7 600 101.3 642.8 101.5C685.7 101.7 728.3 100.3 771.2 98.2C814 96 857 93 878.5 91.5L900 90L900 0L878.5 0C857 0 814 0 771.2 0C728.3 0 685.7 0 642.8 0C600 0 557 0 514.2 0C471.3 0 428.7 0 385.8 0C343 0 300 0 257.2 0C214.3 0 171.7 0 128.8 0C86 0 43 0 21.5 0L0 0Z" fill="#8fbfbb"></path><path d="M0 60L21.5 60.7C43 61.3 86 62.7 128.8 61C171.7 59.3 214.3 54.7 257.2 51.5C300 48.3 343 46.7 385.8 48.3C428.7 50 471.3 55 514.2 59.8C557 64.7 600 69.3 642.8 70.7C685.7 72 728.3 70 771.2 68.3C814 66.7 857 65.3 878.5 64.7L900 64L900 0L878.5 0C857 0 814 0 771.2 0C728.3 0 685.7 0 642.8 0C600 0 557 0 514.2 0C471.3 0 428.7 0 385.8 0C343 0 300 0 257.2 0C214.3 0 171.7 0 128.8 0C86 0 43 0 21.5 0L0 0Z" fill="#b0cec7"></path></svg>