<svg id="visual" viewBox="0 0 900 600" width="900" height="600" xmlns="http://www.w3.org/2000/svg" xmlns:xlink="http://www.w3.org/1999/xlink" version="1.1"><rect x="0" y="0" width="900" height="600" fill="#FFFFFF"></rect><path d="M0 444L21.5 446.8C43 449.7 86 455.3 128.8 460.2C171.7 465 214.3 469 257.2 470C300 471 343 469 385.8 464.3C428.7 459.7 471.3 452.3 514.2 451.7C557 451 600 457 642.8 456C685.7 455 728.3 447 771.2 444.8C814 442.7 857 446.3 878.5 448.2L900 450L900 601L878.5 601C857 601 814 601 771.2 601C728.3 601 685.7 601 642.8 601C600 601 557 601 514.2 601C471.3 601 428.7 601 385.8 601C343 601 300 601 257.2 601C214.3 601 171.7 601 128.8 601C86 601 43 601 21.5 601L0 601Z" fill="#6bb0b2"></path><path d="M0 473L21.5 475.8C43 478.7 86 484.3 128.8 485.7C171.7 487 214.3 484 257.2 483C300 482 343 483 385.8 486.2C428.7 489.3 471.3 494.7 514.2 496.5C557 498.3 600 496.7 642.8 496.5C685.7 496.3 728.3 497.7 771.2 499.8C814 502 857 505 878.5 506.5L900 508L900 601L878.5 601C857 601 814 601 771.2 601C728.3 601 685.7 601 642.8 601C600 601 557 601 514.2 601C471.3 601 428.7 601 385.8 601C343 601 300 601 257.2 601C214.3 601 171.7 601 128.8 601C86 601 43 601 21.5 601L0 601Z" fill="#8fbfbb"></path><path d="M0 538L21.5 537.3C43 536.7 86 535.3 128.8 537C171.7 538.7 214.3 543.3 257.2 546.5C300 549.7 343 551.3 385.8 549.7C428.7 548 471.3 543 514.2 538.2C557 533.3 600 528.7 642.8 527.3C685.7 526 728.3 528 771.2 529.7C814 531.3 857 532.7 878.5 533.3L900 534L900 601L878.5 601C857 601 814 601 771.2 601C728.3 601 685.7 601 642.8 601C600 601 557 601 514.2 601C471.3 601 428.7 601 385.8 601C343 601 300 601 257.2 601C214.3 601 171.7 601 128.8 601C86 601 43 601 21.5 601L0 601Z" fill="#b0cec7"></path></svg>